SplineFontDB: 3.2
FontName: Sebastian
FullName: Sebastian
FamilyName: Sebastian
Weight: Standard

StartChar: numbersign
Encoding: 35 35 0
GlifName: numbersign
Width: 253
VWidth: 0
Flags: W
VStem: 52 30<-340 -190.866 -84.1735 50.0872 154.915 315> 171 30<-315 -156.867 -49.0894 83.1718 189.914 340>
LayerCount: 2
Fore
SplineSet
0 39 m 1
 0 127 l 1
 52 142 l 1
 52 315 l 1
 82 315 l 1
 82 168 l 2
 82 163 89 153 96 155 c 2
 171 177 l 1
 171 340 l 1
 201 340 l 1
 201 203 l 2
 201 197 209 188 216 190 c 2
 253 201 l 1
 253 113 l 1
 201 98 l 1
 201 -37 l 2
 201 -47 213 -51 220 -49 c 2
 253 -39 l 1
 253 -127 l 1
 201 -142 l 1
 201 -315 l 1
 171 -315 l 1
 171 -168 l 2
 171 -161 160 -154 152 -157 c 2
 82 -177 l 1
 82 -340 l 1
 52 -340 l 1
 52 -203 l 2
 52 -194 43 -188 35 -191 c 2
 0 -201 l 1
 0 -113 l 1
 52 -98 l 1
 52 40 l 2
 52 45 45 52 37 50 c 2
 0 39 l 1
82 63 m 1
 82 -69 l 2
 82 -76 93 -86 100 -84 c 2
 171 -63 l 1
 171 70 l 2
 171 78 158 85 152 83 c 2
 82 63 l 1
EndSplineSet
Validated: 1
EndChar

StartChar: percent
Encoding: 37 37 1
GlifName: percent
Width: 591
Flags: W
HStem: -13 58<398 492.381> 176 95<15.0156 93.248> 269 103<246 348> 373 95<498.752 576.984> 598 58<98.3716 193> 628 20G<512 517.5>
VStem: 0 48<463.053 557.731> 7 94<183.642 263.358> 175 103<525.142 577.615> 312 104<63.0351 116.556> 491 94<380.642 460.358> 542 49<85.2695 183.232>
LayerCount: 2
Fore
SplineSet
469 45 m 0xb6d0
 511 45 542 90 542 125 c 0
 542 147 534 168 518 186 c 0
 483 224 420 248 348 266 c 0
 339 268 330 269 322 269 c 0
 288 269 266 250 249 227 c 0
 90 8 l 0
 84 0 80 -4 76 -4 c 0
 68 -4 52 10 52 15 c 0
 52 18 54 22 59 28 c 0
 212 237 l 0
 219 247 224 258 224 268 c 0
 224 284 212 299 177 310 c 0
 92 337 0 383 0 482 c 0
 0 568 85 656 178 656 c 0
 208 656 236 646 257 623 c 0
 271 606 278 589 278 572 c 0
 278 540 251 510 219 510 c 0
 202 510 187 519 175 532 c 0
 156 552 161 598 122 598 c 0xbad0
 79 598 48 553 48 518 c 0
 48 496 57 475 73 458 c 0
 108 419 172 395 246 375 c 0
 256 373 265 372 272 372 c 0
 304 372 322 390 339 413 c 0
 501 636 l 0
 507 644 510 648 514 648 c 0
 521 648 538 634 538 629 c 0
 538 626 536 622 532 616 c 0
 375 401 l 0
 368 390 362 380 362 370 c 0
 362 357 372 346 399 338 c 0
 460 319 518 294 552 256 c 0
 578 227 591 195 591 161 c 0
 591 75 506 -13 413 -13 c 0
 383 -13 354 -3 334 21 c 0
 319 37 312 54 312 71 c 0
 312 103 340 132 372 132 c 0
 388 132 404 125 416 111 c 0
 434 91 429 45 469 45 c 0xb6d0
538 373 m 0
 512 373 491 394 491 421 c 0
 491 446 511 468 538 468 c 0
 564 468 585 447 585 420 c 0x90e0
 585 395 564 373 538 373 c 0
54 271 m 0xd1c0
 80 271 101 250 101 223 c 0
 101 198 81 176 54 176 c 0
 28 176 7 197 7 224 c 0
 7 249 28 271 54 271 c 0xd1c0
EndSplineSet
EndChar

StartChar: ampersand
Encoding: 38 38 2
GlifName: ampersand
Width: 709
Flags: W
HStem: -690 34<262.287 410.186> -270 31<262.31 449.61> 149 130<420.5 537.78>
VStem: 0 69<-44.5643 151.385> 113 141<-629.5 -476.5> 189 68<-41.2767 80.3496> 249 47<689.84 914.197> 510 34<-554.285 -344.303> 551 37<881.456 1049.93> 634 75<-92.6484 67.5143>
LayerCount: 2
Fore
SplineSet
634 -26 m 0xf1c0
 634 75 580 145 453 149 c 0
 441 149 424 134 427 121 c 2
 495 -197 l 2
 497 -204 512 -212 518 -209 c 0
 585 -178 634 -120 634 -26 c 0xf1c0
304 416 m 0
 205 321 69 214 69 36 c 0
 69 -138 200 -239 367 -239 c 0
 393 -239 419 -237 444 -232 c 0
 456 -230 465 -213 463 -205 c 2
 392 126 l 2
 390 134 376 143 364 139 c 0
 279 115 257 52 257 13 c 0
 257 -39 281 -78 310 -121 c 0
 312 -124 313 -126 313 -127 c 0
 313 -129 312 -130 310 -130 c 0
 308 -130 306 -129 303 -128 c 0
 237 -102 189 -32 189 51 c 0xf5c0
 189 152 263 242 361 270 c 1
 331 408 l 2
 329 418 311 422 304 416 c 0
353 464 m 1
 394 277 l 1
 404 278 415 279 426 279 c 0
 583 279 709 164 709 10 c 0
 709 -108 634 -198 525 -241 c 0
 518 -244 508 -256 511 -270 c 2
 517 -298 l 2
 531 -362 544 -412 544 -471 c 0
 544 -603 455 -690 340 -690 c 0
 229 -690 113 -620 113 -509 c 0
 113 -444 163 -385 231 -385 c 0
 296 -385 350 -436 350 -503 c 0
 350 -558 312 -607 259 -619 c 0
 256 -620 254 -623 254 -627 c 0xf9c0
 254 -632 257 -639 261 -641 c 0
 280 -650 294 -656 328 -656 c 0
 434 -656 510 -588 510 -469 c 0
 510 -412 495 -351 485 -306 c 2
 479 -276 l 2
 477 -268 464 -260 454 -262 c 0
 427 -267 398 -270 369 -270 c 0
 170 -270 0 -132 0 75 c 0
 0 289 150 444 286 576 c 2
 294 584 l 1
 285 624 l 2
 278 657 249 776 249 857 c 0xf3c0
 249 1065 391 1231 441 1264 c 0
 444 1266 446 1267 447 1267 c 0
 449 1267 450 1266 453 1264 c 0
 484 1236 588 1096 588 929 c 0
 588 724 487 594 364 474 c 2
 353 464 l 1
347 636 m 0
 430 718 551 832 551 978 c 0
 551 1012 536 1089 507 1115 c 1
 396 1087 296 941 296 791 c 0xf3c0
 296 746 301 708 312 657 c 2
 315 641 l 2
 317 632 338 628 347 636 c 0
EndSplineSet
Validated: 33
EndChar

StartChar: parenleft
Encoding: 40 40 3
GlifName: parenleft
Width: 114
Flags: W
VStem: 0 32<-107.427 107.871>
LayerCount: 2
Fore
SplineSet
32 0 m 0
 32 -113 78 -184 107 -229 c 0
 112 -236 114 -242 114 -247 c 0
 114 -255 109 -260 103 -260 c 0
 98 -260 92 -256 86 -248 c 0
 53 -208 0 -123 0 0 c 0
 0 124 53 208 86 248 c 0
 92 256 98 260 103 260 c 0
 109 260 114 255 114 247 c 0
 114 242 112 236 107 229 c 0
 78 184 32 114 32 0 c 0
EndSplineSet
Validated: 1
EndChar

StartChar: parenright
Encoding: 41 41 4
GlifName: parenright
Width: 114
Flags: W
VStem: 82 32<-107.871 107.427>
LayerCount: 2
Fore
SplineSet
82 0 m 0
 82 113 36 184 7 229 c 0
 2 236 0 242 0 247 c 0
 0 255 5 260 11 260 c 0
 16 260 22 256 28 248 c 0
 61 208 114 123 114 0 c 0
 114 -124 61 -208 28 -248 c 0
 22 -256 16 -260 11 -260 c 0
 5 -260 0 -255 0 -247 c 0
 0 -242 2 -236 7 -229 c 0
 36 -184 82 -114 82 0 c 0
EndSplineSet
Validated: 1
EndChar

StartChar: plus
Encoding: 43 43 5
GlifName: plus
Width: 398
Flags: W
HStem: 125 35<60.0074 179.944 218.173 337.956>
VStem: 182 34<4.01566 123.829 162.458 281.956>
LayerCount: 2
Fore
SplineSet
302 160 m 2
 323 160 338 162 338 147 c 0
 338 123 338 125 300 125 c 2
 241 125 l 2
 223 125 216 119 216 106 c 2
 216 54 l 2
 216 13 222 4 198 4 c 0
 179 4 182 9 182 52 c 2
 182 104 l 2
 182 120 166 125 157 125 c 2
 111 125 l 2
 70 125 60 119 60 143 c 0
 60 162 65 160 108 160 c 2
 155 160 l 2
 171 160 182 173 182 188 c 2
 182 246 l 2
 182 267 179 282 194 282 c 0
 218 282 216 282 216 244 c 2
 216 190 l 2
 216 170.5 228 160 246 160 c 2
 302 160 l 2
EndSplineSet
EndChar

StartChar: comma
Encoding: 44 44 6
GlifName: comma
Width: 214
Flags: W
HStem: -4 159<31.75 123.817>
VStem: 124 68<-48.2788 67>
LayerCount: 2
Fore
SplineSet
6 -137 m 1
 104 -80 160 -12 160 56 c 0
 160 69 154 77 140 77 c 0
 124 77 119 72 88 72 c 0
 57 72 0 93 0 162 c 0
 0 213 42 252 93 252 c 0
 172 252 214 187 214 107 c 0
 214 -40 114 -118 20 -166 c 1
 6 -137 l 1
EndSplineSet
Validated: 1
EndChar

StartChar: period
Encoding: 46 46 7
GlifName: period
Width: 124
Flags: W
HStem: -61 122<15.2003 108.463>
VStem: 0 124<-46.5665 46.2296>
LayerCount: 2
Fore
SplineSet
0 0 m 0
 0 34 28 61 62 61 c 0
 95 61 124 34 124 0 c 0
 124 -35 95 -61 62 -61 c 0
 28 -61 0 -35 0 0 c 0
EndSplineSet
Validated: 1
EndChar

StartChar: slash
Encoding: 47 47 8
GlifName: slash
Width: 167
Flags: W
HStem: 650 20G<0 30 137 167>
VStem: 0 30<-162 670> 137 30<-162 670>
LayerCount: 2
Fore
SplineSet
137 670 m 0
 167 670 l 0
 167 -162 l 0
 137 -162 l 0
 137 670 l 0
0 670 m 0
 30 670 l 0
 30 -162 l 0
 0 -162 l 0
 0 670 l 0
EndSplineSet
Validated: 1
EndChar

StartChar: zero
Encoding: 48 48 9
GlifName: zero
Width: 420
Flags: W
HStem: -5 28<175.213 244.787> 477 28<175.213 244.787>
VStem: 25 103<127.935 369.619> 292 103<127.935 369.619>
LayerCount: 2
Fore
SplineSet
25 250 m 0
 25 392 105 505 210 505 c 0
 315 505 395 392 395 250 c 0
 395 108 315 -5 210 -5 c 0
 105 -5 25 108 25 250 c 0
210 477 m 0
 145 477 128 378 128 268 c 0
 128 228 l 0
 128 118 145 23 210 23 c 0
 275 23 292 118 292 228 c 0
 292 268 l 0
 292 378 275 477 210 477 c 0
EndSplineSet
Validated: 1
EndChar

StartChar: one
Encoding: 49 49 10
GlifName: one
Width: 335
Flags: W
HStem: 0 30<72 134.222 247.778 310> 470 20G<139.538 238>
VStem: 144 94<35.61 344.412>
LayerCount: 2
Fore
SplineSet
238 75 m 0
 238 44 258 30 286 30 c 0
 310 30 l 0
 310 0 l 0
 72 0 l 0
 72 30 l 0
 96 30 l 0
 124 30 144 44 144 76 c 0
 144 341 l 0
 144 348 132 353 127 344 c 0
 54 213 l 0
 52 211 52 210 49 212 c 0
 27 225 l 0
 24 227 25 227 26 230 c 0
 149 490 l 0
 176 476 208 478 238 490 c 0
 238 75 l 0
EndSplineSet
Validated: 33
EndChar

StartChar: two
Encoding: 50 50 11
GlifName: two
Width: 411
Flags: W
HStem: -5 94<228.487 337.799> 59 75<96.9264 178.2> 140 20G<358 386> 296 118<81 154.137> 476 29<138.155 242.387>
VStem: 25 26<0 25.0235> 40 129<313.875 404.623> 284 101<301.763 435.201> 360 26<115.625 160>
LayerCount: 2
Fore
SplineSet
216 505 m 0x7b
 306 505 385 448 385 366 c 0
 385 284 316 237 250 208 c 0
 209 189 165 167 127 132 c 1
 135 133 142 134 150 134 c 0x7b
 200 134 252 89 300 89 c 0
 331 89 356 106 360 160 c 1
 386 160 l 1
 386 108 369 -5 282 -5 c 0xb880
 211 -5 173 59 120 59 c 0
 94 59 64 41 51 0 c 1
 25 0 l 1x7c80
 30 76 102 156 159 196 c 0
 254 262 284 327 284 381 c 0
 284 446 240 476 191 476 c 0
 147 476 98 449 81 414 c 1
 135 435 169 393 169 358 c 0
 169 323 142 296 107 296 c 0
 72 296 40 322 40 368 c 0
 40 435 108 505 216 505 c 0x7b
EndSplineSet
Validated: 33
EndChar

StartChar: three
Encoding: 51 51 12
GlifName: three
Width: 417
Flags: W
HStem: -5 29<126.377 244.592> 75 122<75 138.07> 256 30<156 238.321> 324 111<101 153.066> 478 27<142.057 249.763>
VStem: 25 128<88.4801 178.813> 52 113<336.37 423.594> 285 107<69.624 204.837> 285 86<325.424 445.689>
LayerCount: 2
Fore
SplineSet
264 272 m 0xfa80
 341 249 392 202 392 138 c 0
 392 67 327 -5 200 -5 c 0
 110 -5 25 56 25 120 c 0
 25 171 56 197 91 197 c 0
 126 197 153 170 153 135 c 0
 153 104 127 65 75 75 c 0
 85 58 136 24 188 24 c 0
 260 24 285 70 285 144 c 0xfd
 285 207 268 256 156 256 c 0
 156 286 l 0
 262 286 285 327 285 381 c 0
 285 438 264 478 194 478 c 0
 162 478 121 460 101 435 c 0
 139 440 165 411 165 380 c 0
 165 349 140 324 109 324 c 0
 78 324 52 347 52 383 c 0
 52 447 128 505 207 505 c 0
 291 505 371 458 371 386 c 0
 371 328 324 291 264 272 c 0xfa80
EndSplineSet
Validated: 33
EndChar

StartChar: four
Encoding: 52 52 13
GlifName: four
Width: 435
Flags: W
HStem: 0 30<147 209.222 322.778 385> 122 30<58 219 313 410> 480 20G<150 313>
VStem: 219 94<35.61 122 152 276>
LayerCount: 2
Fore
SplineSet
313 122 m 0
 313 75 l 0
 313 44 333 30 361 30 c 0
 385 30 l 0
 385 0 l 0
 147 0 l 0
 147 30 l 0
 171 30 l 0
 199 30 219 44 219 76 c 0
 219 122 l 0
 39 122 l 0
 25 122 l 0
 25 152 l 0
 105 270 138 382 162 500 c 0
 204 485 260 484 313 500 c 0
 257 376 151 291 58 152 c 0
 219 152 l 0
 219 276 l 0
 313 383 l 0
 313 152 l 0
 410 152 l 0
 410 122 l 0
 313 122 l 0
EndSplineSet
Validated: 33
EndChar

StartChar: five
Encoding: 53 53 14
GlifName: five
Width: 402
Flags: W
HStem: -5 28<114.93 230.6> 62.1377 123.862<82.176 138.137> 283 30<115.662 235.449> 391.697 81.5948<93.8354 279.782> 470 20G<65 96.3885 326.97 334.404>
VStem: 25 128<77.7771 167.813> 65 28<290 398> 276 101<77.108 235.475>
LayerCount: 2
Fore
SplineSet
93 398 m 0xf3
 93 290 l 0xf3
 120 300 148 313 204 313 c 0
 287 313 377 263 377 155 c 0
 377 56 296 -5 186 -5 c 0
 97 -5 25 46 25 109 c 0
 25 160 56 186 91 186 c 0
 126 186 153 159 153 124 c 0xf5
 153 95.5887 131.161 62.1377 92.872 62.1377 c 0
 89.3832 62.1377 85.7578 62.4154 82 63 c 0
 92 45 128 23 180 23 c 0
 235 23 276 60 276 155 c 0
 276 239 250 283 181 283 c 0
 142 283 109 268 65 243 c 0
 65 490 l 0xeb
 127.777 477.979 177.273 473.292 218.606 473.292 c 0xf3
 270.11 473.292 308.94 480.569 345 490 c 0xeb
 323.808 415.071 250.489 391.697 170.564 391.697 c 0
 144.888 391.697 118.53 394.11 93 398 c 0xf3
EndSplineSet
Validated: 1
EndChar

StartChar: six
Encoding: 54 54 15
GlifName: six
Width: 412
Flags: W
HStem: -5 26<168.897 250.06> 284 29<174.241 259.479> 479 26<186.027 264.65>
VStem: 25 94<118.815 243.191 259 365.265> 236 118<374.339 465.396> 293 94<77.4586 245.983>
LayerCount: 2
Fore
SplineSet
236 420 m 0xf8
 236 449 256 467 266 472 c 0
 259 476 248 479 233 479 c 0
 151 479 119 383 119 296 c 0
 119 259 l 0
 136 281 180 313 236 313 c 0xf8
 319 313 387 260 387 160 c 0xf4
 387 61 312 -5 213 -5 c 0
 91 -5 25 103 25 245 c 0
 25 385 100 505 233 505 c 0
 301 505 354 466 354 420 c 0
 354 387 328 361 295 361 c 0
 262 361 236 387 236 420 c 0xf8
221 284 m 0
 187 284 119 250 119 186 c 0
 119 150 l 0
 119 89 148 21 211 21 c 0
 267 21 293 73 293 157 c 0xf4
 293 241 268 284 221 284 c 0
EndSplineSet
Validated: 1
EndChar

StartChar: seven
Encoding: 55 55 16
GlifName: seven
Width: 377
Flags: W
HStem: 352 94<211.772 315.926> 404 89<80.0795 178.44> 485 20G<30 56 342.5 372>
VStem: 30 26<330 381.395 434 505> 346 26<471.661 505>
LayerCount: 2
Fore
SplineSet
326 386 m 0xb8
 309 361 289 352 265 352 c 0xb8
 219 352 159 404 109 404 c 0x58
 73 404 60 375 56 330 c 0
 30 330 l 0
 30 505 l 0
 56 505 l 0x38
 56 434 l 0
 72 471 96 493 131 493 c 0x58
 189 493 228 446 282 446 c 0
 325 446 339 470 346 505 c 0
 372 505 l 0
 372 259 223 209 223 -6 c 0
 177 8 134 5 102 -5 c 0
 102 180 267 228 326 386 c 0xb8
EndSplineSet
Validated: 33
EndChar

StartChar: eight
Encoding: 56 56 17
GlifName: eight
Width: 418
Flags: W
HStem: -5 30<134.758 277.307> 475 30<150.469 272.117>
VStem: 25 58<62.9275 182.221> 46 76<336.5 433.589> 314 55<330.244 443.727> 316 77<74.959 152.894>
LayerCount: 2
Fore
SplineSet
122 407 m 0xd8
 122 367 194 337 263 298 c 0
 297 321 314 350 314 389 c 0
 314 437 278 475 207 475 c 0
 147 475 122 440 122 407 c 0xd8
316 101 m 0xe4
 316 168 233 193 159 229 c 0
 110 203 83 171 83 123 c 0
 83 75 115 25 207 25 c 0
 295 25 316 67 316 101 c 0xe4
133 243 m 0
 85 270 46 306 46 367 c 0
 46 443 124 505 207 505 c 0
 293 505 369 457 369 389 c 0xd8
 369 342 335 309 288 284 c 0
 344 250 393 208 393 147 c 0
 393 57 303 -5 207 -5 c 0
 103 -5 25 56 25 120 c 0
 25 179 73 216 133 243 c 0
EndSplineSet
Validated: 1
EndChar

StartChar: nine
Encoding: 57 57 18
GlifName: nine
Width: 408
Flags: W
HStem: -5 26<135.238 207.629> 116 20G<88.5 121.5> 187 29<158.567 250.731> 479 26<158.876 242.098>
VStem: 25 94<256.208 420.308> 46 118<31.4044 122.661> 293 94<158.973 232 246.891 397.471>
LayerCount: 2
Fore
SplineSet
134 26 m 0xf6
 142 23 151 21 159 21 c 0
 241 21 293 108 293 218 c 0
 293 232 l 0
 276 210 237 187 191 187 c 0
 104 187 25 236 25 334 c 0xfa
 25 438 100 505 199 505 c 0
 314 505 387 420 387 290 c 0
 387 119 292 -5 159 -5 c 0
 105 -5 46 24 46 77 c 0
 46 110 72 136 105 136 c 0
 138 136 164 110 164 77 c 0
 164 48 146 32 134 26 c 0xf6
206 216 m 0
 240 216 293 246 293 302 c 0
 293 350 l 0
 293 411 264 479 201 479 c 0
 145 479 119 432 119 337 c 0
 119 250 156 216 206 216 c 0
EndSplineSet
Validated: 1
EndChar

StartChar: colon
Encoding: 58 58 19
GlifName: colon
Width: 202
Flags: W
HStem: -95 190<58.0566 143.887>
VStem: 0 24<-575 -523.761 -396.996 -90.7285> 174 30<-287.017 -105.653>
LayerCount: 2
Fore
SplineSet
35 -397 m 0
 57 -397 73 -390 93 -376 c 0
 134 -347 174 -286 174 -205 c 0
 174 -154 162 -107 147 -71 c 0
 125 -86 100 -95 73 -95 c 0
 62 -95 51 -93 41 -89 c 0
 36 -86 24 -91 24 -96 c 0
 24 -388 l 0
 24 -392 29 -397 35 -397 c 0
0 -575 m 0
 0 -27 l 0
 0 37 61 95 128 95 c 0
 167 95 202 68 202 26 c 0
 202 -3 189 -30 169 -52 c 0
 183 -81 204 -141 204 -204 c 0
 204 -354 101 -432 51 -496 c 0
 36 -515 25 -549 25 -575 c 0
 0 -575 l 0
EndSplineSet
EndChar

StartChar: semicolon
Encoding: 59 59 20
GlifName: semicolon
Width: 202
Flags: W
HStem: -95 190<59.623 143.943> 555 20G<178 203>
VStem: 178 24<90.7285 396.996 523.761 575> 352 30<107.571 287.017>
LayerCount: 2
Fore
SplineSet
0 -26 m 0
 0 37 62 95 129 95 c 0
 140 95 151 93 161 89 c 0
 166 86 178 91 178 96 c 0
 178 575 l 0
 203 575 l 0
 203 549 214 515 229 496 c 0
 279 432 382 354 382 204 c 0
 382 133 355 66 342 42 c 0
 317 54 l 0
 335 91 352 146 352 205 c 0
 352 286 312 347 271 376 c 0
 251 390 235 397 213 397 c 0
 207 397 202 392 202 388 c 0
 202 27 l 0
 202 -37 141 -95 74 -95 c 0
 35 -95 0 -68 0 -26 c 0
EndSplineSet
EndChar

StartChar: greater
Encoding: 62 62 21
GlifName: greater
Width: 373
Flags: W
HStem: 128 20G<6 63.7143>
LayerCount: 2
Fore
SplineSet
362 -8 m 0
 14 -148 l 0
 0 -113 l 0
 252 -11 l 0
 258 -8 259 -4 259 0 c 0
 259 4 257 9 250 11 c 0
 0 113 l 0
 14 148 l 0
 362 8 l 0
 370 5 373 3 373 0 c 0
 373 -2 369 -5 362 -8 c 0
EndSplineSet
Validated: 1
EndChar

StartChar: question
Encoding: 63 63 22
GlifName: question
Width: 789
Flags: W
HStem: -650 36<-7.16667 43.8171> -174 108<691.676 777.736> -112 226<82.4802 201.672> 74 108<691.676 777.736> 235 35<188.65 354>
VStem: 14 235<-52.8203 66.6718> 477 123<-180.423 75.9453> 681 108<-162.537 -77.4629 85.4629 170.537>
LayerCount: 2
Fore
SplineSet
136 114 m 0xaf
 199 114 249 64 249 1 c 0
 249 -62 199 -112 136 -112 c 0
 71 -112 14 -59 14 35 c 0
 14 154 126 270 292 270 c 0
 488 270 600 134 600 -52 c 0
 600 -357 255 -618 -6 -650 c 0
 -12 -614 l 0
 279 -550 477 -344 477 -32 c 0
 477 123 417 235 271 235 c 0
 180 235 112 188 81 131 c 0
 75 120 89 103 98 107 c 0
 106 110 121 114 136 114 c 0xaf
681 -120 m 0
 681 -90 705 -66 735 -66 c 0
 763 -66 789 -90 789 -120 c 0
 789 -150 763 -174 735 -174 c 0xcf
 705 -174 681 -150 681 -120 c 0
681 128 m 0
 681 158 705 182 735 182 c 0
 763 182 789 158 789 128 c 0
 789 98 763 74 735 74 c 0x9f
 705 74 681 98 681 128 c 0
EndSplineSet
Validated: 1
EndChar

StartChar: bracketleft
Encoding: 91 91 23
GlifName: bracketleft
Width: 446
Flags: W
HStem: 134 20G<296.012 321.012>
VStem: 0.0117035 33<-117.137 105.137> 167.012 28<-264 -146.668 -68.0879 45.0872 122.912 244> 251.012 28<-244 -122.912 -45.0872 68.0879 146.668 264> 413.012 33<-103.137 119.137>
LayerCount: 2
Fore
SplineSet
413.012 8 m 0
 413.012 136 354.012 217 325.012 260 c 0
 341.012 275 l 0
 385.012 230 446.012 143 446.012 8 c 0
 447.012 -127 385.012 -214 341.012 -259 c 0
 325.012 -244 l 0
 354.012 -201 414.012 -120 413.012 8 c 0
33.0117 -6 m 0
 33.0117 -134 92.0117 -215 121.012 -258 c 0
 105.012 -273 l 0
 61.0117 -228 0.0117035 -141 0.0117035 -6 c 0
 -0.988297 129 61.0117 216 105.012 261 c 0
 121.012 246 l 0
 92.0117 203 32.0117 122 33.0117 -6 c 0
194.012 -56 m 0
 194.012 -64 204.012 -70 212.012 -68 c 0
 241.012 -60 l 0
 247.012 -58 252.012 -52 252.012 -44 c 0
 252.012 56 l 0
 252.012 64 242.012 70 234.012 68 c 0
 205.012 60 l 0
 199.012 58 194.012 52 194.012 44 c 0
 194.012 -56 l 0
168.012 32 m 0
 168.012 40 160.012 47 153.012 45 c 0
 125.012 37 l 0
 125.012 98 l 0
 149.012 104 l 0
 162.012 108 167.012 116 167.012 128 c 0
 167.012 244 l 0
 195.012 244 l 0
 195.012 135 l 0
 195.012 127 205.012 121 212.012 123 c 0
 238.012 130 l 0
 248.012 133 251.012 138 251.012 146 c 0
 251.012 264 l 0
 279.012 264 l 0
 279.012 160 l 0
 279.012 152 289.012 145 296.012 147 c 0
 321.012 154 l 0
 321.012 93 l 0
 290.012 84 l 0
 283.012 83 278.012 78 278.012 70 c 0
 278.012 -32 l 0
 278.012 -40 286.012 -47 293.012 -45 c 0
 321.012 -37 l 0
 321.012 -98 l 0
 297.012 -104 l 0
 284.012 -108 279.012 -116 279.012 -128 c 0
 279.012 -244 l 0
 251.012 -244 l 0
 251.012 -135 l 0
 251.012 -127 241.012 -121 234.012 -123 c 0
 208.012 -130 l 0
 198.012 -133 195.012 -138 195.012 -146 c 0
 195.012 -264 l 0
 167.012 -264 l 0
 167.012 -160 l 0
 167.012 -152 157.012 -145 150.012 -147 c 0
 125.012 -154 l 0
 125.012 -93 l 0
 156.012 -84 l 0
 163.012 -83 168.012 -78 168.012 -70 c 0
 168.012 32 l 0
EndSplineSet
EndChar

StartChar: bracketright
Encoding: 93 93 24
GlifName: bracketright
Width: 414
Flags: W
HStem: -102 73<110 177.781 236.219 304> -25 50<182.043 231.957> 29 73<110 177.781 236.219 304> 116 20G<43 74 340 371>
VStem: 0 29<-68.8292 68.8292> 105 73<-97 -29.2188 29.2188 97> 182 50<-24.9565 24.9565> 236 73<-97 -29.2188 29.2188 97> 385 29<-68.8292 68.8292>
LayerCount: 2
Fore
SplineSet
385 0 m 0
 385 42 369 85 340 123 c 0
 354 136 l 0
 388 102 414 59 414 0 c 0
 414 -59 388 -102 354 -136 c 0
 340 -123 l 0
 369 -85 385 -42 385 0 c 0
29 0 m 0
 29 -42 45 -85 74 -123 c 0
 60 -136 l 0
 26 -102 0 -59 0 0 c 0
 0 59 26 102 60 136 c 0
 74 123 l 0
 45 85 29 42 29 0 c 0
232 0 m 0
 232 -24 254 -29 304 -29 c 0
 305 -59 307 -90 309 -102 c 0
 297 -100 266 -98 236 -97 c 0
 236 -47 231 -25 207 -25 c 0
 183 -25 178 -47 178 -97 c 0
 148 -98 117 -100 105 -102 c 0
 107 -90 109 -59 110 -29 c 0
 160 -29 182 -24 182 0 c 0
 182 24 160 29 110 29 c 0
 109 59 107 90 105 102 c 0
 117 100 148 98 178 97 c 0
 178 47 183 25 207 25 c 0
 231 25 236 47 236 97 c 0
 266 98 297 100 309 102 c 0
 307 90 305 59 304 29 c 0
 254 29 232 24 232 0 c 0
EndSplineSet
EndChar

StartChar: underscore
Encoding: 95 95 25
GlifName: underscore
Width: 422
Flags: W
HStem: 0 19<0 423 0 423>
LayerCount: 2
Fore
SplineSet
423 19 m 1
 423 0 l 1
 0 0 l 1
 0 19 l 1
 423 19 l 1
EndSplineSet
EndChar

StartChar: braceleft
Encoding: 123 123 26
GlifName: braceleft
Width: 423
Flags: W
HStem: 94 20G<242.512 270.512>
VStem: 0.0117035 33<-9.13704 213.137> 150.012 43<107.006 340> 150.012 26<-65.1817 74.7327> 390.012 33<-9.13704 213.137>
LayerCount: 2
Fore
SplineSet
390.012 102 m 0xc8
 390.012 230 331.012 311 302.012 354 c 0
 318.012 369 l 0
 362.012 324 423.012 237 423.012 102 c 0
 424.012 -33 362.012 -120 318.012 -165 c 0
 302.012 -150 l 0
 331.012 -107 391.012 -26 390.012 102 c 0xc8
33.0117 102 m 0
 33.0117 -26 92.0117 -107 121.012 -150 c 0
 105.012 -165 l 0
 61.0117 -120 0.0117035 -33 0.0117035 102 c 0
 -0.988297 237 61.0117 324 105.012 369 c 0
 121.012 354 l 0
 92.0117 311 32.0117 230 33.0117 102 c 0
194.012 -65 m 0
 245.012 -28 260.012 3 254.012 47 c 0
 247.012 97 204.012 91 182.012 69 c 0
 178.012 64 176.012 59 176.012 53 c 0
 176.012 -57 l 0xd8
 176.012 -65 188.012 -69 194.012 -65 c 0
160.012 -123 m 0
 151.012 -130 150.012 -129 150.012 -116 c 0xd8
 150.012 340 l 0
 193.012 340 l 0
 193.012 121 l 0xe8
 193.012 115 204.012 107 210.012 107 c 0
 219.012 107 232.012 114 253.012 114 c 0
 288.012 114 318.012 91 318.012 47 c 0
 318.012 -17 244.012 -54 194.012 -95 c 0
 160.012 -123 l 0
EndSplineSet
EndChar

StartChar: bar
Encoding: 124 124 27
GlifName: bar
Width: 484
Flags: W
HStem: -3 71<225.081 274.77> 412 69<210.261 260.873>
VStem: 0 70<223.924 271.687> 417 67<206.396 255.668>
LayerCount: 2
Fore
SplineSet
24 274 m 2
 202 451 l 2
 223 472 234 481 245 481 c 0
 256 481 266 472 283 455 c 2
 448 290 l 2
 473 265 484 252 484 240 c 0
 484 227 472 216 452 196 c 2
 271 14 l 2
 260 3 253 -3 245 -3 c 0
 236 -3 226 4 210 20 c 2
 20 211 l 1
 7 223 0 230 0 239 c 0
 0 248 7 257 24 274 c 2
188 390 m 2
 87 288 l 2
 76 277 70 268 70 258 c 0
 70 249 75 240 86 229 c 2
 225 90 l 2
 240.001 74.999 251 68 262 68 c 0
 274 68 286 76 302 92 c 2
 394 184 l 2
 409 200 417 211 417 221 c 0
 417 233 407.44 243.427 390 261 c 2
 260 392 l 2
 246.543 405.561 236 412 225 412 c 0
 214 412 203 404 188 390 c 2
EndSplineSet
EndChar

StartChar: braceright
Encoding: 125 125 28
GlifName: braceright
Width: 697
Flags: W
HStem: -195 21G<80 84.5 612.5 617> -149 62<140 182.993> -103 61<294.047 336> -95 190<434.623 518.334> 42 61<140 181.953> 87 62<293.007 336> 175 20G<80 84.5 612.5 617>
VStem: 0 30<-92.2826 92.2826> 183 27<-263.924 -148.201 -66.3594 42.0015 124.094 243.98> 266 27<-243.98 -124.094 -42.0015 66.3594 148.201 263.978> 375 202<-37.2618 37.5247> 667 30<-92.2826 92.2826>
LayerCount: 2
Fore
SplineSet
293 -28 m 0x87f0
 293 -42 298 -47 315 -42 c 0
 335 -36 336 -38 336 -45 c 0
 336 -85 l 0
 336 -96 336 -97 317 -103 c 0xa7f0
 297 -109 294 -116 294 -125 c 0
 294 -176 295 -220 295 -238 c 0
 295 -243 294 -244 288 -244 c 0
 273 -244 l 0
 265 -244 265 -243 265 -237 c 0
 265 -220 266 -176 266 -137 c 0
 266 -122 259 -120 248 -123 c 0
 224 -130 l 0
 213 -133 210 -137 210 -155 c 0
 210 -203 211 -234 211 -255 c 0
 211 -263 210 -264 202 -264 c 0
 187 -264 l 0
 182 -264 181 -262 181 -256 c 0
 181 -227 183 -183 183 -160 c 0
 183 -150 174 -145 159 -149 c 0
 140 -154 140 -152 140 -141 c 0
 140 -104 l 0
 140 -92 140 -93 161 -87 c 0
 180 -82 183 -75 183 -66 c 0
 183 28 l 0
 183 42 178 47 161 42 c 0
 140 36 140 37 140 45 c 0
 140 85 l 0
 140 97 140 97 159 103 c 0xcbf0
 177 108 182 116 182 125 c 0
 182 176 181 220 181 238 c 0
 181 243 182 244 188 244 c 0
 203 244 l 0
 211 244 211 243 211 237 c 0
 211 220 210 176 210 137 c 0
 210 122 217 120 228 123 c 0
 252 130 l 0
 263 133 266 137 266 155 c 0
 266 203 265 235 265 256 c 0
 265 264 266 264 274 264 c 0
 289 264 l 0
 294 264 295 262 295 256 c 0
 295 227 293 183 293 160 c 0
 293 150 302 145 317 149 c 0
 335 154 336 153 336 145 c 0
 336 106 l 0
 336 94 335 93 315 87 c 0
 296 82 293 75 293 66 c 0
 293 -28 l 0x87f0
266 55 m 0
 266 64 265 72 250 68 c 0
 225 61 l 0
 210 57 210 48 210 38 c 0
 210 -55 l 0
 210 -64 211 -72 226 -68 c 0
 251 -61 l 0
 266 -57 266 -48 266 -38 c 0
 266 55 l 0
667 0 m 0
 667 83 638 127 612 168 c 0
 608 174 606 180 606 184 c 0
 606 191 610 195 615 195 c 0
 619 195 625 192 631 185 c 0
 665 145 697 87 697 0 c 0
 697 -87 665 -145 631 -185 c 0
 625 -192 619 -195 615 -195 c 0
 610 -195 606 -191 606 -184 c 0
 606 -180 608 -174 612 -168 c 0
 638 -127 667 -83 667 0 c 0
30 0 m 0
 30 -83 59 -127 85 -168 c 0
 89 -174 91 -180 91 -184 c 0
 91 -191 87 -195 82 -195 c 0
 78 -195 72 -192 66 -185 c 0
 32 -145 0 -87 0 0 c 0
 0 87 32 145 66 185 c 0
 72 192 78 195 82 195 c 0
 87 195 91 191 91 184 c 0
 91 180 89 174 85 168 c 0
 59 127 30 83 30 0 c 0
375 -26 m 0
 375 37 437 95 504 95 c 0
 543 95 577 69 577 27 c 0
 577 -37 516 -95 449 -95 c 0x93f0
 410 -95 375 -68 375 -26 c 0
EndSplineSet
Validated: 1
EndChar

StartChar: uni007F
Encoding: 127 127 29
GlifName: uni007F_
Width: 720
Flags: W
HStem: -195 21G<80 84.5 635.5 640> -101 72<132.681 201.558 260.442 329.219> -25 50<206.296 255.704> 29 72<132.781 201.558 260.442 329.319> 175 20G<80 84.5 635.5 640>
VStem: 0 30<-92.2826 92.2826> 130 72<-98.2191 -29.442 29.442 98.3194> 206 50<-24.7038 24.7038> 260 72<-98.3194 -29.442 29.442 98.2191> 398 202<-37.2618 37.5247> 690 30<-92.2826 92.2826>
LayerCount: 2
Fore
SplineSet
256 0 m 0
 256 -21 275 -29 310 -29 c 0
 314 -29 l 0
 324 -29 329 -30 329 -40 c 0
 329 -54 332 -88 332 -93 c 0
 332 -99 332 -101 324 -101 c 0
 319 -101 285 -98 271 -98 c 0
 262 -98 260 -93 260 -83 c 0
 260 -79 l 0
 260 -44 252 -25 231 -25 c 0
 210 -25 202 -44 202 -79 c 0
 202 -83 l 0
 202 -93 201 -98 191 -98 c 0
 177 -98 143 -101 138 -101 c 0
 132 -101 130 -101 130 -93 c 0
 130 -88 133 -54 133 -40 c 0
 133 -31 138 -29 148 -29 c 0
 152 -29 l 0
 187 -29 206 -21 206 0 c 0
 206 21 187 29 152 29 c 0
 148 29 l 0
 138 29 133 30 133 40 c 0
 133 54 130 88 130 93 c 0
 130 99 130 101 138 101 c 0
 143 101 177 98 191 98 c 0
 200 98 202 93 202 83 c 0
 202 79 l 0
 202 44 210 25 231 25 c 0
 252 25 260 44 260 79 c 0
 260 83 l 0
 260 93 261 98 271 98 c 0
 285 98 319 101 324 101 c 0
 330 101 332 101 332 93 c 0
 332 88 329 54 329 40 c 0
 329 31 324 29 314 29 c 0
 310 29 l 0
 275 29 256 21 256 0 c 0
690 0 m 0
 690 83 661 127 635 168 c 0
 631 174 629 180 629 184 c 0
 629 191 633 195 638 195 c 0
 642 195 648 192 654 185 c 0
 688 145 720 87 720 0 c 0
 720 -87 688 -145 654 -185 c 0
 648 -192 642 -195 638 -195 c 0
 633 -195 629 -191 629 -184 c 0
 629 -180 631 -174 635 -168 c 0
 661 -127 690 -83 690 0 c 0
30 0 m 0
 30 -83 59 -127 85 -168 c 0
 89 -174 91 -180 91 -184 c 0
 91 -191 87 -195 82 -195 c 0
 78 -195 72 -192 66 -185 c 0
 32 -145 0 -87 0 0 c 0
 0 87 32 145 66 185 c 0
 72 192 78 195 82 195 c 0
 87 195 91 191 91 184 c 0
 91 180 89 174 85 168 c 0
 59 127 30 83 30 0 c 0
398 -26 m 0
 398 37 460 95 527 95 c 0
 566 95 600 69 600 27 c 0
 600 -37 539 -95 472 -95 c 0
 433 -95 398 -68 398 -26 c 0
EndSplineSet
Validated: 1
EndChar

StartChar: uni0081
Encoding: 129 129 30
GlifName: uni0081
Width: 555
Flags: W
HStem: -143 100<146.559 233.258 322.742 409.441> -30 60<248.467 307.118> 43 100<146.559 233.258 322.742 409.441>
VStem: 0 31<-89.3848 89.3848> 135 100<-131.441 -44.7423 44.7423 131.441> 248 60<-29.1177 29.1177> 321 100<-131.441 -44.7423 44.7423 131.441> 524 31<-89.3848 89.3848>
CounterMasks: 1 e0
LayerCount: 2
Fore
SplineSet
555 0 m 0
 556 -87 515 -154 473 -200 c 0
 459 -186 l 0
 492 -144 525 -83 524 0 c 0
 524 83 492 144 459 186 c 0
 473 200 l 0
 515 154 555 87 555 0 c 0
0 0 m 0
 -1 87 40 154 82 200 c 0
 96 186 l 0
 63 144 30 83 31 0 c 0
 31 -83 63 -144 96 -186 c 0
 82 -200 l 0
 40 -154 0 -87 0 0 c 0
308 0 m 0
 307 -28 347 -43 409 -43 c 0
 412 -80 418 -128 421 -143 c 0
 406 -140 358 -134 321 -131 c 0
 321 -69 306 -30 278 -30 c 0
 249 -30 235 -69 235 -131 c 0
 198 -134 150 -140 135 -143 c 0
 138 -128 144 -80 147 -43 c 0
 209 -43 248 -28 248 0 c 0
 248 28 209 43 147 43 c 0
 144 80 138 128 135 143 c 0
 150 140 198 134 235 131 c 0
 235 69 249 30 278 30 c 0
 306 30 321 69 321 131 c 0
 358 134 406 140 421 143 c 0
 418 128 412 80 409 43 c 0
 347 43 308 28 308 0 c 0
EndSplineSet
Validated: 33
EndChar

StartChar: uni0082
Encoding: 130 130 31
GlifName: uni0082
Width: 953
Flags: W
HStem: -194 31<153.658 203.16 419.381 515.546 608.004 688.664> -37 38<725.832 799.762> -8 25<52.8296 138.284> 82 20G<30 51> 157 21G<182.5 198.5> 207 31<260.144 343.169 451.699 533.683> 224 49<608.674 690.5 815.348 871.836> 235 24<97.5729 175.336> 399 27<516.223 567.084>
VStem: 0 51<18.8619 83.2128> 43 37<170.459 223.391> 90 63<-160.699 -93.7197> 156 42<28.1294 97.8661> 177 48<172.793 233.831> 568 60<335.403 398.6> 667 46<57 201> 875 77<95.3708 223.708>
LayerCount: 2
Fore
SplineSet
689 -174 m 0xda9380
 689 -187 682 -194 669 -194 c 0
 429 -194 l 0
 421 -194 419 -190 419 -184 c 0
 419 -171 424 -163 437 -163 c 0
 479 -163 l 0
 508 -163 513 -155 523 -133 c 0
 646 135 l 0
 658 161 667 185 667 201 c 0
 667 215 661 224 644 224 c 0
 606 224 566 158 535 93 c 0
 529 81 521 76 515 76 c 0
 510 76 505 80 505 88 c 0
 505 92 506 97 509 103 c 0
 545 186 588 273 678 273 c 0
 703 273 723 260 736 242 c 0
 746 228 752 221 761 221 c 0
 768 221 776 225 788 234 c 0
 815 254 843 269 869 269 c 0
 911 269 952 247 952 178 c 0
 952 75 875 -37 776 -37 c 0
 743 -37 725.667 -25.333 711 -11 c 0
 701.378 -1.59668 693 2 686 2 c 0
 676 2 670 -8 664 -21 c 0
 615 -129 l 0
 611 -138 608 -145 608 -151 c 0
 608 -159 614 -163 628 -163 c 0
 677 -163 l 0
 686 -163 689 -168 689 -174 c 0xda9380
845 225 m 0
 792 225 713 133 713 57 c 0
 713 29 734 1 758 1 c 0
 816 1 875 112 875 184 c 0
 875 213 862 225 845 225 c 0
546 426 m 0
 590.333 426 628 398 628 357 c 0
 628 328 607 305 578 305 c 0
 558 305 541 319 541 339 c 0
 541 374 568 377 568 389 c 0
 568 396 559 399 550 399 c 0
 511 399 485 359 455 274 c 0
 447 248 453 238 474 238 c 0
 524 238 l 0
 532 238 538 236 534 223 c 0
 530 211 525 207 514 207 c 0
 468 207 l 0
 446 207 434 204 427 177 c 0
 417 141 l 0
 365 -49 271.5 -189 171 -189 c 0
 125 -189 90 -158 90 -116 c 0
 90 -87 111 -62 140 -62 c 0
 161 -62 181 -75 181 -98 c 0
 181 -137 153 -137 153 -151 c 0
 153 -157 157 -161 168 -161 c 0
 240 -161 282 -16 328 136 c 0
 342 180 l 0
 346 196 347 207 318 207 c 0
 270 207 l 0
 262 207 256 211 260 225 c 0
 263 237 270 238 282 238 c 0
 330 238 l 0x9c9380
 355 238 363 245 373 268 c 0
 413 364 466 426 546 426 c 0
142 235 m 0xb9b780
 107 235 80 219 80 195 c 0xb9b780
 80 176 109 163 130 153 c 0
 166 136 198 114 198 74 c 0
 198 18 148 -8 90 -8 c 0
 41 -8 0 11 0 54 c 0
 0 81 18 102 42 102 c 0
 60 102 71 88 71 71 c 0
 71 52 51 48 51 35 c 0
 51 19 76 17 94 17 c 0
 129 17 156 35 156 61 c 0xb9db80
 156 89 135 101 101 116 c 0
 69 130 43 149 43 183 c 0
 43 233 93 259 145 259 c 0
 190 259 225 236 225 196 c 0
 225 170 207 157 190 157 c 0
 175 157 159 168 159 185 c 0
 159 203 177 207 177 218 c 0
 177 230 163 235 142 235 c 0xb9b780
EndSplineSet
Validated: 33
EndChar

StartChar: uni0083
Encoding: 131 131 32
GlifName: uni0083
Width: 425
Flags: W
HStem: -388 25<121.539 227.043> 88 21<223.094 321.325>
VStem: 0 66<-317.527 -198.748> 82 93<-36.0294 44.382> 281 87<-311.229 -206.403> 370 55<-53.7559 55.6208>
LayerCount: 2
Fore
SplineSet
317 -135 m 0
 352 -171 368 -209 368 -244 c 0
 368 -324 289 -388 166 -388 c 0
 66 -388 0 -320 0 -251 c 0
 0 -202 32 -154 107 -128 c 0
 122 -123 127 -119 127 -113 c 0
 127 -108 124 -102 118 -96 c 0
 93 -69 82 -42 82 -15 c 0
 82 53 156 109 276 109 c 0
 363 109 425 57 425 0 c 0
 425 -39 394 -81 321 -108 c 0
 313 -112 309 -116 309 -120 c 0
 309 -124 312 -129 317 -135 c 0
298 -89 m 0
 349 -67 370 -33 370 0 c 0
 370 49 332 88 276 88 c 0
 214 88 175 54 175 16 c 0
 175 -14 199 -50 252 -83 c 0
 263 -90 271 -95 278 -95 c 0
 284 -95 290 -93 298 -89 c 0
148 -153 m 0
 90 -178 66 -221 66 -262 c 0
 66 -314 108 -363 172 -363 c 0
 243 -363 281 -316 281 -266 c 0
 281 -216 243 -183 198 -156 c 0
 187 -150 180 -147 172 -147 c 0
 164 -147 158 -149 148 -153 c 0
EndSplineSet
Validated: 1
EndChar

StartChar: uni0084
Encoding: 132 132 33
GlifName: uni0084
Width: 619
Flags: W
HStem: -189 28<216.658 266.16> 207 31<323.144 406.169 514.699 596.683> 224 30<180.812 241.999> 399 27<579.223 630.084>
VStem: 25 53<3.28714 19> 153 63<-160.699 -93.7197> 222 64<170.513 223.808> 631 60<335.403 398.6>
LayerCount: 2
Fore
SplineSet
609 426 m 0xdf
 653.333 426 691 398 691 357 c 0
 691 328 670 305 641 305 c 0
 621 305 604 319 604 339 c 0
 604 374 631 377 631 389 c 0
 631 396 622 399 613 399 c 0
 574 399 548 359 518 274 c 0
 510 248 516 238 537 238 c 0
 587 238 l 0
 595 238 601 236 597 223 c 0
 593 211 588 207 577 207 c 0
 531 207 l 0
 509 207 497 204 490 177 c 0
 480 141 l 0
 428 -49 334.5 -189 234 -189 c 0
 188 -189 153 -158 153 -116 c 0
 153 -87 174 -62 203 -62 c 0
 224 -62 244 -75 244 -98 c 0
 244 -137 216 -137 216 -151 c 0
 216 -157 220 -161 231 -161 c 0
 303 -161 345 -16 391 136 c 0
 405 180 l 0
 409 196 410 207 381 207 c 0
 333 207 l 0
 325 207 319 211 323 225 c 0
 326 237 333 238 345 238 c 0
 393 238 l 0
 418 238 426 245 436 268 c 0
 476 364 529 426 609 426 c 0xdf
229 254 m 0xbf
 262 254 286 232 286 198 c 0
 286 168 267 152 243 152 c 0
 223 152 208 164 208 183 c 0
 208 203 222 210 222 219 c 0
 222 222 219 224 216 224 c 0
 164 224 118 124 101 80 c 0
 78 19 l 0
 71 3 72 -1 65 -1 c 0
 58 -1 57 3 49 3 c 0
 39 3 38 -1 30 -1 c 0
 27 -1 25 1 25 4 c 0
 25 6 26 10 28 14 c 0
 91 184 l 0
 94 192 95 198 95 203 c 0
 95 213 90 217 83 217 c 0
 62 217 45 192 22 147 c 0
 18 140 13 136 8 136 c 0
 3 136 0 140 0 148 c 0
 0 151 0 155 2 159 c 0
 21 212 57 254 97 254 c 0
 118 254 129 245 136 233 c 0
 140 227 144 223 149 223 c 0
 153 223 157 225 163 230 c 0
 182 243 205 254 229 254 c 0xbf
EndSplineSet
Validated: 33
EndChar

StartChar: uni0085
Encoding: 133 133 34
GlifName: uni0085
Width: 268
Flags: W
HStem: 473 20G<245 258.5>
VStem: 0 35<233.458 336.902>
LayerCount: 2
Fore
SplineSet
24 16 m 0
 0 323 l 0
 0 326 l 0
 0 336 5 337 14 337 c 0
 29 337 33 334 35 305 c 0
 48 137 l 0
 49 128 51 111 57 111 c 0
 61 111 67 117 75 135 c 0
 228 468 l 0
 239 492 241 493 249 493 c 0
 253 493 l 0
 264 493 268 490 268 485 c 0
 268 481 266 475 263 468 c 0
 53 16 l 0
 48 4 40 -11 34 -11 c 0
 29 -11 26 -4 24 16 c 0
EndSplineSet
Validated: 1
EndChar

StartChar: uni0086
Encoding: 134 134 35
GlifName: uni0086
Width: 548
Flags: W
HStem: -309 32<5.58261 74.2723 148.609 206.275 316.643 401.953> -82 32<352.771 429.603> 25 60<372.655 508.738> 27 71<358.146 434.451>
VStem: 241.967 74<-277.982 -198.449> 446.967 69<-230.26 -93.6427>
LayerCount: 2
Fore
SplineSet
515.967 -162 m 0xdc
 515.967 -262 437.967 -313 357.967 -313 c 0
 291.967 -313 241.967 -276 241.967 -227 c 0
 241.967 -195 262.967 -170 293.967 -170 c 0
 321.967 -170 335.967 -192 335.967 -216 c 0
 335.967 -244 315.967 -255 315.967 -266 c 0
 315.967 -276 332.967 -281 357.967 -281 c 0
 409.967 -281 446.967 -208 446.967 -146 c 0
 446.967 -107 427.967 -82 387.967 -82 c 0
 366.967 -82 337.967 -87 317.967 -94 c 0
 310.967 -96 298.967 -92 301.967 -85 c 0
 323.967 -22 334.967 18 347.967 89 c 0
 348.967 96 352.967 98 356.967 98 c 0xdc
 365.967 98 395.967 85 448.967 85 c 0xec
 487.967 85 533.967 98 542.967 98 c 0xdc
 549.967 98 551.967 92 540.967 76 c 0
 518.967 43 471.967 25 422.967 25 c 0xec
 410.967 25 394.967 27 381.967 27 c 0
 371.967 27 368.967 25 364.967 11 c 0
 359.967 -6 354.967 -20 348.967 -41 c 0
 346.967 -47 346.967 -54 357.967 -54 c 0
 372.967 -54 383.967 -50 412.967 -50 c 0
 473.967 -50 515.967 -99 515.967 -162 c 0xdc
189.967 -309 m 0
 10.9668 -309 l 0
 0.966797 -309 -4.0332 -306 3.9668 -291 c 0
 9.9668 -277 12.9668 -277 21.9668 -277 c 0
 39.9668 -277 l 0
 80.9668 -277 83.9668 -241 95.9668 -206 c 0
 151.967 -36 l 0
 158.967 -12 150.967 -9 132.967 -28 c 0
 56.9668 -105 l 0
 48.9668 -113 44.9668 -113 35.9668 -104 c 0
 25.9668 -95 29.9668 -91 36.9668 -82 c 0
 182.967 89 l 0
 191.967 99 193.967 101 197.967 101 c 0
 203.967 101 213.967 93 224.967 93 c 0
 237.967 93 244.967 101 252.967 101 c 0
 256.967 101 258.967 99 254.967 87 c 0
 150.967 -244 l 0
 144.967 -262 148.967 -277 169.967 -277 c 0
 197.967 -277 l 0
 209.967 -277 212.967 -277 206.967 -292 c 0
 199.967 -306 198.967 -309 189.967 -309 c 0
EndSplineSet
Validated: 33
EndChar

StartChar: uni0087
Encoding: 135 135 36
GlifName: uni0087
Width: 488
Flags: W
HStem: -140 31<197.714 333.643> 108 31<155.312 290.18>
VStem: 0 127<-26.0781 77.5913> 0 31<-224.999 -83.0059 78.0037 224.999> 361 127<-83.5971 23.7344> 457 31<-224.999 -84.0044 89.0059 224.999>
LayerCount: 2
Fore
SplineSet
323 58 m 0xe8
 307 92 273 108 228 108 c 0
 218 108 207 108 196 106 c 0
 144 98 127 73 127 44 c 0
 127 26 133 7 141 -10 c 0
 165 -59 l 0
 182 -93 215 -109 262 -109 c 0
 271 -109 281 -108 292 -107 c 0
 344 -100 361 -75 361 -45 c 0
 361 -28 355 -9 347 7 c 0
 323 58 l 0xe8
15 225 m 0
 29 225 31 224 31 211 c 0
 31 97 l 0
 31 83 34 78 40 78 c 0
 46 78 53 84 61 90 c 0
 111 128 191 139 249 139 c 0
 300 139 366 130 414 101 c 0
 426 94 436 89 443 89 c 0
 453 89 457 97 457 114 c 0
 457 211 l 0
 457 224 459 225 473 225 c 0
 487 225 488 225 488 210 c 0
 488 -212 l 0
 488 -224 486 -225 473 -225 c 0
 459 -225 457 -224 457 -211 c 0
 457 -106 l 0
 457 -90 453 -84 446 -84 c 0
 440 -84 430 -89 418 -97 c 0
 368 -130 294 -140 239 -140 c 0
 184 -140 109 -129 62 -94 c 0
 53 -87 46 -83 41 -83 c 0
 34 -83 31 -91 31 -110 c 0
 31 -211 l 0
 31 -224 29 -225 15 -225 c 0
 1 -225 0 -225 0 -210 c 0
 0 212 l 0xd4
 0 224 2 225 15 225 c 0
EndSplineSet
Validated: 1
EndChar

StartChar: uni0088
Encoding: 136 136 37
GlifName: uni0088
Width: 499
Flags: W
HStem: -132 83<31.3448 467.307> 49 83<32.2573 467.008>
VStem: 0 31<-249.986 -134.247 -46.6688 46.2636 134.937 250.999> 468 31<-249.998 -134.666 -47.4191 46.3816 134.804 251>
LayerCount: 2
Fore
SplineSet
428 -49 m 0
 465 -49 468 -45 468 -17 c 0
 468 16 l 0
 468 41 461 49 432 49 c 0
 68 49 l 0
 34 49 31 37 31 18 c 0
 31 -23 l 0
 31 -47 50 -49 64 -49 c 0
 428 -49 l 0
70 -132 m 0
 33 -132 31 -141 31 -164 c 0
 31 -234 l 0
 31 -248 29 -250 14 -250 c 0
 0 -250 0 -250 0 -236 c 0
 0 234 l 0
 0 250 1 251 15 251 c 0
 31 251 31 250 31 237 c 0
 31 167 l 0
 31 133 49 132 69 132 c 0
 432 132 l 0
 452 132 468 135 468 165 c 0
 468 238 l 0
 468 251 472 251 483 251 c 0
 499 251 499 251 499 236 c 0
 499 -232 l 0
 499 -250 497 -250 484 -250 c 0
 470 -250 468 -248 468 -234 c 0
 468 -163 l 0
 468 -134 453 -132 428 -132 c 0
 70 -132 l 0
EndSplineSet
Validated: 1
EndChar

StartChar: uni0089
Encoding: 137 137 38
GlifName: uni0089
Width: 401
Flags: W
HStem: -33 66<46 346>
LayerCount: 2
Fore
SplineSet
394 236 m 0
 14 83 l 0
 0 115 l 0
 289 232 l 0
 293.146 233.678 295 239 295 244 c 0
 295 250 291.993 254.982 287 257 c 0
 0 373 l 0
 14 405 l 0
 394 252 l 0
 401.926 248.809 405 247 405 244 c 0
 405 242 401.064 238.845 394 236 c 0
46 33 m 0
 346 33 l 0
 346 -33 l 0
 46 -33 l 0
 46 33 l 0
EndSplineSet
Validated: 1
EndChar

StartChar: uni008A
Encoding: 138 138 39
GlifName: uni008A_
Width: 382
Flags: W
HStem: -30 60<9 369>
LayerCount: 2
Fore
SplineSet
383 -211 m 0
 392.985 -215.036 399 -218 399 -221 c 0
 399 -224 391 -228 381 -232 c 0
 7 -382 l 0
 -7 -346 l 0
 277 -232 l 0
 282 -230 283 -226 283 -221 c 0
 283 -216 281.146 -211.679 277 -210 c 0
 -7 -95 l 0
 7 -59 l 0
 383 -211 l 0
9 -30 m 0
 9 30 l 0
 369 30 l 0
 369 -30 l 0
 9 -30 l 0
EndSplineSet
Validated: 1
EndChar

StartChar: uni008B
Encoding: 139 139 40
GlifName: uni008B_
Width: 296
Flags: W
HStem: 485 20G<0 100 196 296>
VStem: 0 100<-5 505> 196 100<-5 505>
LayerCount: 2
Fore
SplineSet
196 505 m 0
 296 505 l 0
 296 -5 l 0
 196 -5 l 0
 196 505 l 0
0 505 m 0
 100 505 l 0
 100 -5 l 0
 0 -5 l 0
 0 505 l 0
EndSplineSet
Validated: 1
EndChar

StartChar: uni008C
Encoding: 140 140 41
GlifName: uni008C_
Width: 745
Flags: W
HStem: 133 20G<304.5 327.5 516.5 556> 433 57G<92 132 179 236 391 448 613 653>
VStem: 0 35<-8.38977 262.224> 179 57<139.004 490> 179 30<-103.182 95.5639> 391 57<139.004 490> 391 30<-103.182 -31.7059> 421 200<-27 79> 710 35<-12.2241 258.39>
LayerCount: 2
Fore
SplineSet
710 125 m 0xe080
 710 269 658 369 613 437 c 0
 630 453 l 0
 676 398 745 288 745 125 c 0
 746 -38 676 -148 630 -203 c 0
 613 -187 l 0
 658 -119 711 -19 710 125 c 0xe080
35 125 m 0
 35 -19 87 -119 132 -187 c 0
 115 -203 l 0
 69 -148 0 -38 0 125 c 0
 -1 288 69 398 115 453 c 0
 132 437 l 0
 87 369 34 269 35 125 c 0
427 88 m 0
 423 84 421 79 421 73 c 0xe180
 421 -96 l 0xe280
 421 -104 434 -107 440 -103 c 0
 500 -61 546 -25 532 56 c 0
 521 124 461 123 427 88 c 0
215 88 m 0
 211 84 209 79 209 73 c 0
 209 -96 l 0xe880
 209 -104 222 -107 228 -103 c 0
 288 -61 334 -25 320 56 c 0
 309 124 249 123 215 88 c 0
179 490 m 0xf080
 236 490 l 0
 236 152 l 0
 236 144 247 139 254 139 c 0
 260 139 290 153 319 153 c 0
 336 153 352 150 365 142 c 0
 376 136 391 137 391 153 c 0
 391 490 l 0
 448 490 l 0
 448 152 l 0xf480
 448 144 459 139 466 139 c 0
 472 139 502 153 531 153 c 0
 581 153 621 119 621 60 c 0xe180
 621 -27 525 -77 454 -135 c 0
 401 -178 l 0
 392 -185 391 -184 391 -171 c 0
 391 -40 l 0
 391 -31 377 -23 364 -36 c 0
 330 -72 282 -102 242 -135 c 0
 189 -178 l 0
 180 -185 179 -184 179 -171 c 0xea80
 179 490 l 0xf080
EndSplineSet
Validated: 33
EndChar

StartChar: uni008D
Encoding: 141 141 42
GlifName: uni008D_
Width: 354
Flags: W
HStem: -146 39<35.0989 122.27> 107 26<247.751 325.897> 830 20G<328 354>
VStem: 0 23<-100.079 -50.348> 328 26<45.052 102.834 133.829 850>
LayerCount: 2
Fore
SplineSet
331 78 m 0
 331 97 315 107 297 107 c 0
 264 107 211 80 151 42 c 0
 77 -3 23 -46 23 -78 c 0
 23 -97 39 -107 57 -107 c 0
 90 -107 143 -80 203 -42 c 0
 277 3 331 46 331 78 c 0
328 850 m 0
 354 850 l 0
 354 62 l 0
 354 1 302 -79 247 -113 c 0
 214 -134 164 -146 118 -146 c 0
 56 -146 0 -125 0 -62 c 0
 0 -1 52 79 107 113 c 0
 140 134 190 146 236 146 c 0
 263 146 288 142 308 133 c 0
 316 129 328 135 328 143 c 0
 328 850 l 0
EndSplineSet
Validated: 1
EndChar

StartChar: uni008E
Encoding: 142 142 43
GlifName: uni008E_
Width: 354
Flags: W
HStem: -133 26<-325.897 -247.751> 107 39<-122.27 -35.0989>
VStem: -354 26<-850 -133.829 -102.834 -45.052> -23 23<50.348 100.079>
LayerCount: 2
Fore
SplineSet
-331 -78 m 0
 -331 -97 -315 -107 -297 -107 c 0
 -264 -107 -211 -80 -151 -42 c 0
 -77 3 -23 46 -23 78 c 0
 -23 97 -39 107 -57 107 c 0
 -90 107 -143 80 -203 42 c 0
 -277 -3 -331 -46 -331 -78 c 0
-328 -850 m 0
 -354 -850 l 0
 -354 -62 l 0
 -354 -1 -302 79 -247 113 c 0
 -214 134 -164 146 -118 146 c 0
 -56 146 0 125 0 62 c 0
 0 1 -52 -79 -107 -113 c 0
 -140 -134 -190 -146 -236 -146 c 0
 -263 -146 -288 -142 -308 -133 c 0
 -316 -129 -328 -135 -328 -143 c 0
 -328 -850 l 0
EndSplineSet
Validated: 1
EndChar

StartChar: uni008F
Encoding: 143 143 44
GlifName: uni008F_
Width: 326
Flags: W
HStem: 121 20G<199.5 233.5> 830 20G<300 326>
VStem: 300 26<123.911 850>
LayerCount: 2
Fore
SplineSet
95 101 m 0
 130 125 178 141 221 141 c 0
 246 141 269 136 287 124 c 0
 291 122 300 126 300 129 c 0
 300 850 l 0
 326 850 l 0
 326 50 l 0
 326 49 l 0
 325 -7 280 -68 231 -101 c 0
 196 -125 148 -141 105 -141 c 0
 68 -141 34 -130 15 -100 c 0
 4 -85 0 -68 0 -50 c 0
 0 6 46 68 95 101 c 0
EndSplineSet
Validated: 1
EndChar

StartChar: uni0090
Encoding: 144 144 45
GlifName: uni0090
Width: 326
Flags: W
HStem: 121 20G<-126.5 -86.5>
VStem: -326 26<-850 -123.911>
LayerCount: 2
Fore
SplineSet
-95 -101 m 0
 -130 -125 -178 -141 -221 -141 c 0
 -246 -141 -269 -136 -287 -124 c 0
 -291 -122 -300 -126 -300 -129 c 0
 -300 -850 l 0
 -326 -850 l 0
 -326 -50 l 0
 -326 -49 l 0
 -325 7 -280 68 -231 101 c 0
 -196 125 -148 141 -105 141 c 0
 -68 141 -34 130 -15 100 c 0
 -4 85 0 68 0 50 c 0
 0 -6 -46 -68 -95 -101 c 0
EndSplineSet
Validated: 1
EndChar

StartChar: uni0091
Encoding: 145 145 46
GlifName: uni0091
Width: 202
Flags: W
HStem: -95 190<59.623 143.943> 582 20G<180 193>
VStem: 172 30<93.5603 601.996>
LayerCount: 2
Fore
SplineSet
0 -26 m 0
 0 37 62 95 129 95 c 0
 140 95 145 93 151 93 c 0
 162 93 172 98 172 113 c 0
 172 573 l 0
 172 597 173 602 187 602 c 0
 199 602 202 599 202 572 c 0
 202 27 l 0
 202 -37 141 -95 74 -95 c 0
 35 -95 0 -68 0 -26 c 0
EndSplineSet
Validated: 1
EndChar

StartChar: uni0092
Encoding: 146 146 47
GlifName: uni0092
Width: 202
Flags: W
HStem: -95 190<58.0566 142.377>
VStem: 0 30<-601.996 -93.5603>
LayerCount: 2
Fore
SplineSet
202 26 m 0
 202 -37 140 -95 73 -95 c 0
 62 -95 57 -93 51 -93 c 0
 40 -93 30 -98 30 -113 c 0
 30 -573 l 0
 30 -597 29 -602 15 -602 c 0
 3 -602 0 -599 0 -572 c 0
 0 -27 l 0
 0 37 61 95 128 95 c 0
 167 95 202 68 202 26 c 0
EndSplineSet
Validated: 1
EndChar

StartChar: uni0093
Encoding: 147 147 48
GlifName: uni0093
Width: 326
Flags: W
HStem: 121 20G<199.5 233.5> 830 20G<300 327>
VStem: 300 26<123.911 594.688 790.368 850> 541 34<197.466 431.585>
LayerCount: 2
Fore
SplineSet
95 101 m 0
 130 125 178 141 221 141 c 0
 246 141 269 136 287 124 c 0
 291 122 300 126 300 129 c 0
 300 850 l 0
 327 850 l 0
 327 818 340 769 373 728 c 0
 445 637 575 535 575 320 c 0
 575 214 536 123 517 88 c 0
 489 102 l 0
 515 155 541 232 541 321 c 0
 541 437 498 521 425 569 c 0
 395 588 369 595 342 595 c 0
 333 595 326 588 326 582 c 0
 326 49 l 0
 325 -7 280 -68 231 -101 c 0
 196 -125 148 -141 105 -141 c 0
 68 -141 34 -130 15 -100 c 0
 4 -85 0 -68 0 -50 c 0
 0 6 46 68 95 101 c 0
EndSplineSet
Validated: 1
EndChar

StartChar: uni0094
Encoding: 148 148 49
GlifName: uni0094
Width: 326
Flags: W
HStem: 121 20G<199.5 239.5>
VStem: 0 26<-850 -790.368 -594.688 -123.911> 241 34<-431.585 -197.373>
LayerCount: 2
Fore
SplineSet
42 -595 m 0
 69 -595 95 -588 125 -569 c 0
 198 -521 241 -437 241 -321 c 0
 241 -241 220 -172 197 -120 c 0
 168 -133 135 -141 105 -141 c 0
 80 -141 57 -136 39 -124 c 0
 35 -122 26 -126 26 -129 c 0
 26 -582 l 0
 26 -588 33 -595 42 -595 c 0
326 50 m 0
 326 -9 276 -71 225 -105 c 0
 246 -147 275 -228 275 -320 c 0
 275 -535 145 -637 73 -728 c 0
 40 -769 27 -818 27 -850 c 0
 0 -850 l 0
 0 -49 l 0
 1 7 46 68 95 101 c 0
 130 125 178 141 221 141 c 0
 258 141 292 130 311 100 c 0
 322 85 326 68 326 50 c 0
EndSplineSet
Validated: 1
EndChar

StartChar: uni0095
Encoding: 149 149 50
GlifName: uni0095
Width: 202
Flags: W
HStem: -95 190<59.623 143.943> 555 20G<178 203>
VStem: 178 24<90.7285 396.996 523.761 575> 352 30<107.571 287.017>
LayerCount: 2
Fore
SplineSet
0 -26 m 0
 0 37 62 95 129 95 c 0
 140 95 151 93 161 89 c 0
 166 86 178 91 178 96 c 0
 178 575 l 0
 203 575 l 0
 203 549 214 515 229 496 c 0
 279 432 382 354 382 204 c 0
 382 133 355 66 342 42 c 0
 317 54 l 0
 335 91 352 146 352 205 c 0
 352 286 312 347 271 376 c 0
 251 390 235 397 213 397 c 0
 207 397 202 392 202 388 c 0
 202 27 l 0
 202 -37 141 -95 74 -95 c 0
 35 -95 0 -68 0 -26 c 0
EndSplineSet
Validated: 1
EndChar

StartChar: uni0096
Encoding: 150 150 51
GlifName: uni0096
Width: 202
Flags: W
HStem: -95 190<58.0566 143.887>
VStem: 0 24<-575 -523.761 -396.996 -90.7285> 174 30<-287.017 -105.653>
LayerCount: 2
Fore
SplineSet
35 -397 m 0
 57 -397 73 -390 93 -376 c 0
 134 -347 174 -286 174 -205 c 0
 174 -154 162 -107 147 -71 c 0
 125 -86 100 -95 73 -95 c 0
 62 -95 51 -93 41 -89 c 0
 36 -86 24 -91 24 -96 c 0
 24 -388 l 0
 24 -392 29 -397 35 -397 c 0
0 -575 m 0
 0 -27 l 0
 0 37 61 95 128 95 c 0
 167 95 202 68 202 26 c 0
 202 -3 189 -30 169 -52 c 0
 183 -81 204 -141 204 -204 c 0
 204 -354 101 -432 51 -496 c 0
 36 -515 25 -549 25 -575 c 0
 0 -575 l 0
EndSplineSet
Validated: 1
EndChar

StartChar: uni0097
Encoding: 151 151 52
GlifName: uni0097
Width: 202
Flags: W
HStem: -95 190<59.623 143.943> 555 20G<178 203>
VStem: 178 24<90.7285 241 276 396.996 523.761 575> 352 30<107.571 287.941>
LayerCount: 2
Fore
SplineSet
0 -26 m 0
 0 37 62 95 129 95 c 0
 140 95 151 93 161 89 c 0
 166 86 178 91 178 96 c 0
 178 241 l 0
 67 201 l 0
 59 224 l 0
 178 267 l 0
 178 575 l 0
 203 575 l 0
 203 549 214 515 229 496 c 0
 262 453 320 404 354 331 c 0
 457 369 l 0
 465 346 l 0
 363 309 l 0
 375 278 382 244 382 204 c 0
 382 133 355 66 342 42 c 0
 317 54 l 0
 335 91 352 146 352 205 c 0
 352 240 345 271 333 298 c 0
 202 250 l 0
 202 27 l 0
 202 -37 141 -95 74 -95 c 0
 35 -95 0 -68 0 -26 c 0
202 276 m 0
 322 320 l 0
 307 344 289 363 271 376 c 0
 251 390 235 397 213 397 c 0
 207 397 202 392 202 388 c 0
 202 276 l 0
EndSplineSet
Validated: 1
EndChar

StartChar: uni0098
Encoding: 152 152 53
GlifName: uni0098
Width: 326
Flags: W
HStem: 121 20G<199.5 233.5> 830 20G<300 327>
VStem: 300 26<123.911 444.688 602.26 653.583 804.95 850> 542 33<78.4353 293.641 385.735 528.197>
LayerCount: 2
Fore
SplineSet
95 101 m 0
 130 125 178 141 221 141 c 0
 246 141 269 136 287 124 c 0
 291 122 300 126 300 129 c 0
 300 850 l 0
 327 850 l 0
 327 802 363 763 426 713 c 0
 505 650 575 564 575 446 c 0
 575 401 564 365 552 341 c 0
 567 299 575 251 575 195 c 0
 575 108 544 19 527 -11 c 0
 498 0 l 0
 514 37 542 109 542 196 c 0
 542 318 471 445 342 445 c 0
 333 445 326 438 326 432 c 0
 326 49 l 0
 325 -7 280 -68 231 -101 c 0
 196 -125 148 -141 105 -141 c 0
 68 -141 34 -130 15 -100 c 0
 4 -85 0 -68 0 -50 c 0
 0 6 46 68 95 101 c 0
327 642 m 0
 327 602 368 553 426 508 c 0
 472 472 508 432 533 385 c 0
 538 403 542 424 542 447 c 0
 542 520 507 594 421 635 c 0
 398 646 368 654 343 654 c 0
 334 654 327 648 327 642 c 0
EndSplineSet
Validated: 1
EndChar

StartChar: uni0099
Encoding: 153 153 54
GlifName: uni0099
Width: 326
Flags: W
HStem: 121 20G<199.5 239.5>
VStem: 0 27<-850 -802.878 -653.793 -600.177 -444.92 -123.911> 242 33<-528.197 -385.735 -293.641 -102.041>
LayerCount: 2
Fore
SplineSet
231 -101 m 0
 196 -125 148 -141 105 -141 c 0
 80 -141 57 -136 39 -124 c 0
 35 -122 26 -126 26 -129 c 0
 26 -432 l 0
 26 -438 33 -445 42 -445 c 0
 171 -445 242 -318 242 -196 c 0
 242 -161 238 -129 231 -101 c 0
27 -642 m 0
 27 -648 34 -654 43 -654 c 0
 68 -654 98 -646 121 -635 c 0
 207 -594 242 -520 242 -447 c 0
 242 -424 238 -403 233 -385 c 0
 208 -432 172 -472 126 -508 c 0
 68 -553 27 -602 27 -642 c 0
0 -850 m 0
 0 -49 l 0
 1 7 46 68 95 101 c 0
 130 125 178 141 221 141 c 0
 258 141 292 130 311 100 c 0
 322 85 326 68 326 50 c 0
 326 5 296 -44 259 -78 c 0
 268 -113 275 -154 275 -195 c 0
 275 -251 267 -299 252 -341 c 0
 264 -365 275 -401 275 -446 c 0
 275 -564 205 -650 126 -713 c 0
 63 -763 27 -802 27 -850 c 0
 0 -850 l 0
EndSplineSet
Validated: 1
EndChar

StartChar: uni009A
Encoding: 154 154 55
GlifName: uni009A_
Width: 202
Flags: W
HStem: -95 190<59.623 143.943> 580 20G<178 203>
VStem: 178 24<90.7285 275.996 394.137 445.918 557.345 600> 352 30<2.97531 173.314 243.593 363.788>
LayerCount: 2
Fore
SplineSet
0 -26 m 0
 0 37 62 95 129 95 c 0
 140 95 151 93 161 89 c 0
 166 86 178 91 178 96 c 0
 178 600 l 0
 203 600 l 0
 203 566 223 529 268 493 c 0
 322 450 382 385 382 302 c 0
 382 265 370 232 358 211 c 0
 373 178 382 141 382 98 c 0
 382 37 361 -25 349 -46 c 0
 323 -36 l 0
 334 -10 352 38 352 99 c 0
 352 163 321 222 277 251 c 0
 254 266 233 276 213 276 c 0
 207 276 202 271 202 267 c 0
 202 27 l 0
 202 -37 141 -95 74 -95 c 0
 35 -95 0 -68 0 -26 c 0
203 434 m 0
 203 400 226 367 268 327 c 0
 296 300 321 273 340 243 c 0
 346 260 352 282 352 303 c 0
 352 354 324 404 264 433 c 0
 248 441 233 446 216 446 c 0
 208 446 203 443 203 434 c 0
EndSplineSet
Validated: 1
EndChar

StartChar: uni009B
Encoding: 155 155 56
GlifName: uni009B_
Width: 202
Flags: W
HStem: -95 190<58.0566 142.377>
VStem: 0 25<-625 -578.987 -470.991 -415.902 -300.996 -91.0391> 174 30<-388.788 -268.593 -198.314 -55.6425>
LayerCount: 2
Fore
SplineSet
25 -459 m 0
 25 -468 30 -471 38 -471 c 0
 55 -471 70 -466 86 -458 c 0
 146 -429 174 -379 174 -328 c 0
 174 -307 168 -285 162 -268 c 0
 143 -298 118 -325 90 -352 c 0
 48 -392 25 -425 25 -459 c 0
166 -55 m 0
 142 -79 108 -95 73 -95 c 0
 62 -95 51 -93 41 -89 c 0
 36 -86 24 -91 24 -96 c 0
 24 -292 l 0
 24 -296 29 -301 35 -301 c 0
 55 -301 76 -291 99 -276 c 0
 143 -247 174 -188 174 -124 c 0
 174 -98 171 -75 166 -55 c 0
0 -625 m 0
 0 -27 l 0
 0 37 61 95 128 95 c 0
 167 95 202 68 202 26 c 0
 202 8 197 -9 189 -24 c 0
 197 -52 204 -88 204 -123 c 0
 204 -166 195 -203 180 -236 c 0
 192 -257 204 -290 204 -327 c 0
 204 -410 144 -475 90 -518 c 0
 45 -554 25 -591 25 -625 c 0
 0 -625 l 0
EndSplineSet
Validated: 1
EndChar

StartChar: uni009C
Encoding: 156 156 57
GlifName: uni009C_
Width: 202
Flags: W
HStem: -95 190<59.623 143.943> 221 102<209.833 254.316> 324 52<304.944 327.176> 395 214G<180.5 194 415 418.5>
VStem: 0 202<-37.2618 37.5247> 172 30<94.7656 220.223 332.283 399.977 513.737 608.862> 282 66<334.109 361.172> 340 31<223.448 307.537> 348 29<-42.7648 132.852>
LayerCount: 2
Fore
SplineSet
416 415 m 0xf4
 421 415 428 405 428 398 c 0
 428 393 424 390 415 385 c 0
 367 360 l 0
 355 354 348 349 348 339 c 0xf6
 348 335 349 330 352 324 c 0
 364 299 371 271 371 241 c 0xf1
 371 218 360 188 360 168 c 0
 360 159 361 150 365 137 c 0
 373 114 377 87 377 56 c 0
 377 16 367 -34 357 -60 c 0
 354 -67 348 -71 343 -71 c 0
 337 -71 332 -67 332 -57 c 0
 332 -55 332 -52 333 -49 c 0
 343 -1 348 14 348 52 c 0
 348 98 337 133 321 158 c 0
 299 192 257 221 222 221 c 0
 204 221 202 209 202 188 c 0xf480
 202 27 l 0
 202 -37 141 -95 74 -95 c 0
 35 -95 0 -68 0 -26 c 0xf8
 0 37 62 95 129 95 c 0
 135 95 142 94 148 94 c 0
 161 94 172 97 172 116 c 0
 172 218 l 0
 172 234 169 246 157 246 c 0
 153 246 148 244 142 241 c 0
 86 212 l 0
 82 210 79 208 76 208 c 0
 71 208 64 217 64 225 c 0
 64 230 68 233 75 236 c 0
 139 270 l 0
 164 283 172 292 172 324 c 0
 172 590 l 0
 172 608 178 609 183 609 c 0
 185 609 l 0
 203 609 196 588 203 552 c 0
 214 496 266 448 309 392 c 0
 317 382 323 376 333 376 c 0
 338 376 345 379 354 383 c 0
 406 411 l 0
 410 413 414 415 416 415 c 0xf4
202 383 m 0
 202 360 212 323 234 323 c 0
 238 323 242 325 247 327 c 0
 271 340 l 0
 278 343 282 349 282 355 c 0
 282 368 264 379 254 386 c 0
 244 393 230 400 218 400 c 0
 206 400 202 392 202 383 c 0
290 319 m 0
 270 308 l 0
 260 303 255 298 255 291 c 0
 255 287 257 282 263 277 c 0
 276 264 290 251 303 237 c 0
 309 231 320 223 328 223 c 0
 335 223 340 227 340 242 c 0xf1
 340 266 335 289 323 311 c 0
 318 321 312 324 306 324 c 0
 301 324 296 322 290 319 c 0
EndSplineSet
Validated: 1
EndChar

StartChar: uni009D
Encoding: 157 157 58
GlifName: uni009D_
Width: 326
Flags: W
HStem: 121 20G<199.5 233.5>
VStem: 300 27<123.911 369.92 525.177 578.793 727.878 786.793 935.878 983> 542 33<3.43535 218.641 310.735 453.804 521.087 661.197>
LayerCount: 2
Fore
SplineSet
327 567 m 0
 327 527 368 478 426 433 c 0
 472 397 508 357 533 310 c 0
 538 328 542 349 542 372 c 0
 542 445 507 519 421 560 c 0
 398 571 368 579 343 579 c 0
 334 579 327 573 327 567 c 0
95 101 m 0
 130 125 178 141 221 141 c 0
 246 141 269 136 287 124 c 0
 291 122 300 126 300 129 c 0
 300 983 l 0
 327 983 l 0
 327 935 363 896 426 846 c 0
 505 783 575 697 575 579 c 0
 575 536 565 502 554 478 c 0
 567 446 575 410 575 371 c 0
 575 326 564 290 552 266 c 0
 567 224 575 176 575 120 c 0
 575 33 544 -56 527 -86 c 0
 498 -75 l 0
 514 -38 542 34 542 121 c 0
 542 243 471 370 342 370 c 0
 333 370 326 363 326 357 c 0
 326 49 l 0
 325 -7 280 -68 231 -101 c 0
 196 -125 148 -141 105 -141 c 0
 68 -141 34 -130 15 -100 c 0
 4 -85 0 -68 0 -50 c 0
 0 6 46 68 95 101 c 0
327 775 m 0
 327 727 363 688 426 638 c 0
 467 605 506 566 533 520 c 0
 538 537 542 558 542 580 c 0
 542 653 507 727 421 768 c 0
 398 779 368 787 343 787 c 0
 334 787 327 781 327 775 c 0
EndSplineSet
Validated: 1
EndChar

StartChar: uni009E
Encoding: 158 158 59
GlifName: uni009E_
Width: 326
Flags: W
HStem: 121 20G<199.5 239.5>
VStem: 0 27<-1008 -960.878 -811.793 -752.878 -603.793 -550.177 -394.92 -123.911> 242 33<-686.197 -546.087 -478.804 -335.735 -243.641 -95.5666>
LayerCount: 2
Fore
SplineSet
239 -95 m 0
 203 -121 152 -141 105 -141 c 0
 80 -141 57 -136 39 -124 c 0
 35 -122 26 -126 26 -129 c 0
 26 -382 l 0
 26 -388 33 -395 42 -395 c 0
 171 -395 242 -268 242 -146 c 0
 242 -128 241 -112 239 -95 c 0
27 -592 m 0
 27 -598 34 -604 43 -604 c 0
 68 -604 98 -596 121 -585 c 0
 207 -544 242 -470 242 -397 c 0
 242 -374 238 -353 233 -335 c 0
 208 -382 172 -422 126 -458 c 0
 68 -503 27 -552 27 -592 c 0
0 -1008 m 0
 0 -49 l 0
 1 7 46 68 95 101 c 0
 130 125 178 141 221 141 c 0
 258 141 292 130 311 100 c 0
 322 85 326 68 326 50 c 0
 326 9 301 -36 268 -70 c 0
 272 -94 275 -120 275 -145 c 0
 275 -201 267 -249 252 -291 c 0
 264 -315 275 -351 275 -396 c 0
 275 -435 267 -471 254 -503 c 0
 265 -527 275 -561 275 -604 c 0
 275 -722 205 -808 126 -871 c 0
 63 -921 27 -960 27 -1008 c 0
 0 -1008 l 0
233 -545 m 0
 206 -591 167 -630 126 -663 c 0
 63 -713 27 -752 27 -800 c 0
 27 -806 34 -812 43 -812 c 0
 68 -812 98 -804 121 -793 c 0
 207 -752 242 -678 242 -605 c 0
 242 -583 238 -562 233 -545 c 0
EndSplineSet
Validated: 1
EndChar

StartChar: uni009F
Encoding: 159 159 60
GlifName: uni009F_
Width: 202
Flags: W
HStem: -95 190<59.623 143.943> 812 20G<183.5 196>
VStem: 172 32<93.3853 289.434 414.6 477.992 576.27 639.993 739.686 831.73> 363 29<282.661 371.512> 373 31<-10.9876 164.35>
LayerCount: 2
Fore
SplineSet
349 282 m 0xf0
 359 282 363 292 363 310 c 0
 363 393 279 478 219 478 c 0
 207 478 204 467 204 456 c 0
 204 427 236 390 267 360 c 0
 317 311 334 282 349 282 c 0xf0
0 -26 m 0
 0 37 62 95 129 95 c 0
 140 95 145 93 151 93 c 0
 162 93 172 98 172 113 c 0
 172 790 l 0
 172 818 176 832 191 832 c 0
 201 832 204 822 204 794 c 0
 204 760 220 728 257 696 c 0
 346 616 392 558 392 472 c 0
 392 425 382 415 382 391 c 0
 382 369 392 351 392 310 c 0xf0
 392 260 378 243 378 223 c 0
 378 198 404 168 404 79 c 0
 404 14 378 -50 356 -82 c 0
 339 -106 323 -95 334 -72 c 0
 344 -49 373 11 373 80 c 0xe8
 373 170 329 226 288 262 c 0
 271 276 251 290 228 290 c 0
 208 290 202 283 202 255 c 0
 202 27 l 0
 202 -37 141 -95 74 -95 c 0
 35 -95 0 -68 0 -26 c 0
204 618 m 0
 204 596 223 564 257 534 c 0
 284 510 306 488 325 467 c 0
 344 444 368 433 362 486 c 0
 353 564 276 640 219 640 c 0
 209 640 204 630 204 618 c 0
EndSplineSet
Validated: 33
EndChar

StartChar: divide
Encoding: 247 247 61
GlifName: divide
Width: 1320
Flags: W
HStem: 96 20G<1255.77 1320> 487 20G<1255.77 1320>
LayerCount: 2
Fore
SplineSet
1320 -96 m 0
 0 -507 l 0
 0 -295 l 0
 1320 116 l 0
 1320 -96 l 0
0 96 m 0
 1320 507 l 0
 1320 295 l 0
 0 -116 l 0
 0 96 l 0
EndSplineSet
Validated: 1
EndChar

StartChar: registered
Encoding: 174 174 62
GlifName: registered
Width: 560
Flags: W
HStem: -134 54<60.222 158.54 426.5 510.004> 76 58<49.9959 133.5 396.709 499.778>
VStem: 0 32<-45.9837 59.4597> 528 32<-59.4597 45.9837>
LayerCount: 2
Fore
SplineSet
0 3 m 0
 0 74 46 134 114 134 c 0
 153 134 177 112 177 84 c 0
 177 60 162 44 137 44 c 0
 105 44 103 76 79 76 c 0
 44 76 32 33 32 4 c 0
 32 -48 71 -80 108 -80 c 0
 136 -80 163 -55 183 -39 c 0
 325 85 l 0
 362 119 392 134 432 134 c 0
 506 134 560 67 560 -3 c 0
 560 -74 514 -134 446 -134 c 0
 407 -134 383 -112 383 -84 c 0
 383 -60 398 -44 423 -44 c 0
 455 -44 457 -76 481 -76 c 0
 516 -76 528 -33 528 -4 c 0
 528 48 489 80 452 80 c 0
 424 80 397 55 377 39 c 0
 235 -85 l 0
 198 -119 168 -134 128 -134 c 0
 54 -134 0 -67 0 3 c 0
EndSplineSet
Validated: 1
EndChar

StartChar: copyright
Encoding: 169 169 63
GlifName: copyright
Width: 709
Flags: W
HStem: -690 33.9996<262.287 410.186> -270 31<262.31 459.765> 149 130<425 536.454> 1112 162<436 499> 1498 16.0004<413.81 467.882>
VStem: 0 69<-44.5643 155.107> 113 141<-629.5 -476.5> 189 68<-41.2563 83.8953> 349 30.9997<1290.66 1360.3> 360 38.9997<1432.99 1491.07> 485 41.0002<1286.29 1349.95> 486 28.0002<1421.71 1486.85> 510 34.0005<-554.285 -349.033> 551 37.0005<884.057 1052.29> 634 75.0005<-90.0674 66.891>
LayerCount: 2
Fore
SplineSet
634 -26 m 0xfc06
 634 78 572 149 458 149 c 0
 448 149 l 0
 435 149 425 146 425 135 c 0
 425 131 l 0
 497 -203 l 0
 498 -209 503 -213 508 -213 c 0
 509 -213 511 -213 512 -212 c 0
 585 -175 634 -131 634 -26 c 0xfc06
367 -239 m 0
 395 -239 464 -239 464 -216 c 0
 464 -213 l 0
 392 127 l 0
 391 132 383 139 375 139 c 0
 373 139 l 0
 289 121 257 70 257 13 c 0
 257 -39 281.23 -77.8455 310 -121 c 0
 312 -124 313 -126 313 -127 c 0
 313 -129 312 -130 310 -130 c 0
 308 -130 306 -129 303 -128 c 0
 237 -102 189 -32 189 51 c 0xfd06
 189 152 261 237 350 266 c 0
 357 268 360 271 360 277 c 0
 360 278 359 280 359 282 c 0
 330 415 l 0
 329 422 322 425 316 425 c 0
 311 425 307 423 303 420 c 0
 195 323 69 214 69 36 c 0
 69 -138 200 -239 367 -239 c 0
347 636 m 0
 433 714 551 838 551 978 c 0
 551 1024 539 1061 520 1100 c 0
 517 1108 508 1112 499 1112 c 0
 496 1112 494 1112 491 1111 c 0
 408 1079 296 960 296 791 c 0
 296 746 302 707 314 656 c 0
 318 640 l 0
 319 632 325 630 330 630 c 0
 336 630 343 632 347 636 c 0
231 -385 m 0
 296 -385 350 -436 350 -503 c 0
 350 -558 312 -607 259 -619 c 0
 256 -620 254 -623 254 -627 c 0
 254 -632 257 -639 261 -641 c 0
 280 -650 294 -656 328 -656 c 0
 434 -656 510 -588 510 -469 c 0
 510 -412 493 -350 476 -271 c 0
 475 -263 469 -261 460 -261 c 0
 429 -267 402 -270 369 -270 c 0
 170 -270 0 -132 0 75 c 0
 0 289 149 449 286 577 c 0
 291 582 292 586 292 592 c 0
 292 597 l 0
 287 622 l 0
 280 654 249 776 249 857 c 0
 249 1041.33 360.575 1192.58 420.718 1247.67 c 0
 424.676 1251.29 419.826 1258.93 415.667 1259.61 c 0
 375.082 1266.26 349 1292.51 349 1321 c 0xfe8e
 349 1347 364 1366 390 1380 c 0
 397 1384 394 1394 389 1398 c 0
 372 1411 360 1427 360 1450 c 0
 360 1486 398 1514 442 1514 c 0
 487 1514 514 1489 514 1457 c 0xfc56
 514 1436 503 1420 488 1408 c 0
 480 1402 484 1394 487 1391 c 0
 509 1376 526 1358 526 1331 c 0xfc26
 526 1302.84 504.194 1278.15 475.234 1266 c 0
 468.205 1263.05 464.792 1251.85 468.054 1248 c 0
 508.834 1199.85 588 1074.7 588 929 c 0
 588 741 493 585 365 470 c 0
 359 465 357 459 357 452 c 0
 357 450 357 449 358 447 c 0
 391 290 l 0
 394 280 400 279 409 279 c 0
 414 279 l 0
 426 279 l 0
 583 279 709 164 709 10.0004 c 0
 709 -113 627.727 -199.309 521 -242 c 0
 516 -244 509 -252 509 -260 c 0
 509 -261 l 0
 526 -343 544 -412 544 -471 c 0
 544 -603 455 -690 340 -690 c 0
 229 -690 113 -620 113 -509 c 0xfe0e
 113 -444 163 -385 231 -385 c 0
485 1312 m 0xfca6
 485 1344 452 1360 420 1378 c 0
 395 1367 380 1351 380 1325 c 0
 380 1301 402 1274 436 1274 c 0
 464 1274 485 1292 485 1312 c 0xfca6
399 1466 m 0xfc56
 399 1440 427 1425 457 1409 c 0
 475 1420 486 1437 486 1455 c 0
 486 1479 469 1498 442 1498 c 0
 415 1498 399 1482 399 1466 c 0xfc56
EndSplineSet
Validated: 1
EndChar

StartChar: logicalnot
Encoding: 172 172 64
GlifName: logicalnot
Width: 586
Flags: W
HStem: -66 61<239.441 272.223> 8 56<314.038 345.031> 111 20G<144 151 388 394.5>
VStem: 276 35<-199.998 -66.008 64.0073 199.999>
LayerCount: 2
Fore
SplineSet
21 -52 m 0
 15 -52 4 -35 4 -28 c 0
 4 -23 7 -18 14 -11 c 0
 119 107 l 0
 133 123 141 131 147 131 c 0
 155 131 161 120 175 98 c 0
 224 20 l 0
 235 3 243 -5 251 -5 c 0
 270 -5 277 24 277 55 c 0
 277 100 276 128 276 183 c 0
 276 202 280 200 298 200 c 0
 309 200 311 199 311 181 c 0
 311 89 l 0
 311 74 313 64 318 64 c 0
 323 64 330 69 338 78 c 0
 363 106 l 0
 377 123 385 132 391 132 c 0
 398 132 404 123 417 103 c 0
 471 17 l 0
 482 1 488 -8 496 -8 c 0
 504 -8 514 2 533 22 c 0
 553 44 l 0
 558 50 562 53 565 53 c 0
 571 53 581 36 581 28 c 0
 581 23 578 17 571 9 c 0
 475 -98 l 0
 457 -118 448 -130 440 -130 c 0
 432 -130 425 -119 410 -96 c 0
 362 -21 l 0
 350 -2 343 8 335 8 c 0
 317 8 310 -18 310 -47 c 0
 310 -97 311 -140 311 -182 c 0
 311 -197 308 -200 295 -200 c 0
 279 -200 276 -200 276 -183 c 0
 276 -94 l 0
 277 -77 273 -66 266 -66 c 0
 261 -66 255 -70 248 -78 c 0
 225 -104 l 0
 209 -122 202 -131 195 -131 c 0
 187 -131 181 -121 168 -100 c 0
 115 -18 l 0
 104 -1 98 8 90 8 c 0
 82 8 73 0 58 -17 c 0
 36 -42 l 0
 29 -49 25 -52 21 -52 c 0
EndSplineSet
Validated: 1
EndChar

StartChar: exclam
Encoding: 33 33 66
GlifName: exclam
Width: 0
VWidth: 0
Flags: W
HStem: -107 214
LayerCount: 2
Fore
SplineSet
-170 7 m 1
 170 107 l 1
 170 -7 l 1
 -170 -107 l 1
 -170 7 l 1
EndSplineSet
EndChar

StartChar: less
Encoding: 60 60 67
GlifName: less
Width: 300
VWidth: 0
Flags: W
HStem: -33 66<-140 160>
LayerCount: 2
Fore
SplineSet
300 -176 m 1
 0 -176 l 1
 0 -110 l 1
 300 -110 l 1
 300 -176 l 1
198 0 m 0
 198 -26 176 -48 150 -48 c 0
 124 -48 102 -26 102 0 c 0
 102 26 124 48 150 48 c 0
 176 48 198 26 198 0 c 0
EndSplineSet
EndChar

StartChar: equal
Encoding: 61 61 68
GlifName: equal
Width: 997
Flags: W
HStem: 38 19 292 19 545 19 802 19 1052 19
LayerCount: 2
Fore
SplineSet
998 1002 m 1
 0 1002 l 1
 0 1021 l 1
 998 1021 l 1
 998 1002 l 1
998 747 m 1
 0 747 l 1
 0 768 l 1
 998 768 l 1
 998 747 l 1
998 494 m 1
 0 494 l 1
 0 513 l 1
 998 513 l 1
 998 494 l 1
998 241 m 1
 0 241 l 1
 0 260 l 1
 998 260 l 1
 998 241 l 1
998 -12 m 1
 0 -12 l 1
 0 7 l 1
 998 7 l 1
 998 -12 l 1
EndSplineSet
EndChar

StartChar: uni0080
Encoding: 128 128 69
GlifName: uni0080
Width: 533
Flags: W
HStem: -536 34<204.53 329.266> -445 143<186.998 253> -211 34<191.634 339.232> 843 115<302.387 349.219> 1026 29<285.605 343.286> 1119 21<279.217 349.539>
VStem: 0 48<-50.536 140.881> 118 155<-423.262 -330.809> 142 49<-40.375 76.3078> 238 24<969.02 1016.3> 242 30<1068.16 1113.85> 358 32<964.381 1012.92 1057.81 1113.18> 384 34<-444.025 -252.83> 482 51<-84.909 63.2897>
LayerCount: 2
Fore
SplineSet
482 -11 m 0xfe04
 482 67 423 122 347 122 c 0
 319 122 321 99 327 74 c 0
 371 -115 l 0
 378 -145 391 -152 416 -135 c 0
 457 -106 482 -64 482 -11 c 0xfe04
253 247 m 0
 249 266 l 0
 243 293 233 306 204 285 c 0
 125 227 48 162 48 41 c 0
 48 -81 153 -177 275 -177 c 0
 286 -177 298 -177 309 -175 c 0
 345 -171 346 -155 338 -120 c 0
 296 63 l 0
 290 88 289 109 273 109 c 0xff04
 232 109 191 67 191 19 c 0
 191 -23 214 -58 236 -76 c 0
 252 -90 238 -111 218 -98 c 0
 180 -75 142 -23 142 35 c 0xfe84
 142 95 174 145 220 175 c 0
 261 203 263 201 253 247 c 0
278 462 m 0
 348 523 389 603 389 709 c 0
 389 767 365 843 343 843 c 0
 314 843 257 789 230 700 c 0
 213 645 214 582 226 520 c 0
 230 500 l 0
 237 471 246 434 278 462 c 0
335 -207 m 0
 318 -207 296 -211 277 -211 c 0
 133 -211 0 -101 0 43 c 0
 0 211 98 296 190 384 c 0
 213 405 211 428 204 457 c 0
 193 507 l 0
 179 577 171 649 190 723 c 0
 210 804 251 873 284 911 c 0
 297 927 291 936 273 943 c 0xff0c
 252 952 238 969 238 993 c 0xfe44
 238 1020 260 1030 260 1042 c 0
 260 1054 242 1058 242 1086 c 0
 242 1120 276 1140 312 1140 c 0
 348 1140 384 1126 384 1084 c 0xfe2c
 384 1059 368 1055 368 1041 c 0
 368 1025 390 1022 390 993 c 0xfe14
 390 976 380 961 364 950 c 0
 352 942 344 934 356 916 c 0
 389 869 431 772 431 679 c 0
 431 549 368 448 296 366 c 0
 265 331 270 317 282 271 c 0
 286 255 l 0
 298 212 291 209 334 206 c 0
 443 200 533 115 533 5 c 0
 533 -71 491 -136 428 -172 c 0
 402 -187 389 -193 396 -227 c 0
 406 -275 418 -340 418 -383 c 0
 418 -470 354 -536 272 -536 c 0xfe2c
 180 -536 118 -470 118 -396 c 0
 118 -339 155 -302 203 -302 c 0
 243 -302 273 -333 273 -376 c 0
 273 -409 247 -441 212 -445 c 0
 194 -447 181 -450 187 -467 c 0
 195 -487 228 -502 269 -502 c 0
 339 -502 384 -445 384 -379 c 0xff0c
 384 -336 374 -283 365 -243 c 0
 361 -223 355 -207 335 -207 c 0
312 1119 m 0
 296 1119 272 1114 272 1092 c 0xfe24
 272 1066 312 1055 330 1055 c 0
 350 1055 362 1074 362 1086 c 0
 362 1107 340 1119 312 1119 c 0
298 1026 m 0
 278 1026 262 1008 262 992 c 0
 262 970 286 958 312 958 c 0
 338 958 358 968 358 988 c 0xfe54
 358 1009 328 1026 298 1026 c 0
EndSplineSet
Validated: 33
EndChar

StartChar: degree
Encoding: 176 176 70
GlifName: degree
Width: 356
Flags: W
HStem: 94 20G<75.8621 140 280.5 308.5>
VStem: 0 28<-71.1333 54.0781 117.623 271> 112 28<-271 -117.623 -54.0781 71.1333> 188 43<106.008 340> 188 26<-61.1817 69.7368>
LayerCount: 2
Fore
SplineSet
232 -61 m 0xe8
 280 -26 298 3 292 47 c 0
 286 92 242 86 220 64 c 0
 216 59 214 54 214 48 c 0
 214 -53 l 0
 214 -61 226 -65 232 -61 c 0xe8
198 -123 m 0
 189 -130 188 -129 188 -116 c 0xe8
 188 340 l 0
 231 340 l 0
 231 123 l 0xf0
 231 117 240 106 246 106 c 0
 255 106 270 114 291 114 c 0
 326 114 356 91 356 47 c 0
 356 -17 282 -54 232 -95 c 0
 198 -123 l 0
140 -271 m 0
 112 -271 l 0
 112 -130 l 0
 112 -121 101 -116 93 -118 c 0
 0 -147 l 0
 0 271 l 0
 28 271 l 0
 28 130 l 0
 28 121 39 116 47 118 c 0
 140 147 l 0
 140 -271 l 0
25 -60 m 0
 25 -67 34 -74 43 -71 c 0
 105 -52 l 0
 111 -50 115 -47 115 -40 c 0
 115 60 l 0
 115 67 106 74 97 71 c 0
 35 52 l 0
 29 50 25 47 25 40 c 0
 25 -60 l 0
EndSplineSet
Validated: 33
EndChar

StartChar: plusminus
Encoding: 177 177 71
GlifName: plusminus
Width: 383
Flags: W
HStem: 134 13G<75.8621 140 358 383>
VStem: 0 28<-71.1333 54.0781 117.623 271> 112 28<-271 -117.623 -54.0781 71.1333> 229 28<-264 -146.668 -68.0879 45.0872 122.912 244> 313 28<-244 -122.912 -45.0872 68.0879 146.668 264>
LayerCount: 2
Fore
SplineSet
256 -56 m 0
 256 -64 266 -70 274 -68 c 0
 303 -60 l 0
 309 -58 314 -52 314 -44 c 0
 314 56 l 0
 314 64 304 70 296 68 c 0
 267 60 l 0
 261 58 256 52 256 44 c 0
 256 -56 l 0
230 32 m 0
 230 40 222 47 215 45 c 0
 187 37 l 0
 187 98 l 0
 211 104 l 0
 224 108 229 116 229 128 c 0
 229 244 l 0
 257 244 l 0
 257 135 l 0
 257 127 267 121 274 123 c 0
 300 130 l 0
 310 133 313 138 313 146 c 0
 313 264 l 0
 341 264 l 0
 341 160 l 0
 341 152 351 145 358 147 c 0
 383 154 l 0
 383 93 l 0
 352 84 l 0
 345 83 340 78 340 70 c 0
 340 -32 l 0
 340 -40 348 -47 355 -45 c 0
 383 -37 l 0
 383 -98 l 0
 359 -104 l 0
 346 -108 341 -116 341 -128 c 0
 341 -244 l 0
 313 -244 l 0
 313 -135 l 0
 313 -127 303 -121 296 -123 c 0
 270 -130 l 0
 260 -133 257 -138 257 -146 c 0
 257 -264 l 0
 229 -264 l 0
 229 -160 l 0
 229 -152 219 -145 212 -147 c 0
 187 -154 l 0
 187 -93 l 0
 218 -84 l 0
 225 -83 230 -78 230 -70 c 0
 230 32 l 0
140 -271 m 0
 112 -271 l 0
 112 -130 l 0
 112 -121 101 -116 93 -118 c 0
 0 -147 l 0
 0 271 l 0
 28 271 l 0
 28 130 l 0
 28 121 39 116 47 118 c 0
 140 147 l 0
 140 -271 l 0
25 -60 m 0
 25 -67 34 -74 43 -71 c 0
 105 -52 l 0
 111 -50 115 -47 115 -40 c 0
 115 60 l 0
 115 67 106 74 97 71 c 0
 35 52 l 0
 29 50 25 47 25 40 c 0
 25 -60 l 0
EndSplineSet
Validated: 1
EndChar

StartChar: multiply
Encoding: 215 215 72
GlifName: multiply
Width: 304
Flags: W
HStem: -152 40<90.4229 213.111> 112 40<90.8888 213.577>
VStem: 0 40<-61.1112 61.5771> 264 40<-61.5771 61.1112>
LayerCount: 2
Fore
SplineSet
0 0 m 0
 0 86 72 152 152 152 c 0
 238 152 304 80 304 0 c 0
 304 -86 232 -152 152 -152 c 0
 66 -152 0 -80 0 0 c 0
40 0 m 0
 40 -59 89 -112 152 -112 c 0
 211 -112 264 -63 264 0 c 0
 264 59 215 112 152 112 c 0
 93 112 40 63 40 0 c 0
EndSplineSet
Validated: 1
EndChar

StartChar: quotedbl
Encoding: 34 34 73
GlifName: quotedbl
Width: 448
Flags: W
HStem: 492 20G<246.961 298 397.961 448>
LayerCount: 2
Fore
SplineSet
151 0 m 1
 408 512 l 1
 448 512 l 1
 192 0 l 1
 151 0 l 1
0 0 m 1
 257 512 l 1
 298 512 l 1
 40 0 l 1
 0 0 l 1
EndSplineSet
Validated: 1
EndChar

StartChar: dollar
Encoding: 36 36 74
GlifName: dollar
Width: 448
VWidth: 0
Flags: W
HStem: 112 41<294.563 384.5> 167 20G<112.667 181> 425 20G<228 280>
VStem: 0 38<150.869 340> 0 30<-90.1348 51> 143 38<-340 -161.433> 151 30<-61 80.134> 228 52<140.254 445> 228 30<-104.393 99.1657> 370 78<-7.75718 100.089>
LayerCount: 2
Fore
SplineSet
0 340 m 1xf040
 38 340 l 1
 38 168 l 2
 38 158 50 148 58 151 c 2
 181 187 l 1xf240
 181 -340 l 1
 143 -340 l 1
 143 -179 l 2
 143 -170 131 -158 119 -162 c 2
 0 -197 l 1xec40
 0 340 l 1xf040
30 51 m 1xea40
 30 -75 l 2
 30 -88 41 -93 50 -90 c 2
 151 -61 l 1
 151 66 l 2
 151 77 139 83 130 80 c 2
 30 51 l 1xea40
228 445 m 1xe140
 280 445 l 1
 280 157 l 2xe140
 280 149 296 137 308 141 c 0
 327 149 345 153 361 153 c 0
 408 153 448 117 448 62 c 0
 448 -25 355 -80 291 -132 c 2
 244 -170 l 2
 230 -181 228 -182 228 -162 c 2
 228 81 l 1
 228 101 l 1xe0c0
 228 445 l 1xe140
316 112 m 0
 294 112 274 103 258 88 c 1
 258 -90 l 2xe0c0
 258 -103 275.115234375 -107.16796875 281 -103 c 0
 332.80078125 -66.3076171875 370 -29 370 31 c 0
 370 89 348 112 316 112 c 0
EndSplineSet
Validated: 33
EndChar

StartChar: quotesingle
Encoding: 39 39 75
GlifName: quotesingle
Width: 110
Flags: W
VStem: -110 110<-226.743 -64.2712>
LayerCount: 2
Fore
SplineSet
-55 -239 m 0
 -79 -239 -110 -225 -110 -171 c 0
 -110 -148 -96 -85 -68 5 c 0
 -61 26 -58 34 -55 34 c 0
 -52 34 -49 27 -41 4 c 0
 -11 -85 0 -146 0 -171 c 0
 0 -224 -33 -239 -55 -239 c 0
EndSplineSet
EndChar

StartChar: asterisk
Encoding: 42 42 76
GlifName: asterisk
Width: 440
Flags: W
HStem: 158 80<4.20706 89.1531 350.812 435.793> 182 32<66.0749 150.974 290.668 373.456> 398 20G<209 231.5>
VStem: 180 80<-17.607 66.5542 331.106 413.607> 205 30<46.699 128.137 266.373 348.454>
LayerCount: 2
Fore
SplineSet
220 242 m 0x20
 197 242 176 221 176 198 c 0
 176 175 197 154 220 154 c 0
 244 154 264 175 264 198 c 0
 264 221 244 242 220 242 c 0x20
220 -22 m 0
 198 -22 180 -4 180 18 c 0x70
 180 46 205 54 205 83 c 0
 205 103 l 0
 205 136 182 138 164 120 c 0
 151 107 l 0
 132 88 142 64 121 43 c 0
 105 27 81 27 65 43 c 0
 49 59 49 83 65 99 c 0
 85 119 110 110 128 128 c 0
 141 141 l 0
 160 160 155 182 124 182 c 0
 104 182 l 0x68
 73 182 70 158 40 158 c 0
 17 158 0 175 0 198 c 0
 0 221 17 238 40 238 c 0xa8
 68 238 76 214 103 214 c 0
 125 214 l 0
 159 214 155 241 141 255 c 0
 128 268 l 0
 107 289 84 278 65 297 c 0
 49 313 49 337 65 353 c 0
 81 369 105 369 121 353 c 0
 139 335 129 311 150 290 c 0
 164 276 l 0
 184 256 205 259 205 297 c 0
 205 316 l 0x68
 205 340 180 351 180 378 c 0
 180 400 198 418 220 418 c 0
 243 418 260 400 260 378 c 0x70
 260 348 235 343 235 316 c 0
 235 297 l 0
 235 265 256 256 276 276 c 0
 289 289 l 0
 309 309 300 334 319 353 c 0
 335 369 359 369 375 353 c 0
 391 337 391 313 375 297 c 0
 355 277 328 284 310 266 c 0
 299 255 l 0
 284 240 287 214 315 214 c 0
 337 214 l 0x68
 365 214 372 238 400 238 c 0
 423 238 440 221 440 198 c 0
 440 175 423 158 400 158 c 0xa8
 370 158 366 182 336 182 c 0
 316 182 l 0
 290 182 280 160 299 141 c 0
 312 128 l 0
 333 107 355 119 375 99 c 0
 391 83 391 59 375 43 c 0
 359 27 335 27 319 43 c 0
 298 64 311 85 288 108 c 0
 276 120 l 0
 257 139 235 127 235 103 c 0
 235 83 l 0x68
 235 54 260 46 260 18 c 0x70
 260 -4 243 -22 220 -22 c 0
EndSplineSet
EndChar

StartChar: hyphen
Encoding: 45 45 77
GlifName: hyphen
Width: 300
Flags: W
HStem: -33 66<0 300>
LayerCount: 2
Fore
SplineSet
0 33 m 0
 300 33 l 0
 300 -33 l 0
 0 -33 l 0
 0 33 l 0
EndSplineSet
Validated: 1
EndChar

StartChar: at
Encoding: 64 64 78
GlifName: at
Width: 0
VWidth: 0
Flags: W
HStem: 185 20G<102 170>
LayerCount: 2
Fore
SplineSet
-170 105 m 1
 170 205 l 1
 170 91 l 1
 -170 -9 l 1
 -170 105 l 1
-170 -91 m 1
 170 9 l 1
 170 -105 l 1
 -170 -205 l 1
 -170 -91 l 1
EndSplineSet
EndChar

StartChar: A
Encoding: 65 65 79
GlifName: A_
Width: 533
Flags: W
HStem: 133 20G<304.5 344> 433 57G<92 132 179 236 401 441>
VStem: 0 35<-8.38977 262.224> 179 57<139.004 490> 179 30<-103.182 95.5639> 498 35<-12.2241 258.39>
LayerCount: 2
Fore
SplineSet
498 125 m 0xe4
 498 269 446 369 401 437 c 0
 418 453 l 0
 464 398 533 288 533 125 c 0
 534 -38 464 -148 418 -203 c 0
 401 -187 l 0
 446 -119 499 -19 498 125 c 0xe4
35 125 m 0
 35 -19 87 -119 132 -187 c 0
 115 -203 l 0
 69 -148 0 -38 0 125 c 0
 -1 288 69 398 115 453 c 0
 132 437 l 0
 87 369 34 269 35 125 c 0
215 88 m 0
 211 84 209 79 209 73 c 0
 209 -96 l 0xec
 209 -104 222 -107 228 -103 c 0
 288 -61 334 -25 320 56 c 0
 309 124 249 123 215 88 c 0
179 490 m 0xf4
 236 490 l 0
 236 152 l 0xf4
 236 144 247 139 254 139 c 0
 260 139 290 153 319 153 c 0
 369 153 409 119 409 60 c 0
 409 -27 313 -77 242 -135 c 0
 189 -178 l 0
 180 -185 179 -184 179 -171 c 0xec
 179 490 l 0xf4
EndSplineSet
Validated: 33
EndChar

StartChar: B
Encoding: 66 66 80
GlifName: B_
Width: 703
Flags: W
HStem: -507 28<406.954 517.153> -194 21G<325.5 362> -85 32<413.407 528.94> 53 32<413.334 530.445> 174 20G<325.5 362> 479 28<406.954 516.717> 480 20G<10 124 187 220>
VStem: 10 114<-500 500> 187 33<-500 -29.7751 29.7275 500> 281 123<-466.5 -352 352 466.5> 330 24<-194 -160.584 160.67 194> 586 117<-379.538 -175.829 175.829 379.538>
LayerCount: 2
Fore
SplineSet
469 -85 m 0xfdd0
 403 -85 370 -133 354 -194 c 0
 330 -194 l 0
 321 -136 288 -68 237 -30 c 0
 231 -25 220 -33 220 -40 c 0
 220 -500 l 0
 187 -500 l 0
 187 500 l 0
 220 500 l 0
 220 38 l 0
 220 30 230 24 238 30 c 0
 289 69 321 136 330 194 c 0
 354 194 l 0xfbb0
 370 133 403 85 469 85 c 0
 569 85 586 161 586 292 c 0
 585 429 543 479 451 479 c 0
 430 479 404 475 404 458 c 0
 404 434 449 422 449 370 c 0
 449 324 411 291 365 291 c 0
 319 291 281 329 281 375 c 0
 281 449 359 507 464 507 c 0
 611 507 703 410 703 279 c 0
 703 139 604 53 485 53 c 0
 453 53 425 61 401 75 c 0
 393 80 381 75 377 69 c 0
 364 51 347 31 335 15 c 0
 326 5 330 -7 335 -12 c 0
 350 -27 366 -48 377 -67 c 0
 380 -72 396 -78 405 -73 c 0
 428 -60 455 -53 485 -53 c 0
 604 -53 703 -139 703 -279 c 0
 703 -410 611 -507 464 -507 c 0
 359 -507 281 -449 281 -375 c 0
 281 -329 319 -291 365 -291 c 0
 411 -291 449 -324 449 -370 c 0
 449 -422 404 -434 404 -458 c 0
 404 -475 430 -479 451 -479 c 0
 545 -479 585 -429 586 -292 c 0
 586 -161 562 -85 469 -85 c 0xfdd0
10 -500 m 0
 10 500 l 0
 124 500 l 0
 124 -500 l 0
 10 -500 l 0
EndSplineSet
Validated: 1
EndChar

StartChar: C
Encoding: 67 67 81
GlifName: C_
Width: 416
VWidth: 774
Flags: W
HStem: -255 37<174.769 303.289> 44 137<298.616 349> 222 33<184.705 315.914>
VStem: 0 118<-106.733 112.311> 280 136<63.0921 163.453> 383 30<-120.122 -69.5333>
LayerCount: 2
Fore
SplineSet
313 207 m 0xf8
 296 216 275 222 251 222 c 0
 243 222 235 222 228 221 c 1
 228 -217 l 1
 233 -218 238 -218 243 -218 c 0
 310 -218 372 -155 383 -68 c 1
 413 -70 l 1xf4
 403 -157 343 -251 228 -255 c 1
 228 -400 l 1
 196 -400 l 1
 196 -253 l 1
 89 -240 -0 -135 0 0 c 0
 0 132 78 234 196 252 c 5
 196 400 l 1
 228 400 l 1
 228 255 l 2
 230 255 233 255 235 255 c 0
 342 255 415 180 416 113 c 0
 416 75 386 44 348 44 c 0
 310 44 280 75 280 113 c 0
 280 137 291 158 311 171 c 0
 324 179 327 200 313 207 c 0xf8
174 200 m 0
 139 173 118 118 118 18 c 2
 118 -22 l 2
 118 -113 133 -165 162 -192 c 0
 172 -201 196 -188 196 -177 c 2
 196 192 l 2
 196 200 182 206 174 200 c 0
EndSplineSet
Validated: 33
EndChar

StartChar: E
Encoding: 69 69 82
GlifName: E_
Width: 326
Flags: W
HStem: 121 20G<199.5 239.5>
VStem: 0 26<-850 -790.368 -594.688 -123.911> 241 34<-431.585 -197.373>
LayerCount: 2
Fore
SplineSet
42 -595 m 0
 69 -595 95 -588 125 -569 c 0
 198 -521 241 -437 241 -321 c 0
 241 -241 220 -172 197 -120 c 0
 168 -133 135 -141 105 -141 c 0
 80 -141 57 -136 39 -124 c 0
 35 -122 26 -126 26 -129 c 0
 26 -582 l 0
 26 -588 33 -595 42 -595 c 0
326 50 m 0
 326 -9 276 -71 225 -105 c 0
 246 -147 275 -228 275 -320 c 0
 275 -535 145 -637 73 -728 c 0
 40 -769 27 -818 27 -850 c 0
 0 -850 l 0
 0 -49 l 0
 1 7 46 68 95 101 c 0
 130 125 178 141 221 141 c 0
 258 141 292 130 311 100 c 0
 322 85 326 68 326 50 c 0
EndSplineSet
EndChar

StartChar: F
Encoding: 70 70 83
GlifName: F_
Width: 831
Flags: W
HStem: -161 28<430.308 487.727> 0 35<420.898 473.969> 181 21G<9 14> 229 33<530.73 610.457 724.829 803.611> 235 35<44.5759 99.3856 194.14 249.075 339.872 395.469> 418 28<784.044 844.692>
VStem: 360 60<35.3688 123.008> 364 66<-132.484 -66.1934> 397 63<137.07 234.278> 845 66<351.193 417.484>
LayerCount: 2
Fore
SplineSet
449 -133 m 0xf540
 514 -133 544.019 -46.5312 596 151 c 0
 606 189 l 0
 615 223 615 229 591 229 c 0
 539 229 l 0
 527 229 524 230 530 248 c 0
 534 262 536 262 551 262 c 0
 602 262 l 0
 625 262 629 266 637 286 c 0
 681 391 744 446 824 446 c 0
 868 446 911 414 911 373 c 0
 911 345 891 320 860 320 c 0
 832 320 818 341 818 360 c 0
 818 394 845 397 845 408 c 0
 845 415 834 418 825 418 c 0
 778 418 755 382 726 287 c 0
 719 265 724 262 744 262 c 0
 794 262 l 0
 804 262 809 260 804 246 c 0
 798 229 794 229 784 229 c 0
 732 229 l 0
 711 229 707 224 701 199 c 0
 678 113 l 0
 633.731 -52.527 553 -161 451 -161 c 0
 407 -161 364 -129 364 -88 c 0
 364 -60 384 -35 415 -35 c 0
 443 -35 457 -56 457 -75 c 0
 457 -109 430 -112 430 -123 c 0
 430 -130 440 -133 449 -133 c 0xf540
505 89 m 0
 512 89 527 81 527 76 c 0
 527 74 525 71 523 67 c 0
 504 37 472 0 426 0 c 0
 380 0 360 34 360 73 c 0xee40
 360 90 363 107 370 124 c 0
 391 177 l 0
 394.147 184.943 397 198 397 209 c 0
 397 223 392 235 376 235 c 0
 356 235 335 217 319 193 c 0
 312 182 309 165 303 146 c 0
 263 12 l 0
 260 3 259.092 0 253 0 c 0
 241.365 0 239 7 224 7 c 0
 208 7 205.395 0 193 0 c 0
 190 0 189 2 189 5 c 0
 189 7 190 11 191 15 c 0
 243 177 l 0
 246 186 250 199 250 211 c 0
 250 224 245 235 230 235 c 0
 195 235 164 186 153 146 c 0
 113 12 l 0
 110 3 109.092 0 103 0 c 0
 91.3652 0 89 7 74 7 c 0
 58 7 55.3945 0 43 0 c 0
 40 0 39 2 39 5 c 0
 39 7 40 11 41 15 c 0
 93 177 l 0
 96 186 100 199 100 211 c 0
 100 224 95 235 80 235 c 0
 59 235 40 217 23 190 c 0
 19 184 16 181 12 181 c 0
 6 181 -8 188 -8 194 c 0
 -8 197 -7 200 -5 204 c 0
 14 234 46 270 92 270 c 0
 115 270 132 262 143 249 c 0
 151 240 155 234 162 234 c 0
 165 234 169 236 175 241 c 0
 194 258 216 270 242 270 c 0
 263 270 279 263 290 252 c 0
 298 243 303 236 310 236 c 0
 313 236 317 238 323 243 c 0
 341 259 363 270 388 270 c 0
 437 270 460 234 460 192 c 0xecc0
 460 177 456.951 161.019 451 146 c 0
 430 93 l 0xed40
 426 83 420 67 420 54 c 0xee40
 420 43 425 35 438 35 c 0
 460 35 481 54 497 83 c 0
 499 87 501 89 505 89 c 0
EndSplineSet
Validated: 33
EndChar

StartChar: H
Encoding: 72 72 84
GlifName: H_
Width: 354
Flags: W
HStem: -133 26<-325.897 -247.751> 107 39<-122.27 -35.0989>
VStem: -354 26<-850 -133.829 -102.834 -45.052> -23 23<50.348 100.079>
LayerCount: 2
Fore
SplineSet
-331 -78 m 0
 -331 -97 -315 -107 -297 -107 c 0
 -264 -107 -211 -80 -151 -42 c 0
 -77 3 -23 46 -23 78 c 0
 -23 97 -39 107 -57 107 c 0
 -90 107 -143 80 -203 42 c 0
 -277 -3 -331 -46 -331 -78 c 0
-328 -850 m 0
 -354 -850 l 0
 -354 -62 l 0
 -354 -1 -302 79 -247 113 c 0
 -214 134 -164 146 -118 146 c 0
 -56 146 0 125 0 62 c 0
 0 1 -52 -79 -107 -113 c 0
 -140 -134 -190 -146 -236 -146 c 0
 -263 -146 -288 -142 -308 -133 c 0
 -316 -129 -328 -135 -328 -143 c 0
 -328 -850 l 0
EndSplineSet
EndChar

StartChar: I
Encoding: 73 73 85
GlifName: I_
Width: 196
Flags: W
HStem: 134 20G<171 196>
VStem: 42 28<-264 -146.668 -68.0879 45.0872 122.912 244> 126 28<-244 -122.912 -45.0872 68.0879 146.668 264>
LayerCount: 2
Fore
SplineSet
69 -56 m 0
 69 -64 79 -70 87 -68 c 0
 116 -60 l 0
 122 -58 127 -52 127 -44 c 0
 127 56 l 0
 127 64 117 70 109 68 c 0
 80 60 l 0
 74 58 69 52 69 44 c 0
 69 -56 l 0
43 32 m 0
 43 40 35 47 28 45 c 0
 0 37 l 0
 0 98 l 0
 24 104 l 0
 37 108 42 116 42 128 c 0
 42 244 l 0
 70 244 l 0
 70 135 l 0
 70 127 80 121 87 123 c 0
 113 130 l 0
 123 133 126 138 126 146 c 0
 126 264 l 0
 154 264 l 0
 154 160 l 0
 154 152 164 145 171 147 c 0
 196 154 l 0
 196 93 l 0
 165 84 l 0
 158 83 153 78 153 70 c 0
 153 -32 l 0
 153 -40 161 -47 168 -45 c 0
 196 -37 l 0
 196 -98 l 0
 172 -104 l 0
 159 -108 154 -116 154 -128 c 0
 154 -244 l 0
 126 -244 l 0
 126 -135 l 0
 126 -127 116 -121 109 -123 c 0
 83 -130 l 0
 73 -133 70 -138 70 -146 c 0
 70 -264 l 0
 42 -264 l 0
 42 -160 l 0
 42 -152 32 -145 25 -147 c 0
 0 -154 l 0
 0 -93 l 0
 31 -84 l 0
 38 -83 43 -78 43 -70 c 0
 43 32 l 0
EndSplineSet
EndChar

StartChar: J
Encoding: 74 74 86
GlifName: J_
Width: 275
Flags: W
HStem: 680 20G<189 226.5>
VStem: 0 26<-62 -0.354767 193.124 206> 241 34<356.415 590.534>
LayerCount: 2
Fore
SplineSet
41 193 m 4
 68 193 95 200 125 219 c 0
 198 267 241 351 241 467 c 0
 241 556 215 633 189 686 c 1
 217 700 l 1
 236 665 275 574 275 468 c 0
 275 253 145 151 73 60 c 0
 40 19 26 -30 26 -62 c 1
 0 -62 l 1
 0 206 l 0
 25 206 l 4
 25 200 32 193 41 193 c 4
EndSplineSet
Validated: 1
EndChar

StartChar: K
Encoding: 75 75 87
GlifName: K_
Width: 275
Flags: W
HStem: -120 21G<0 27>
VStem: 0 27<-120 -108.207 40.8781 88> 242 33<-398.246 -233.803>
LayerCount: 2
Fore
SplineSet
0 88 m 1
 26 88 l 17
 26 40 63 1 126 -49 c 0
 205 -112 275 -198 275 -316 c 0
 275 -371 258 -412 245 -435 c 1
 221 -410 l 1
 231 -386 242 -354 242 -315 c 0
 242 -242 207 -168 121 -127 c 0
 98 -116 67 -108 42 -108 c 0
 33 -108 26 -114 26 -120 c 0
 26 -120 11 -120 0 -120 c 25
 0 88 l 1
EndSplineSet
Validated: 1
EndChar

StartChar: L
Encoding: 76 76 88
GlifName: L_
Width: 304
Flags: W
HStem: -152 40<90.4229 213.111> 112 40<90.8888 213.577>
VStem: 0 40<-61.1112 61.5771> 264 40<-61.5771 61.1112>
LayerCount: 2
Fore
SplineSet
0 0 m 0
 0 86 72 152 152 152 c 0
 238 152 304 80 304 0 c 0
 304 -86 232 -152 152 -152 c 0
 66 -152 0 -80 0 0 c 0
40 0 m 0
 40 -59 89 -112 152 -112 c 0
 211 -112 264 -63 264 0 c 0
 264 59 215 112 152 112 c 0
 93 112 40 63 40 0 c 0
EndSplineSet
EndChar

StartChar: M
Encoding: 77 77 89
GlifName: M_
Width: 586
Flags: W
HStem: -66 61<239.441 272.223> 8 56<314.038 345.031> 111 20G<144 151 388 394.5>
VStem: 276 35<-199.998 -66.008 64.0073 199.999>
LayerCount: 2
Fore
SplineSet
21 -52 m 0
 15 -52 4 -35 4 -28 c 0
 4 -23 7 -18 14 -11 c 0
 119 107 l 0
 133 123 141 131 147 131 c 0
 155 131 161 120 175 98 c 0
 224 20 l 0
 235 3 243 -5 251 -5 c 0
 270 -5 277 24 277 55 c 0
 277 100 276 128 276 183 c 0
 276 202 280 200 298 200 c 0
 309 200 311 199 311 181 c 0
 311 89 l 0
 311 74 313 64 318 64 c 0
 323 64 330 69 338 78 c 0
 363 106 l 0
 377 123 385 132 391 132 c 0
 398 132 404 123 417 103 c 0
 471 17 l 0
 482 1 488 -8 496 -8 c 0
 504 -8 514 2 533 22 c 0
 553 44 l 0
 558 50 562 53 565 53 c 0
 571 53 581 36 581 28 c 0
 581 23 578 17 571 9 c 0
 475 -98 l 0
 457 -118 448 -130 440 -130 c 0
 432 -130 425 -119 410 -96 c 0
 362 -21 l 0
 350 -2 343 8 335 8 c 0
 317 8 310 -18 310 -47 c 0
 310 -97 311 -140 311 -182 c 0
 311 -197 308 -200 295 -200 c 0
 279 -200 276 -200 276 -183 c 0
 276 -94 l 0
 277 -77 273 -66 266 -66 c 0
 261 -66 255 -70 248 -78 c 0
 225 -104 l 0
 209 -122 202 -131 195 -131 c 0
 187 -131 181 -121 168 -100 c 0
 115 -18 l 0
 104 -1 98 8 90 8 c 0
 82 8 73 0 58 -17 c 0
 36 -42 l 0
 29 -49 25 -52 21 -52 c 0
EndSplineSet
EndChar

StartChar: N
Encoding: 78 78 90
GlifName: N_
Width: 582
Flags: W
VStem: 0 37<-148.609 163.94> 196 42<-93.1319 71.6562 158.912 380> 344 42<-380 -158.914 -71.9062 94.1333> 545 37<-163.192 149.397>
LayerCount: 2
Fore
SplineSet
582 -4 m 0
 583 -192 509 -335 454 -401 c 0
 436 -383 l 0
 491 -295 546 -190 545 -4 c 0
 545 180 491 285 436 373 c 0
 454 391 l 0
 509 325 582 182 582 -4 c 0
0 5 m 0
 -1 193 73 335 128 401 c 0
 146 383 l 0
 91 295 36 191 37 5 c 0
 37 -179 91 -285 146 -373 c 0
 128 -391 l 0
 73 -325 0 -181 0 5 c 0
196 380 m 0
 238 380 l 0
 238 172 l 0
 238 163 249 157 257 159 c 0
 386 199 l 0
 386 -380 l 0
 344 -380 l 0
 344 -172 l 0
 344 -165 334 -157 326 -159 c 0
 196 -199 l 0
 196 380 l 0
350 83 m 0
 350 90 339 97 331 94 c 0
 246 68 l 0
 240 66 232 59 232 52 c 0
 232 -80 l 0
 232 -87 242 -96 253 -93 c 0
 336 -68 l 0
 345 -65 350 -59 350 -49 c 0
 350 83 l 0
EndSplineSet
Validated: 33
EndChar

StartChar: O
Encoding: 79 79 91
GlifName: O_
Width: 280
Flags: W
HStem: -120 55<124.146 171.771> 62 55<106.412 157.226>
VStem: 0 66<-12.2533 27.2151> 212 68<-27.7492 11.7624>
LayerCount: 2
Fore
SplineSet
171 97 m 0
 198 68 230 44 261 20 c 0
 275 9 280 2 280 -4 c 0
 280 -10 275 -15 266 -22 c 0
 162 -106 l 0
 151 -115 145 -120 138 -120 c 0
 132 -120 124 -115 112 -102 c 0
 85 -73 53 -48 21 -23 c 0
 7 -12 0 -4 0 2 c 0
 0 9 6 15 16 23 c 0
 116 103 l 0
 127 112 135 117 142 117 c 0
 150 117 158 111 171 97 c 0
78 -4 m 0
 134 -52 l 0
 144 -61 151 -65 157 -65 c 0
 163 -65 168 -62 174 -57 c 0
 197 -38 l 0
 207 -29 212 -23 212 -16 c 0
 212 -10 208 -3 197 6 c 0
 146 50 l 0
 137 58 130 62 124 62 c 0
 118 62 112 58 104 53 c 0
 81 34 l 0
 72 26 66 20 66 14 c 0
 66 9 70 3 78 -4 c 0
EndSplineSet
EndChar

StartChar: P
Encoding: 80 80 92
GlifName: P_
Width: 921
Flags: W
HStem: -194 21G<521 528 595 603> -26 33<704.369 770.232> -6 35<418.898 469.964> 181 21G<9 14> 235 35<44.5759 99.3856 194.14 249.075 339.872 395.469 587.159 641.045 767.758 828.13>
VStem: 358 60<29.3687 117.312> 397 63<136.609 234.278> 642 51<68 211> 837 84<96.3483 228.268>
LayerCount: 2
Fore
SplineSet
634 270 m 0xbd80
 663 270 684 259 698 242 c 0
 706 232 713 225 722 225 c 0
 727 225 732 228 738 233 c 0
 763 254 791 266 819 266 c 0
 877 266 921 224 921 161 c 0
 921 59 832 -26 754 -26 c 0xdd80
 734 -26 715 -22 700 -13 c 0
 693 -9 685 -6 679 -6 c 0
 670 -6 663 -10 660 -21 c 0
 612 -182 l 0
 609 -192 606 -194 600 -194 c 0
 590 -194 582 -181 561 -181 c 0
 541 -181 533 -194 523 -194 c 0
 519 -194 517 -192 517 -189 c 0
 517 -187 518 -184 519 -181 c 0
 635 177 l 0
 638 186 642 199 642 211 c 0
 642 224 637 235 622 235 c 0
 581 235 556 176 534 108 c 0
 517 54 488 -6 424 -6 c 0
 378 -6 358 28 358 67 c 0xbd80
 358 84 361 101 368 118 c 0
 391 177 l 0
 394 185 397 198 397 209 c 0
 397 223 392 235 376 235 c 0
 356 235 335 217 319 193 c 0
 312 182 309 165 303 146 c 0
 263 12 l 0
 260 3 259 0 253 0 c 0
 241 0 239 7 224 7 c 0
 208 7 205 0 193 0 c 0
 190 0 189 2 189 5 c 0
 189 7 190 11 191 15 c 0
 243 177 l 0
 246 186 250 199 250 211 c 0
 250 224 245 235 230 235 c 0
 195 235 164 186 153 146 c 0
 113 12 l 0
 110 3 109 0 103 0 c 0
 91 0 89 7 74 7 c 0
 58 7 55 0 43 0 c 0
 40 0 39 2 39 5 c 0
 39 7 40 11 41 15 c 0
 93 177 l 0
 96 186 100 199 100 211 c 0
 100 224 95 235 80 235 c 0
 59 235 40 217 23 190 c 0
 19 184 16 181 12 181 c 0
 6 181 -8 188 -8 194 c 0
 -8 197 -7 200 -5 204 c 0
 14 234 46 270 92 270 c 0
 115 270 132 262 143 249 c 0
 151 240 155 234 162 234 c 0
 165 234 169 236 175 241 c 0
 194 258 216 270 242 270 c 0
 263 270 279 263 290 252 c 0
 298 243 303 236 310 236 c 0
 313 236 317 238 323 243 c 0
 341 259 363 270 388 270 c 0
 437 270 460 234 460 192 c 0xdb80
 460 177 457 161 451 146 c 0
 428 87 l 0
 424 77 418 61 418 48 c 0
 418 37 423 29 436 29 c 0
 473 29 493 79 505 119 c 0
 528 193 565 270 634 270 c 0xbd80
693 68 m 0
 693 32 708 7 734 7 c 0
 778 7 810 66 830 143 c 0
 835 160 837 175 837 187 c 0
 837 220 820 232 803 232 c 0
 750 232 693 139 693 68 c 0
EndSplineSet
Validated: 1
EndChar

StartChar: Q
Encoding: 81 81 93
GlifName: Q_
Width: 326
Flags: W
HStem: 121 20G<-126.5 -86.5>
VStem: -326 26<-850 -123.911>
LayerCount: 2
Fore
SplineSet
-95 -101 m 0
 -130 -125 -178 -141 -221 -141 c 0
 -246 -141 -269 -136 -287 -124 c 0
 -291 -122 -300 -126 -300 -129 c 0
 -300 -850 l 0
 -326 -850 l 0
 -326 -50 l 0
 -326 -49 l 0
 -325 7 -280 68 -231 101 c 0
 -196 125 -148 141 -105 141 c 0
 -68 141 -34 130 -15 100 c 0
 -4 85 0 68 0 50 c 0
 0 -6 -46 -68 -95 -101 c 0
EndSplineSet
EndChar

StartChar: R
Encoding: 82 82 94
GlifName: R_
Width: 275
Flags: W
HStem: 99 21G<0 27>
VStem: 0 27<108 120 -88 -41> 242 33<234 398>
LayerCount: 2
Fore
SplineSet
242 571 m 0
 242 658 214 730 198 767 c 1
 227 778 l 1
 244 748 275 659 275 572 c 0
 275 515 267 466 251 423 c 1
 263 399 275 362 275 316 c 0
 275 198 205 112 126 49 c 0
 63 -1 26 -40 26 -88 c 1
 0 -88 l 1
 0 335 l 1
 25 335 l 1
 25 329 32 322 41 322 c 0
 171 322 242 448 242 571 c 0
26 120 m 0
 26 114 33 108 42 108 c 0
 67 108 98 116 121 127 c 0
 207 168 242 242 242 315 c 0
 242 339 238 361 232 380 c 1
 207 334 172 294 126 259 c 0
 68 214 26 165 26 120 c 0
EndSplineSet
Validated: 1
EndChar

StartChar: S
Encoding: 83 83 95
GlifName: S_
Width: 574
Flags: W
HStem: -161 28<173.308 230.731> -9 28<64.7995 146.811> 81 20G<26.5 47.5> 170 21G<188.5 209> 229 33<273.73 353.457 467.829 546.611> 246 26<96.3774 172.103> 418 28<527.044 587.692>
VStem: 0 72<19.4124 97.5077> 41 47<183.888 240.078> 107 66<-132.484 -66.1934> 158 52<25.5635 86.7802> 165 70<172.906 244.866> 588 66<351.193 417.484>
LayerCount: 2
Fore
SplineSet
135 246 m 0xf698
 108 246 88 234 88 216 c 0xf698
 88 168 210 158 210 79 c 0
 210 26 164 -9 104 -9 c 0
 44 -9 0 24 0 59 c 0
 0 84 16 101 37 101 c 0
 58 101 72 87 72 67 c 0
 72 57 70 51 66 43 c 0
 56 25 76 19 105 19 c 0
 140 19 158 36 158 57 c 0xf728
 158 106 41 101 41 188 c 0
 41 234 86 272 139 272 c 0
 195 272 235 241 235 206 c 0
 235 185 218 170 200 170 c 0
 177 170 165 187 165 203 c 0
 165 211 167 219 171 224 c 0
 183 242 157 246 135 246 c 0xf698
192 -133 m 0
 257 -133 287 -47 339 151 c 0
 349 189 l 0
 358 223 358 229 334 229 c 0
 282 229 l 0
 270 229 267 230 273 248 c 0
 277 262 279 262 294 262 c 0
 345 262 l 0
 368 262 372 266 380 286 c 0
 424 391 487 446 567 446 c 0
 611 446 654 414 654 373 c 0
 654 345 634 320 603 320 c 0
 575 320 561 341 561 360 c 0
 561 394 588 397 588 408 c 0
 588 415 577 418 568 418 c 0
 521 418 498 382 469 287 c 0
 462 265 467 262 487 262 c 0
 537 262 l 0xfa48
 547 262 552 260 547 246 c 0xf648
 541 229 537 229 527 229 c 0
 475 229 l 0
 454 229 450 224 444 199 c 0
 421 113 l 0
 377 -53 296 -161 194 -161 c 0
 150 -161 107 -129 107 -88 c 0xfa48
 107 -60 127 -35 158 -35 c 0xfa28
 186 -35 200 -56 200 -75 c 0
 200 -109 173 -112 173 -123 c 0xfa48
 173 -130 183 -133 192 -133 c 0
EndSplineSet
Validated: 33
EndChar

StartChar: T
Encoding: 84 84 96
GlifName: T_
Width: 560
Flags: W
HStem: -134 58<49.9959 133.5 396.709 499.778> 80 54<60.222 158.54 426.5 510.004>
VStem: 0 32<-59.4597 45.9837> 528 32<-45.9837 59.4597>
CounterMasks: 1 38
LayerCount: 2
Fore
SplineSet
0 -3 m 0
 0 67 54 134 128 134 c 0
 168 134 198 119 235 85 c 0
 377 -39 l 0
 397 -55 424 -80 452 -80 c 0
 489 -80 528 -48 528 4 c 0
 528 33 516 76 481 76 c 0
 457 76 455 44 423 44 c 0
 398 44 383 60 383 84 c 0
 383 112 407 134 446 134 c 0
 514 134 560 74 560 3 c 0
 560 -67 506 -134 432 -134 c 0
 392 -134 362 -119 325 -85 c 0
 183 39 l 0
 163 55 136 80 108 80 c 0
 71 80 32 48 32 -4 c 0
 32 -33 44 -76 79 -76 c 0
 103 -76 105 -44 137 -44 c 0
 162 -44 177 -60 177 -84 c 0
 177 -112 153 -134 114 -134 c 0
 46 -134 0 -74 0 -3 c 0
EndSplineSet
EndChar

StartChar: U
Encoding: 85 85 97
GlifName: U_
Width: 706
Flags: W
HStem: -50 138<303.092 402.908> 241 142<240.808 465.192>
VStem: 0 29<-51 47.1094> 284 138<-30.9079 68.9079> 677 29<-51 47.1094>
CounterMasks: 1 38
LayerCount: 2
Fore
SplineSet
677 -51 m 0
 677 89 603 241 353 241 c 0
 103 241 29 89 29 -51 c 0
 0 -51 l 0
 0 189 143 383 353 383 c 0
 563 383 706 189 706 -51 c 0
 677 -51 l 0
284 19 m 0
 284 57 315 88 353 88 c 0
 391 88 422 57 422 19 c 0
 422 -19 391 -50 353 -50 c 0
 315 -50 284 -19 284 19 c 0
EndSplineSet
EndChar

StartChar: V
Encoding: 86 86 98
GlifName: V_
Width: 709
Flags: W
HStem: -943 16<318.664 377.591> -703 47<313.245 392.756> -270 31<262.31 459.765> 149 130<425 536.453>
VStem: 0 69<-44.5643 155.107> 113 141<-629.5 -476.5> 189 68<-41.2767 83.8953> 261 31<-910.531 -840.7> 272 39<-768.006 -710.072> 397 41<-914.886 -851.047> 398 28<-779.288 -714.046> 510 34<-554.299 -349.033> 551 37<884.057 1050.29> 634 75<-91.8816 66.8908>
LayerCount: 2
Fore
SplineSet
634 -26 m 0xf81c
 634 78 572 149 458 149 c 0
 448 149 l 0
 435 149 425 146 425 135 c 0
 425 131 l 0
 497 -203 l 0
 498 -209 503 -213 508 -213 c 0
 509 -213 511 -213 512 -212 c 0
 585 -175 634 -131 634 -26 c 0xf81c
367 -239 m 0
 395 -239 464 -239 464 -216 c 0
 464 -213 l 0
 392 127 l 0
 391 132 383 139 375 139 c 0
 373 139 l 0
 289 121 257 70 257 13 c 0
 257 -39 281 -78 310 -121 c 0
 312 -124 313 -126 313 -127 c 0
 313 -129 312 -130 310 -130 c 0
 308 -130 306 -129 303 -128 c 0
 237 -102 189 -32 189 51 c 0xfa1c
 189 152 261 237 350 266 c 0
 357 268 360 271 360 277 c 0
 360 278 359 280 359 282 c 0
 330 415 l 0
 329 422 322 425 316 425 c 0
 311 425 307 423 303 420 c 0
 195 323 69 214 69 36 c 0
 69 -138 200 -239 367 -239 c 0
347 636 m 0
 433 714 551 838 551 978 c 0
 551 1024 539 1061 520 1100 c 0
 517 1108 508 1112 499 1112 c 0
 496 1112 494 1112 491 1111 c 0
 408 1079 296 960 296 791 c 0
 296 746 302 707 314 656 c 0
 318 640 l 0
 319 632 325 630 330 630 c 0
 336 630 343 632 347 636 c 0
231 -385 m 0
 296 -385 350 -436 350 -503 c 0
 350 -558 312 -607 259 -619 c 0
 256 -620 254 -623 254 -627 c 0
 254 -632 257 -639 261 -641 c 0
 280 -650 294 -656 328 -656 c 0
 434 -656 510 -588 510 -469 c 0
 510 -412 493 -350 476 -271 c 0
 475 -263 469 -261 460 -261 c 0
 429 -267 402 -270 369 -270 c 0
 170 -270 0 -132 0 75 c 0
 0 289 149 449 286 577 c 0
 291 582 292 586 292 592 c 0
 292 597 l 0
 287 622 l 0
 280 654 249 776 249 857 c 0
 249 1065 391 1231 441 1264 c 0
 444 1266 446 1267 447 1267 c 0
 449 1267 450 1266 453 1264 c 0
 484 1236 588 1096 588 929 c 0
 588 741 493 585 365 470 c 0
 359 465 357 459 357 452 c 0
 357 450 357 449 358 447 c 0
 391 290 l 0
 394 280 400 279 409 279 c 0
 414 279 l 0
 426 279 l 0
 583 279 709 164 709 10 c 0
 709 -113 628 -199 521 -242 c 0
 516 -244 509 -252 509 -260 c 0
 509 -261 l 0
 526 -343 544 -412 544 -471 c 0
 544 -575 488 -652 408 -679 c 0
 403 -681 398 -697 403 -700 c 0
 418 -711 426 -726 426 -744 c 0xfd3c
 426 -765 415 -781 400 -793 c 0
 392 -799 396 -807 399 -810 c 0
 421 -825 438 -843 438 -870 c 0
 438 -910 394 -943 348 -943 c 0
 296 -943 261 -913 261 -880 c 0xf95c
 261 -854 276 -835 302 -821 c 0
 309 -817 306 -807 301 -803 c 0
 284 -790 272 -774 272 -751 c 0xf89c
 272 -733 282 -717 297 -705 c 0
 302 -702 297 -687 292 -686 c 0
 198 -669 113 -604 113 -509 c 0xfd1c
 113 -444 163 -385 231 -385 c 0
397 -889 m 0xf95c
 397 -857 364 -841 332 -823 c 0
 307 -834 292 -850 292 -876 c 0
 292 -900 314 -927 348 -927 c 0
 376 -927 397 -909 397 -889 c 0xf95c
311 -735 m 0xf8bc
 311 -761 339 -776 369 -792 c 0
 387 -781 398 -764 398 -746 c 0
 398 -722 381 -703 354 -703 c 0
 327 -703 311 -719 311 -735 c 0xf8bc
EndSplineSet
Validated: 1
EndChar

StartChar: W
Encoding: 87 87 99
GlifName: W_
Width: 649
Flags: W
HStem: -140 280<267 386>
VStem: 1 26<-250 250> 81 26<-250 -81.9997 78.527 250> 543 26<-250 -71.726 76.7693 250> 623 26<-250 250>
LayerCount: 2
Fore
SplineSet
623 250 m 1
 649 250 l 1
 649 -250 l 1
 623 -250 l 1
 623 250 l 1
1 250 m 1
 27 250 l 1
 27 -250 l 1
 1 -250 l 1
 1 250 l 1
410 52 m 1
 398 97 350 123 289 115 c 0
 205 105 211 43 226 -7 c 2
 240 -52 l 2
 252 -93 299 -123 361 -115 c 0
 444 -105 438 -43 424 4 c 2
 410 52 l 1
81 250 m 1
 107 250 l 1
 107 86 l 2
 107 74 121 71 132 81 c 0
 181 126 267 140 330 140 c 0
 393 140 482 126 526 77 c 0
 531 72 543 72 543 82 c 2
 543 250 l 1
 569 250 l 1
 569 -250 l 1
 543 -250 l 1
 543 -77 l 2
 543 -70 531 -66 526 -72 c 0
 480 -124 386 -140 320 -140 c 0
 259 -140 176 -127 130 -83 c 0
 123 -76 107 -66 107 -90 c 2
 107 -250 l 1
 81 -250 l 1
 81 250 l 1
EndSplineSet
Validated: 33
EndChar

StartChar: X
Encoding: 88 88 100
GlifName: X_
Width: 326
Flags: W
HStem: 121 20G<199.5 239.5>
VStem: 0 27<-850 -802.878 -653.793 -600.177 -444.92 -123.911> 242 33<-528.197 -385.735 -293.641 -102.041>
CounterMasks: 1 38
LayerCount: 2
Fore
SplineSet
231 -101 m 0
 196 -125 148 -141 105 -141 c 0
 80 -141 57 -136 39 -124 c 0
 35 -122 26 -126 26 -129 c 0
 26 -432 l 0
 26 -438 33 -445 42 -445 c 0
 171 -445 242 -318 242 -196 c 0
 242 -161 238 -129 231 -101 c 0
27 -642 m 0
 27 -648 34 -654 43 -654 c 0
 68 -654 98 -646 121 -635 c 0
 207 -594 242 -520 242 -447 c 0
 242 -424 238 -403 233 -385 c 0
 208 -432 172 -472 126 -508 c 0
 68 -553 27 -602 27 -642 c 0
0 -850 m 0
 0 -49 l 0
 1 7 46 68 95 101 c 0
 130 125 178 141 221 141 c 0
 258 141 292 130 311 100 c 0
 322 85 326 68 326 50 c 0
 326 5 296 -44 259 -78 c 0
 268 -113 275 -154 275 -195 c 0
 275 -251 267 -299 252 -341 c 0
 264 -365 275 -401 275 -446 c 0
 275 -564 205 -650 126 -713 c 0
 63 -763 27 -802 27 -850 c 0
 0 -850 l 0
EndSplineSet
EndChar

StartChar: Y
Encoding: 89 89 101
GlifName: Y_
Width: 396
Flags: W
HStem: -140 34<117.26 276.994> 101 34<34.279 361.704>
VStem: 0 34<-32.8833 100.653> 362 34<-30.1929 100.407>
CounterMasks: 1 38
LayerCount: 2
Fore
SplineSet
34 25 m 0
 34 -44 102 -106 198 -106 c 0
 290 -106 362 -47 362 25 c 0
 362 76 l 0
 362 96 359 101 333 101 c 0
 61 101 l 0
 38 101 34 98 34 76 c 0
 34 25 l 0
396 25 m 0
 396 -72 302 -140 198 -140 c 0
 90 -140 0 -69 0 25 c 0
 0 111 l 0
 0 134 0 135 23 135 c 0
 365 135 l 0
 393 135 396 134 396 104 c 0
 396 25 l 0
EndSplineSet
EndChar

StartChar: Z
Encoding: 90 90 102
GlifName: Z_
Width: 593
Flags: W
HStem: -144 28<-13.6921 45.2598> -17 47<464.328 547.68> 106 20G<533.5 556> 149 21G<363.5 372> 200 68<390.526 480> 229 33<77.7302 157.457 271.829 350.611> 418 28<331.044 391.692>
VStem: -80 66<-115.484 -49.1934> 353 27<149.03 156> 392 66<351.193 417.484> 548 45<30.7179 87>
LayerCount: 2
Fore
SplineSet
5 -116 m 0xf7e0
 70 -116 91 -47 143 151 c 0
 153 189 l 0
 162 223 162 229 138 229 c 0
 86 229 l 0
 74 229 71 230 77 248 c 0
 81 262 83 262 98 262 c 0
 149 262 l 0
 172 262 176 266 184 286 c 0
 228 391 291 446 371 446 c 0
 415 446 458 414 458 373 c 0
 458 345 438 320 407 320 c 0
 379 320 365 341 365 360 c 0
 365 394 392 397 392 408 c 0
 392 415 381 418 372 418 c 0
 325 418 302 382 273 287 c 0
 266 265 271 262 291 262 c 0
 341 262 l 0
 351 262 356 260 351 246 c 0
 345 229 341 229 331 229 c 0
 279 229 l 0
 258 229 254 224 248 199 c 0
 225 113 l 0
 181 -53 109 -144 7 -144 c 0
 -37 -144 -80 -112 -80 -71 c 0
 -80 -43 -60 -18 -29 -18 c 0
 -1 -18 13 -39 13 -58 c 0
 13 -92 -14 -95 -14 -106 c 0
 -14 -113 -4 -116 5 -116 c 0xf7e0
529 30 m 0
 542 30 548 36 548 43 c 0
 548 48 545 54 537 59 c 0
 526 66 513 82 513 96 c 0
 513 110 524 126 543 126 c 0
 569 126 593 104 593 70 c 0
 593 20 549 -17 507 -17 c 0
 462 -17 444 16 413 29 c 0
 409 31 405 31 401 31 c 0
 393 31 387 28 381 22 c 0
 360 2 l 0
 357 0 355 -2 348 -2 c 0
 336 -2 327 -1 327 4 c 0
 327 6 329 10 333 14 c 0
 485 179 l 0
 488 182 490 187 490 190 c 0
 490 194 488 196 480 197 c 0
 422 200 l 0
 417 200 l 0
 399 200 395 188 387 171 c 0
 380 156 l 0
 377 149 375 149 369 149 c 0
 358 149 353 150 353 156 c 0
 353 157 353 158 354 160 c 0
 385 256 l 0
 388 265 389 268 397 268 c 0xfbe0
 409 268 485 262 536 262 c 0
 555 262 574 263 583 263 c 0
 588 263 591 261 591 257 c 0
 591 254 588 248 582 241 c 0
 447 94 l 0
 439 86 435 81 435 76 c 0
 435 72 441 67 454 58 c 0
 472 46 504 30 529 30 c 0
EndSplineSet
EndChar

StartChar: backslash
Encoding: 92 92 103
GlifName: backslash
Width: 42
Flags: W
HStem: 0 20G
VStem: 0 19<0 1014 0 1014>
LayerCount: 2
Fore
SplineSet
19 1014 m 1
 19 0 l 1
 0 0 l 1
 0 1014 l 1
 19 1014 l 1
EndSplineSet
EndChar

StartChar: asciicircum
Encoding: 94 94 104
GlifName: asciicircum
Width: 348
Flags: W
HStem: 348 20G<172.5 173.5> 348 20G<172.5 173.5>
LayerCount: 2
Fore
SplineSet
348 0 m 0x80
 243 0 l 0
 152 194 l 0
 150 198 145 200 141 200 c 0
 137 200 131 198 129 194 c 0
 39 0 l 0
 0 0 l 0
 169 364 l 0
 170 367 172 368 173 368 c 0
 174 368 176 367 177 364 c 0
 348 0 l 0x80
EndSplineSet
EndChar

StartChar: grave
Encoding: 96 96 105
GlifName: grave
Width: 548
Flags: W
HStem: -309 32<5.58261 74.2723 148.609 206.275 316.643 401.953> -82 32<352.771 429.603> 25 60<372.655 508.738> 27 71<358.146 434.451>
VStem: 241.967 74<-277.982 -198.449> 446.967 69<-230.26 -93.6427>
LayerCount: 2
Fore
SplineSet
515.967 -162 m 0xdc
 515.967 -262 437.967 -313 357.967 -313 c 0
 291.967 -313 241.967 -276 241.967 -227 c 0
 241.967 -195 262.967 -170 293.967 -170 c 0
 321.967 -170 335.967 -192 335.967 -216 c 0
 335.967 -244 315.967 -255 315.967 -266 c 0
 315.967 -276 332.967 -281 357.967 -281 c 0
 409.967 -281 446.967 -208 446.967 -146 c 0
 446.967 -107 427.967 -82 387.967 -82 c 0
 366.967 -82 337.967 -87 317.967 -94 c 0
 310.967 -96 298.967 -92 301.967 -85 c 0
 323.967 -22 334.967 18 347.967 89 c 0
 348.967 96 352.967 98 356.967 98 c 0xdc
 365.967 98 395.967 85 448.967 85 c 0xec
 487.967 85 533.967 98 542.967 98 c 0xdc
 549.967 98 551.967 92 540.967 76 c 0
 518.967 43 471.967 25 422.967 25 c 0xec
 410.967 25 394.967 27 381.967 27 c 0
 371.967 27 368.967 25 364.967 11 c 0
 359.967 -6 354.967 -20 348.967 -41 c 0
 346.967 -47 346.967 -54 357.967 -54 c 0
 372.967 -54 383.967 -50 412.967 -50 c 0
 473.967 -50 515.967 -99 515.967 -162 c 0xdc
189.967 -309 m 0
 10.9668 -309 l 0
 0.966797 -309 -4.0332 -306 3.9668 -291 c 0
 9.9668 -277 12.9668 -277 21.9668 -277 c 0
 39.9668 -277 l 0
 80.9668 -277 83.9668 -241 95.9668 -206 c 0
 151.967 -36 l 0
 158.967 -12 150.967 -9 132.967 -28 c 0
 56.9668 -105 l 0
 48.9668 -113 44.9668 -113 35.9668 -104 c 0
 25.9668 -95 29.9668 -91 36.9668 -82 c 0
 182.967 89 l 0
 191.967 99 193.967 101 197.967 101 c 0
 203.967 101 213.967 93 224.967 93 c 0
 237.967 93 244.967 101 252.967 101 c 0
 256.967 101 258.967 99 254.967 87 c 0
 150.967 -244 l 0
 144.967 -262 148.967 -277 169.967 -277 c 0
 197.967 -277 l 0
 209.967 -277 212.967 -277 206.967 -292 c 0
 199.967 -306 198.967 -309 189.967 -309 c 0
EndSplineSet
EndChar

StartChar: a
Encoding: 97 97 106
GlifName: a
Width: 565
Flags: W
VStem: 0 37<-163.609 148.94> 203 39<-368 -191.913 -83.0879 50.0872 157.912 343> 323 39<-343 -157.912 -50.0872 83.0879 191.913 368> 528 37<-148.192 164.397>
LayerCount: 2
Fore
SplineSet
565 11 m 0
 566 -177 492 -320 437 -386 c 0
 419 -368 l 0
 474 -280 529 -175 528 11 c 0
 528 195 474 300 419 388 c 0
 437 406 l 0
 492 340 565 197 565 11 c 0
0 -10 m 0
 -1 178 73 320 128 386 c 0
 146 368 l 0
 91 280 36 176 37 -10 c 0
 37 -194 91 -300 146 -388 c 0
 128 -406 l 0
 73 -340 0 -196 0 -10 c 0
358 -37 m 0
 358 -45 367 -52 374 -50 c 0
 409 -39 l 0
 409 -127 l 0
 380 -136 l 0
 367 -140 362 -146 362 -158 c 0
 362 -343 l 0
 323 -343 l 0
 323 -170 l 0
 323 -162 312 -156 305 -158 c 0
 256 -172 l 0
 246 -175 242 -181 242 -189 c 0
 242 -368 l 0
 203 -368 l 0
 203 -205 l 0
 203 -197 193 -190 186 -192 c 0
 156 -201 l 0
 156 -113 l 0
 196 -101 l 0
 203 -99 207 -94 207 -86 c 0
 207 37 l 0
 207 45 198 52 191 50 c 0
 156 39 l 0
 156 127 l 0
 185 136 l 0
 198 140 203 146 203 158 c 0
 203 343 l 0
 242 343 l 0
 242 170 l 0
 242 162 253 156 260 158 c 0
 309 172 l 0
 319 175 323 181 323 189 c 0
 323 368 l 0
 362 368 l 0
 362 205 l 0
 362 197 372 190 379 192 c 0
 409 201 l 0
 409 113 l 0
 369 101 l 0
 362 99 358 94 358 86 c 0
 358 -37 l 0
326 71 m 0
 326 79 314 85 306 83 c 0
 249 67 l 0
 243 65 239 59 239 51 c 0
 239 -71 l 0
 239 -79 252 -85 258 -83 c 0
 316 -67 l 0
 322 -65 326 -59 326 -51 c 0
 326 71 l 0
EndSplineSet
Validated: 33
EndChar

StartChar: b
Encoding: 98 98 107
GlifName: b
Width: 220
Flags: W
HStem: 100 53<112 136>
VStem: 0 50<411 427.5> 157 69<34 51.5>
LayerCount: 2
Fore
SplineSet
0 445 m 5
 52 445 l 5
 52 157 l 6
 52 149 68 137 80 141 c 4
 99 149 117 153 133 153 c 4
 180 153 220 117 220 62 c 4
 220 -25 127 -80 63 -132 c 6
 16 -170 l 6
 2 -181 0 -182 0 -162 c 6
 0 81 l 5
 0 101 l 5
 0 445 l 5
88 112 m 4
 66 112 46 103 30 88 c 5
 30 -90 l 6
 30 -103 47.1155637827 -107.168142321 53 -103 c 4
 104.801156069 -66.3075144509 142 -29 142 31 c 4
 142 89 120 112 88 112 c 4
EndSplineSet
Validated: 33
EndChar

StartChar: c
Encoding: 99 99 108
GlifName: c
Width: 416
VWidth: 774
Flags: W
HStem: -255 37<174.769 303.289> 44 137<298.616 349> 222 33<184.705 315.914>
VStem: 0 118<-106.733 112.311> 280 136<63.0921 163.453> 383 30<-120.122 -69.5333>
LayerCount: 2
Fore
SplineSet
314 207 m 4xf8
 296 216 275 222 251 222 c 4
 171 222 118 178 118 18 c 6
 118 -22 l 6
 118 -177 162 -218 243 -218 c 7
 310 -218 372 -155 383 -68 c 5
 413 -70 l 5xf4
 403 -159 340 -255 220 -255 c 4
 102 -255 0 -145 0 0 c 4
 0 146 95 255 235 255 c 4
 342 255 415 180 416 113 c 4
 416 75 386 44 348 44 c 4
 310 44 280 75 280 113 c 4
 280 137 292 160 313 172 c 4
 326 179 327 200 314 207 c 4xf8
EndSplineSet
Validated: 33
EndChar

StartChar: e
Encoding: 101 101 109
GlifName: e
Width: 326
Flags: W
HStem: 121 20G<199.5 233.5> 830 20G<300 327>
VStem: 300 26<123.911 594.688 790.368 850> 541 34<197.466 431.585>
LayerCount: 2
Fore
SplineSet
95 101 m 0
 130 125 178 141 221 141 c 0
 246 141 269 136 287 124 c 0
 291 122 300 126 300 129 c 0
 300 850 l 0
 327 850 l 0
 327 818 340 769 373 728 c 0
 445 637 575 535 575 320 c 0
 575 214 536 123 517 88 c 0
 489 102 l 0
 515 155 541 232 541 321 c 0
 541 437 498 521 425 569 c 0
 395 588 369 595 342 595 c 0
 333 595 326 588 326 582 c 0
 326 49 l 0
 325 -7 280 -68 231 -101 c 0
 196 -125 148 -141 105 -141 c 0
 68 -141 34 -130 15 -100 c 0
 4 -85 0 -68 0 -50 c 0
 0 6 46 68 95 101 c 0
EndSplineSet
EndChar

StartChar: f
Encoding: 102 102 110
GlifName: f
Width: 378
Flags: W
HStem: -144 28<-13.6921 45.2555> 229 33<77.7302 157.457 271.829 350.611> 418 28<331.044 391.692>
VStem: -80 66<-115.484 -49.1934> 392 66<351.193 417.484>
LayerCount: 2
Fore
SplineSet
5 -116 m 0
 70 -116 91.0181 -46.5311 143 151 c 0
 153 189 l 0
 162 223 162 229 138 229 c 0
 86 229 l 0
 74 229 71 230 77 248 c 0
 81 262 83 262 98 262 c 0
 149 262 l 0
 172 262 176 266 184 286 c 0
 228 391 291 446 371 446 c 0
 415 446 458 414 458 373 c 0
 458 345 438 320 407 320 c 0
 379 320 365 341 365 360 c 0
 365 394 392 397 392 408 c 0
 392 415 381 418 372 418 c 0
 325 418 302 382 273 287 c 0
 266 265 271 262 291 262 c 0
 341 262 l 0
 351 262 356 260 351 246 c 0
 345 229 341 229 331 229 c 0
 279 229 l 0
 258 229 254 224 248 199 c 0
 225 113 l 0
 180.731 -52.527 109 -144 7 -144 c 0
 -37 -144 -80 -112 -80 -71 c 0
 -80 -43 -60 -18 -29 -18 c 0
 -1 -18 13 -39 13 -58 c 0
 13 -92 -14 -95 -14 -106 c 0
 -14 -113 -4 -116 5 -116 c 0
EndSplineSet
Validated: 33
EndChar

StartChar: h
Encoding: 104 104 111
GlifName: h
Width: 354
Flags: W
HStem: -146 39<35.0989 122.27> 107 26<247.751 325.897> 830 20G<328 354>
VStem: 0 23<-100.079 -50.348> 328 26<45.052 102.834 133.829 850>
LayerCount: 2
Fore
SplineSet
331 78 m 0
 331 97 315 107 297 107 c 0
 264 107 211 80 151 42 c 0
 77 -3 23 -46 23 -78 c 0
 23 -97 39 -107 57 -107 c 0
 90 -107 143 -80 203 -42 c 0
 277 3 331 46 331 78 c 0
328 850 m 0
 354 850 l 0
 354 62 l 0
 354 1 302 -79 247 -113 c 0
 214 -134 164 -146 118 -146 c 0
 56 -146 0 -125 0 -62 c 0
 0 -1 52 79 107 113 c 0
 140 134 190 146 236 146 c 0
 263 146 288 142 308 133 c 0
 316 129 328 135 328 143 c 0
 328 850 l 0
EndSplineSet
EndChar

StartChar: i
Encoding: 105 105 112
GlifName: i
Width: 168
Flags: W
HStem: 94 20G<92.5 120.5>
VStem: 0 43<107.006 340> 0 26<-65.1817 74.7327>
LayerCount: 2
Fore
SplineSet
44 -65 m 0xa0
 95 -28 110 3 104 47 c 0
 97 97 54 91 32 69 c 0
 28 64 26 59 26 53 c 0
 26 -57 l 0
 26 -65 38 -69 44 -65 c 0xa0
10 -123 m 0
 1 -130 0 -129 0 -116 c 0xa0
 0 340 l 0
 43 340 l 0
 43 121 l 0xc0
 43 115 54 107 60 107 c 0
 69 107 82 114 103 114 c 0
 138 114 168 91 168 47 c 0
 168 -17 94 -54 44 -95 c 0
 10 -123 l 0
EndSplineSet
EndChar

StartChar: j
Encoding: 106 106 113
GlifName: j
Width: 275
Flags: W
VStem: 0 25<-206 -193.393 4.375 62> 241 34<-590.534 -356.415>
LayerCount: 2
Fore
SplineSet
41 -193 m 4
 32 -193 25 -200 25 -206 c 4
 0 -206 l 0
 0 62 l 1
 26 62 l 1
 26 30 40 -19 73 -60 c 0
 145 -151 275 -253 275 -468 c 0
 275 -574 236 -665 217 -700 c 1
 189 -686 l 1
 215 -633 241 -556 241 -467 c 0
 241 -351 198 -267 125 -219 c 0
 95 -200 68 -193 41 -193 c 4
EndSplineSet
Validated: 1
EndChar

StartChar: k
Encoding: 107 107 114
GlifName: k
Width: 96
VWidth: 0
Flags: W
HStem: -48 96<8.33203 87.668>
VStem: 0 96<-39.668 39.668>
LayerCount: 2
Fore
SplineSet
0 0 m 0
 0 26 22 48 48 48 c 0
 74 48 96 26 96 0 c 0
 96 -26 74 -48 48 -48 c 0
 22 -48 0 -26 0 0 c 0
EndSplineSet
Validated: 1
EndChar

StartChar: l
Encoding: 108 108 115
GlifName: l
Width: 295
Flags: W
HStem: -130 32<99.8183 262.789>
VStem: 263 32<-97.8967 46.1802>
LayerCount: 2
Fore
SplineSet
263 36 m 0
 263 44 252 50 247 46 c 0
 100 -81 l 0
 96 -84 100 -98 109 -98 c 0
 246 -98 l 0
 251 -98 263 -89 263 -80 c 0
 263 36 l 0
8 -130 m 0
 -2 -130 -2 -128 5 -121 c 0
 288 124 l 0
 294 129 295 128 295 121 c 0
 295 -130 l 0
 8 -130 l 0
EndSplineSet
EndChar

StartChar: m
Encoding: 109 109 116
GlifName: m
Width: 586
Flags: W
HStem: 111 20G<144 151 388 394.5>
LayerCount: 2
Fore
SplineSet
21 -52 m 0
 15 -52 4 -35 4 -28 c 0
 4 -23 7 -18 14 -11 c 0
 119 107 l 0
 133 123 141 131 147 131 c 0
 155 131 161 120 175 98 c 0
 224 20 l 0
 235 3 243 -5 251 -5 c 0
 261 -5 271 4 288 23 c 0
 363 106 l 0
 377 123 385 132 391 132 c 0
 398 132 404 123 417 103 c 0
 471 17 l 0
 482 1 488 -8 496 -8 c 0
 504 -8 514 2 533 22 c 0
 553 44 l 0
 558 50 562 53 565 53 c 0
 571 53 581 36 581 28 c 0
 581 23 578 17 571 9 c 0
 475 -98 l 0
 457 -118 448 -130 440 -130 c 0
 432 -130 425 -119 410 -96 c 0
 362 -21 l 0
 350 -2 343 8 335 8 c 0
 327 8 318 0 302 -18 c 0
 225 -104 l 0
 209 -122 202 -131 195 -131 c 0
 187 -131 181 -121 168 -100 c 0
 115 -18 l 0
 104 -1 98 8 90 8 c 0
 82 8 73 0 58 -17 c 0
 36 -42 l 0
 29 -49 25 -52 21 -52 c 0
EndSplineSet
EndChar

StartChar: n
Encoding: 110 110 117
GlifName: n
Width: 181
VWidth: 0
Flags: W
HStem: 167 20G<112.667 181>
VStem: 0 38<150.869 340> 0 30<-90.1348 51> 143 38<-340 -161.433> 151 30<-61 80.134>
LayerCount: 2
Fore
SplineSet
0 340 m 1xc0
 38 340 l 1
 38 168 l 2
 38 158 50 148 58 151 c 2
 181 187 l 1xc8
 181 -340 l 1
 143 -340 l 1
 143 -179 l 2
 143 -170 131 -158 119 -162 c 2
 0 -197 l 1xb0
 0 340 l 1xc0
30 51 m 1xa8
 30 -75 l 2
 30 -88 41 -93 50 -90 c 2
 151 -61 l 1
 151 66 l 2
 151 77 139 83 130 80 c 2
 30 51 l 1xa8
EndSplineSet
Validated: 1
EndChar

StartChar: o
Encoding: 111 111 118
GlifName: o
Width: 184
Flags: W
HStem: -92 32<51.0388 132.801> 60 32<51.1985 132.961>
VStem: 0 32<-40.8015 40.9612> 152 32<-40.9612 40.8015>
LayerCount: 2
Fore
SplineSet
32 0 m 0
 32 -32 57 -60 92 -60 c 0
 124 -60 152 -35 152 0 c 0
 152 32 127 60 92 60 c 0
 60 60 32 35 32 0 c 0
0 0 m 0
 0 53 44 92 92 92 c 0
 145 92 184 48 184 0 c 0
 184 -53 140 -92 92 -92 c 0
 39 -92 0 -48 0 0 c 0
EndSplineSet
Validated: 1
EndChar

StartChar: p
Encoding: 112 112 119
GlifName: p
Width: 443
Flags: W
HStem: -194 21G<-5 2 69 77> -26 33<178.369 244.232> 182 21G<25.5 31> 235 35<60.7104 115.045 241.758 302.13>
VStem: 116 51<68 211> 311 84<96.3483 228.268>
LayerCount: 2
Fore
SplineSet
29 182 m 0
 22 182 7 189 7 194 c 0
 7 196 9 199 12 204 c 0
 30 234 62 270 108 270 c 0
 137 270 158 259 172 242 c 0
 180 232 187 225 196 225 c 0
 201 225 206 228 212 233 c 0
 237 254 265 266 293 266 c 0
 351 266 395 224 395 161 c 0
 395 59 306 -26 228 -26 c 0
 208 -26 189 -22 174 -13 c 0
 167 -9 159 -6 153 -6 c 0
 144 -6 137 -10 134 -21 c 0
 86 -182 l 0
 83 -192 80 -194 74 -194 c 0
 64 -194 56 -181 35 -181 c 0
 15 -181 7 -194 -3 -194 c 0
 -7 -194 -9 -192 -9 -189 c 0
 -9 -187 -8 -184 -7 -181 c 0
 109 177 l 0
 112 186 116 199 116 211 c 0
 116 224 111 235 96 235 c 0
 75 235 56 217 40 192 c 0
 36 185 33 182 29 182 c 0
167 68 m 0
 167 32 182 7 208 7 c 0
 252 7 284 66 304 143 c 0
 309 160 311 175 311 187 c 0
 311 220 294 232 277 232 c 0
 224 232 167 139 167 68 c 0
EndSplineSet
Validated: 1
EndChar

StartChar: q
Encoding: 113 113 120
GlifName: q
Width: 326
Flags: W
HStem: 121 20G<199.5 233.5> 830 20G<300 326>
VStem: 300 26<123.911 850>
LayerCount: 2
Fore
SplineSet
95 101 m 0
 130 125 178 141 221 141 c 0
 246 141 269 136 287 124 c 0
 291 122 300 126 300 129 c 0
 300 850 l 0
 326 850 l 0
 326 50 l 0
 326 49 l 0
 325 -7 280 -68 231 -101 c 0
 196 -125 148 -141 105 -141 c 0
 68 -141 34 -130 15 -100 c 0
 4 -85 0 -68 0 -50 c 0
 0 6 46 68 95 101 c 0
EndSplineSet
EndChar

StartChar: r
Encoding: 114 114 121
GlifName: r
Width: 275
Flags: W
HStem: -120 21G<0 27>
VStem: 0 27<-120 -108.207 40.8781 88> 242 33<-398.246 -233.803>
LayerCount: 2
Fore
SplineSet
242 -571 m 0
 242 -448 171 -322 41 -322 c 0
 32 -322 25 -329 25 -335 c 1
 0 -335 l 1
 0 88 l 1
 26 88 l 1
 26 40 63 1 126 -49 c 0
 205 -112 275 -198 275 -316 c 0
 275 -362 263 -399 251 -423 c 1
 267 -466 275 -515 275 -572 c 0
 275 -659 244 -748 227 -778 c 1
 198 -767 l 1
 214 -730 242 -658 242 -571 c 0
26 -120 m 0
 26 -165 68 -214 126 -259 c 0
 172 -294 207 -334 232 -380 c 1
 238 -361 242 -339 242 -315 c 0
 242 -242 207 -168 121 -127 c 0
 98 -116 67 -108 42 -108 c 0
 33 -108 26 -114 26 -120 c 0
EndSplineSet
Validated: 1
EndChar

StartChar: s
Encoding: 115 115 122
GlifName: s
Width: 241
VWidth: 573
Flags: W
HStem: -8 25<52.8296 138.284> 235 24<97.5729 175.336>
VStem: 0 51<18.8619 83.2128> 43 37<170.459 223.391> 156 42<28.1294 97.8661> 177 48<172.793 233.831>
LayerCount: 2
Fore
SplineSet
142 235 m 0xd4
 107 235 80 219 80 195 c 0xd4
 80 176 109 163 130 153 c 0
 166 136 198 114 198 74 c 0
 198 18 148 -8 90 -8 c 0
 41 -8 0 11 0 54 c 0
 0 81 18 102 42 102 c 0
 60 102 71 88 71 71 c 0
 71 52 51 48 51 35 c 0
 51 19 76 17 94 17 c 0
 129 17 156 35 156 61 c 0xe8
 156 89 135 101 101 116 c 0
 69 130 43 149 43 183 c 0
 43 233 93 259 145 259 c 0
 190 259 225 236 225 196 c 0
 225 170 207 157 190 157 c 0
 175 157 159 168 159 185 c 0
 159 203 177 207 177 218 c 0
 177 230 163 235 142 235 c 0xd4
EndSplineSet
EndChar

StartChar: t
Encoding: 116 116 123
GlifName: t
Width: 789
Flags: W
HStem: -887 16<285.664 344.591> -650 36<-7.16667 43.8171> -647 16<292.809 346.882> -174 108<691.676 777.736> -112 226<82.4802 201.672> 74 108<691.676 777.736> 235 35<188.65 354>
VStem: 14 235<-52.8203 66.6718> 228 31<-854.531 -784.7> 239 39<-712.006 -653.934> 364 41<-858.886 -795.047> 365 28<-723.288 -658.148> 477 123<-180.423 75.9453> 681 108<-162.537 -77.4629 85.4629 170.537>
LayerCount: 2
Fore
SplineSet
278 -679 m 0xa25c
 278 -705 306 -720 336 -736 c 0
 354 -725 365 -708 365 -690 c 0
 365 -666 348 -647 321 -647 c 0
 294 -647 278 -663 278 -679 c 0xa25c
364 -833 m 0x82ac
 364 -801 331 -785 299 -767 c 0
 274 -778 259 -794 259 -820 c 0
 259 -844 281 -871 315 -871 c 0
 343 -871 364 -853 364 -833 c 0x82ac
269 -765 m 0
 276 -761 273 -751 268 -747 c 0
 251 -734 239 -718 239 -695 c 0
 239 -659 277 -631 321 -631 c 0
 366 -631 393 -656 393 -688 c 0xa25c
 393 -709 382 -725 367 -737 c 0
 359 -743 363 -751 366 -754 c 0
 388 -769 405 -787 405 -814 c 0
 405 -854 361 -887 315 -887 c 0
 263 -887 228 -857 228 -824 c 0
 228 -798 243 -779 269 -765 c 0
136 114 m 0xcb0c
 199 114 249 64 249 1 c 0
 249 -62 199 -112 136 -112 c 0
 71 -112 14 -59 14 35 c 0
 14 154 126 270 292 270 c 0
 488 270 600 134 600 -52 c 0
 600 -357 255 -618 -6 -650 c 0
 -12 -614 l 0
 279 -550 477 -344 477 -32 c 0
 477 123 417 235 271 235 c 0
 180 235 112 188 81 131 c 0
 75 120 89 103 98 107 c 0
 106 110 121 114 136 114 c 0xcb0c
681 -120 m 0
 681 -90 705 -66 735 -66 c 0
 763 -66 789 -90 789 -120 c 0
 789 -150 763 -174 735 -174 c 0x920c
 705 -174 681 -150 681 -120 c 0
681 128 m 0
 681 158 705 182 735 182 c 0
 763 182 789 158 789 128 c 0
 789 98 763 74 735 74 c 0x860c
 705 74 681 98 681 128 c 0
EndSplineSet
Validated: 1
EndChar

StartChar: u
Encoding: 117 117 124
GlifName: u
Width: 706
Flags: W
HStem: -383 142<240.808 465.192> -88 138<303.092 402.908>
VStem: 0 29<-47.1094 51> 284 138<-68.9079 30.9079> 677 29<-47.1094 51>
LayerCount: 2
Fore
SplineSet
29 51 m 0
 29 -89 103 -241 353 -241 c 0
 603 -241 677 -89 677 51 c 0
 706 51 l 0
 706 -189 563 -383 353 -383 c 0
 143 -383 0 -189 0 51 c 0
 29 51 l 0
422 -19 m 0
 422 -57 391 -88 353 -88 c 0
 315 -88 284 -57 284 -19 c 0
 284 19 315 50 353 50 c 0
 391 50 422 19 422 -19 c 0
EndSplineSet
EndChar

StartChar: v
Encoding: 118 118 125
GlifName: v
Width: 348
Flags: W
LayerCount: 2
Fore
SplineSet
0 0 m 0
 105 0 l 0
 196 -194 l 0
 198 -198 203 -200 207 -200 c 0
 211 -200 217 -198 219 -194 c 0
 309 0 l 0
 348 0 l 0
 179 -364 l 0
 178 -367 176 -368 175 -368 c 0
 174 -368 172 -367 171 -364 c 0
 0 0 l 0
EndSplineSet
EndChar

StartChar: w
Encoding: 119 119 126
GlifName: w
Width: 458
Flags: W
HStem: -140 280<143 315>
VStem: 0 458<-110 111>
LayerCount: 2
Fore
SplineSet
0 -2 m 0
 1 111 143 140 234 140 c 0
 322 140 458 113 458 2 c 0
 457 -110 315 -140 224 -140 c 0
 136 -140 0 -113 0 -2 c 0
314 52 m 0
 302 97 254 123 193 115 c 0
 109 105 115 43 130 -7 c 0
 144 -52 l 0
 156 -93 203 -123 265 -115 c 0
 348 -105 342 -43 328 4 c 0
 314 52 l 0
EndSplineSet
Validated: 33
EndChar

StartChar: x
Encoding: 120 120 127
GlifName: x
Width: 326
Flags: W
HStem: 121 20G<199.5 233.5> 830 20G<300 327>
VStem: 300 26<123.911 444.688 602.26 653.583 804.95 850> 542 33<78.4353 293.641 385.735 528.197>
LayerCount: 2
Fore
SplineSet
95 101 m 0
 130 125 178 141 221 141 c 0
 246 141 269 136 287 124 c 0
 291 122 300 126 300 129 c 0
 300 850 l 0
 327 850 l 0
 327 802 363 763 426 713 c 0
 505 650 575 564 575 446 c 0
 575 401 564 365 552 341 c 0
 567 299 575 251 575 195 c 0
 575 108 544 19 527 -11 c 0
 498 0 l 0
 514 37 542 109 542 196 c 0
 542 318 471 445 342 445 c 0
 333 445 326 438 326 432 c 0
 326 49 l 0
 325 -7 280 -68 231 -101 c 0
 196 -125 148 -141 105 -141 c 0
 68 -141 34 -130 15 -100 c 0
 4 -85 0 -68 0 -50 c 0
 0 6 46 68 95 101 c 0
327 642 m 0
 327 602 368 553 426 508 c 0
 472 472 508 432 533 385 c 0
 538 403 542 424 542 447 c 0
 542 520 507 594 421 635 c 0
 398 646 368 654 343 654 c 0
 334 654 327 648 327 642 c 0
EndSplineSet
EndChar

StartChar: y
Encoding: 121 121 128
GlifName: y
Width: 310
Flags: W
HStem: -130 32<65.8205 243.091> 118 20G<143.433 166.567>
LayerCount: 2
Fore
SplineSet
0 -130 m 0
 155 138 l 0
 310 -130 l 0
 0 -130 l 0
144 55 m 0
 66 -80 l 0
 62 -88 69 -98 74 -98 c 0
 234 -98 l 0
 243 -98 245 -83 243 -79 c 0
 165 56 l 0
 163 61 149 63 144 55 c 0
EndSplineSet
EndChar

StartChar: z
Encoding: 122 122 129
GlifName: z
Width: 280
VWidth: 573
Flags: W
HStem: -15 34<162.401 228.173> 211.5 46.5<90.4709 188.568>
VStem: 229 29<21.1769 61.3218>
CounterMasks: 1 1c
LayerCount: 2
Fore
SplineSet
204 19 m 0
 216 19 229 27 229 41 c 0
 229 52 219 62 202 68 c 0
 191 72 179 82 179 94 c 0
 179 106 185 120 210 120 c 0
 234 120 258 93 258 59 c 0
 258 9 221 -15 191 -15 c 3
 148 -15 126 35 86 35 c 0
 66 35 39 9 21 -1 c 0
 16 -4 12 -5 9 -5 c 0
 3 -5 0 -1 0 5 c 0
 0 10 3 17 9 22 c 2
 43 55 l 2
 82 89 141.5 148.5 183.5 191.5 c 0
 186.5 194.5 188.5 197.5 188.5 200.5 c 0
 188.5 211.5 133.5 211.5 120.5 211.5 c 0
 110.5 211.5 102.076 208.151 93.5 194.5 c 2
 77.4795 169 l 2
 70.7959 158.403 63.4902 156.5 59.4902 156.5 c 0
 55.4902 156.5 52.4902 159.5 52.4902 165.5 c 0
 52.4902 168.5 53.4902 172.5 54.4902 176.5 c 2
 76 235 l 2
 82.5479 252.809 84 258 99 258 c 3
 117 258 141 251 191 251 c 3
 225 251 260 258 269 258 c 3
 278 258 280 255 280 251 c 0
 280 242 279 241 257 219 c 0
 232 194 182 148 162 128 c 2
 127 92 l 2
 120 85 116 79 116 74 c 0
 116 67 121 63 129 58 c 0
 143 50 160 36 177 27 c 0
 185 22 195 19 204 19 c 0
EndSplineSet
EndChar

StartChar: asciitilde
Encoding: 126 126 130
GlifName: asciitilde
Width: 809
Flags: W
HStem: -195 21G<80 84.5 724.5 729> -95 190<546.623 630.334> 94 101G<80 84.5 233.5 246.5 377.5 404.5 724.5 729>
VStem: 0 30<-92.2826 92.2826> 140 40<108.005 340> 140 27<-57.7051 66.7102> 284 40<112.245 340> 284 27<-57.7051 -35.3154> 487 202<-37.2618 37.5247> 779 30<-92.2826 92.2826>
LayerCount: 2
Fore
SplineSet
183 330 m 0xd8c0
 183 285 180 202 180 123 c 0
 180 115 184 108 194 108 c 0
 205 108 224 114 243 114 c 0
 250 114 262 112 268 112 c 0
 280 112 284 117 284 137 c 0
 284 330 l 0
 284 338 285 340 294 340 c 0
 317 340 l 0
 326 340 327 338 327 330 c 0
 327 285 324 202 324 123 c 0xdac0
 324 115 328 108 338 108 c 0
 349 108 368 114 387 114 c 0
 422 114 452 91 452 42 c 0
 452 -15 378 -54 328 -95 c 0
 306 -113 l 0
 302 -116 297 -119 293 -119 c 0
 289 -119 284 -116 284 -107 c 0
 284 -60 l 0
 284 -31 278 -22 252 -43 c 0
 230 -61 205 -78 184 -95 c 0
 162 -113 l 0
 158 -116 153 -119 149 -119 c 0
 145 -119 140 -116 140 -107 c 0xd5c0
 140 330 l 0
 140 338 141 340 150 340 c 0
 173 340 l 0
 182 340 183 338 183 330 c 0xd8c0
175 60 m 0
 170 50 167 34 167 16 c 0
 167 -47 l 0x94c0
 167 -63 177 -68 195 -53 c 0
 226 -26 252 -1 243 45 c 0
 235 90 189 86 175 60 c 0
319 60 m 0
 314 50 311 34 311 16 c 0
 311 -47 l 0x91c0
 311 -63 321 -68 339 -53 c 0
 370 -26 396 -1 387 45 c 0
 379 90 333 86 319 60 c 0
487 -26 m 0
 487 37 549 95 616 95 c 0
 655 95 689 69 689 27 c 0
 689 -37 628 -95 561 -95 c 0xd0c0
 522 -95 487 -68 487 -26 c 0
30 0 m 0
 30 -83 59 -127 85 -168 c 0
 89 -174 91 -180 91 -184 c 0
 91 -191 87 -195 82 -195 c 0
 78 -195 72 -192 66 -185 c 0
 32 -145 0 -87 0 0 c 0
 0 87 32 145 66 185 c 0
 72 192 78 195 82 195 c 0xb0c0
 87 195 91 191 91 184 c 0
 91 180 89 174 85 168 c 0
 59 127 30 83 30 0 c 0
779 0 m 0
 779 83 750 127 724 168 c 0
 720 174 718 180 718 184 c 0
 718 191 722 195 727 195 c 0
 731 195 737 192 743 185 c 0
 777 145 809 87 809 0 c 0
 809 -87 777 -145 743 -185 c 0
 737 -192 731 -195 727 -195 c 0
 722 -195 718 -191 718 -184 c 0
 718 -180 720 -174 724 -168 c 0
 750 -127 779 -83 779 0 c 0
EndSplineSet
Validated: 33
EndChar

StartChar: exclamdown
Encoding: 161 161 131
GlifName: exclamdown
Width: 202
Flags: W
HStem: -95 190<58.0566 142.377>
VStem: 0 32<-847.744 -756.093 -655.995 -590.601 -491.992 -428.6 -303.299 -93.136> 191 29<-385.353 -296.661> 196 31<-196.297 -56.6032>
LayerCount: 2
Fore
SplineSet
148 -70 m 0xd0
 126 -86 100 -95 73 -95 c 0
 62 -95 57 -93 51 -93 c 0
 40 -93 30 -98 30 -113 c 0
 30 -260 l 0
 30 -289 31 -304 56 -304 c 0
 79 -304 99 -290 116 -276 c 0
 157 -240 196 -201 196 -119 c 0
 196 -104 194 -91 192 -79 c 0
 183 -40 168 -56 148 -70 c 0xd0
217 -59 m 0
 223 -76 227 -96 227 -118 c 0xd0
 227 -196 206 -212 206 -237 c 0
 206 -257 220 -274 220 -324 c 0
 220 -341 218 -357 215 -372 c 0
 209 -397 205 -405 213 -433 c 0
 216 -446 220 -463 220 -488 c 0xe0
 220 -574 174 -632 85 -712 c 0
 48 -745 32 -776 32 -810 c 0
 32 -839 29 -848 19 -848 c 0
 4 -848 0 -834 0 -806 c 0
 0 -27 l 0
 0 37 61 95 128 95 c 0
 167 95 202 68 202 26 c 0
 202 -17 204 -21 217 -59 c 0
177 -296 m 0
 162 -296 145 -325 95 -374 c 0
 64 -404 32 -441 32 -470 c 0
 32 -481 35 -492 47 -492 c 0
 107 -492 191 -407 191 -324 c 0xe0
 191 -306 187 -296 177 -296 c 0
152 -482 m 0
 134 -503 111 -525 85 -548 c 0
 45 -584 32 -616 32 -633 c 0
 32 -649 37 -656 47 -656 c 0
 104 -656 184 -578 191 -499 c 0
 195 -445 169 -463 152 -482 c 0
EndSplineSet
Validated: 33
EndChar

StartChar: cent
Encoding: 162 162 132
GlifName: cent
Width: 205
Flags: W
HStem: -73 168<65.9736 164.188>
VStem: 0 182<-72.9958 25.0996> 0 27<-581.985 -500.882 -373.76 -313.983 -246.066 -94.1211>
LayerCount: 2
Fore
SplineSet
190 -22 m 0xc0
 185 -33 182 -39 182 -45 c 0xc0
 182 -52 185 -59 189 -73 c 0
 194 -88 198 -108 201 -130 c 0
 204 -155 206 -164 234 -149 c 0
 278 -126 l 0
 287 -121 293 -123 297 -130 c 0
 298 -133 299 -136 299 -138 c 0
 299 -143 296 -147 290 -150 c 0
 236 -178 l 0
 209 -193 207 -204 202 -231 c 0
 179 -355 49 -436 31 -526 c 0
 24 -562 31 -582 13 -582 c 0
 7 -582 0 -583 0 -564 c 0
 0 -335 l 0
 0 -312 -3 -304 -26 -316 c 0
 -83 -346 l 0
 -95 -352 -99 -351 -103 -342 c 0
 -105 -339 -106 -336 -106 -334 c 0
 -106 -330 -102 -326 -95 -322 c 0
 -33 -289 l 0
 -7 -276 0 -266 0 -236 c 0xa0
 0 -27 l 0
 0 37 61 95 128 95 c 0
 167 95 202 65.459 202 26 c 0
 202 6.7041 198 -7 190 -22 c 0xc0
172 -145 m 0
 171 -127 168 -111 164 -93 c 0
 161 -78 157 -73 150 -73 c 0
 144 -73 137 -78 128 -82 c 0
 111 -90 92 -95 73 -95 c 0
 60 -95 51 -94 44 -94 c 0
 30 -94 27 -98 27 -125 c 0
 27 -219 l 0xa0
 27 -248 29 -257 57 -242 c 0
 139 -199 l 0
 164 -186 175 -175 172 -145 c 0
143 -227 m 0
 61 -271 l 0
 37 -283 27 -289 27 -321 c 0
 27 -356 l 0
 27 -369 34 -374 44 -374 c 0
 56 -374 72 -366 82 -360 c 0
 126 -329 154 -290 167 -241 c 0
 174 -214 167 -215 143 -227 c 0
EndSplineSet
Validated: 33
EndChar

StartChar: sterling
Encoding: 163 163 133
GlifName: sterling
Width: 353
VWidth: 2265
Flags: W
HStem: -4 32<87.3271 172.252> 125 20G<53 82> 194 31<126.587 197.535> 386 29<169.765 253.256>
VStem: 15 71<34.2502 110.381> 98 87<285.102 369.348> 211 72<62.725 172.369> 267 71<257.235 377.788>
LayerCount: 2
Fore
SplineSet
131 28 m 3xfe
 177 28 211 79 211 135 c 0xfe
 211 168 198 194 158 194 c 2
 133 194 l 2
 124 194 122 197 125 210 c 0
 128 223 131 225 142 225 c 2
 165 225 l 2
 219 225 253 243 264 305 c 0
 266 314 267 323 267 331 c 0
 267 364 251 386 215 386 c 3
 188 386 172 378 168 370 c 0
 161 356 185 348 185 320 c 0
 185 297 167 280 140 280 c 0
 116 280 98 296 98 325 c 0
 98 375 155 415 226 415 c 3
 277 415 338 386 338 319 c 0xfd
 338 276 314 236 263 216 c 0
 235 204 240 200 257 178 c 0
 267 165 283 144 283 113 c 0
 283 38 214 -4 138 -4 c 3
 72 -4 15 33 15 87 c 0
 15 120 38 145 68 145 c 0
 96 145 112 124 112 100 c 0
 112 67 86 59 86 47 c 0
 86 36 103 28 131 28 c 3xfe
EndSplineSet
EndChar

StartChar: currency
Encoding: 164 164 134
GlifName: currency
Width: 168
Flags: W
HStem: 94 20G<92.5 120.5>
VStem: 0 43<107.006 340> 0 26<-65.1817 74.7327>
LayerCount: 2
Fore
SplineSet
44 -65 m 0xa0
 95 -28 110 3 104 47 c 0
 97 97 54 91 32 69 c 0
 28 64 26 59 26 53 c 0
 26 -57 l 0
 26 -65 38 -69 44 -65 c 0xa0
10 -123 m 0
 1 -130 0 -129 0 -116 c 0xa0
 0 340 l 0
 43 340 l 0
 43 121 l 0xc0
 43 115 54 107 60 107 c 0
 69 107 82 114 103 114 c 0
 138 114 168 91 168 47 c 0
 168 -17 94 -54 44 -95 c 0
 10 -123 l 0
EndSplineSet
Validated: 33
EndChar

StartChar: yen
Encoding: 165 165 135
GlifName: yen
Width: 196
Flags: W
HStem: 134 20G<171 196>
VStem: 42 28<-264 -146.668 -68.0879 45.0872 122.912 244> 126 28<-244 -122.912 -45.0872 68.0879 146.668 264>
LayerCount: 2
Fore
SplineSet
69 -56 m 0
 69 -64 79 -70 87 -68 c 0
 116 -60 l 0
 122 -58 127 -52 127 -44 c 0
 127 56 l 0
 127 64 117 70 109 68 c 0
 80 60 l 0
 74 58 69 52 69 44 c 0
 69 -56 l 0
43 32 m 0
 43 40 35 47 28 45 c 0
 0 37 l 0
 0 98 l 0
 24 104 l 0
 37 108 42 116 42 128 c 0
 42 244 l 0
 70 244 l 0
 70 135 l 0
 70 127 80 121 87 123 c 0
 113 130 l 0
 123 133 126 138 126 146 c 0
 126 264 l 0
 154 264 l 0
 154 160 l 0
 154 152 164 145 171 147 c 0
 196 154 l 0
 196 93 l 0
 165 84 l 0
 158 83 153 78 153 70 c 0
 153 -32 l 0
 153 -40 161 -47 168 -45 c 0
 196 -37 l 0
 196 -98 l 0
 172 -104 l 0
 159 -108 154 -116 154 -128 c 0
 154 -244 l 0
 126 -244 l 0
 126 -135 l 0
 126 -127 116 -121 109 -123 c 0
 83 -130 l 0
 73 -133 70 -138 70 -146 c 0
 70 -264 l 0
 42 -264 l 0
 42 -160 l 0
 42 -152 32 -145 25 -147 c 0
 0 -154 l 0
 0 -93 l 0
 31 -84 l 0
 38 -83 43 -78 43 -70 c 0
 43 32 l 0
EndSplineSet
Validated: 1
EndChar

StartChar: brokenbar
Encoding: 166 166 136
GlifName: brokenbar
Width: 322
Flags: W
HStem: 94 20G<92.5 108 246.5 274.5>
VStem: 0 43<106.008 340> 0 26<-65.1817 74.7327> 154 43<107.999 340> 154 26<-65.1817 -24.633> 180 142<-17 59>
LayerCount: 2
Fore
SplineSet
198 -65 m 0x88
 249 -28 264 3 258 47 c 0
 251 97 208 91 186 69 c 0
 182 64 180 59 180 53 c 0x84
 180 -57 l 0
 180 -65 192 -69 198 -65 c 0x88
44 -65 m 0
 95 -28 110 3 104 47 c 0
 97 97 54 91 32 69 c 0
 28 64 26 59 26 53 c 0
 26 -57 l 0xa0
 26 -65 38 -69 44 -65 c 0
10 -123 m 0
 1 -130 0 -129 0 -116 c 0xa8
 0 340 l 0
 43 340 l 0
 43 123 l 0
 43 117 52 106 58 106 c 0
 67 106 82 114 103 114 c 0
 113 114 123 112 132 108 c 0
 136 106 154 105 154 116 c 0
 154 340 l 0
 197 340 l 0
 197 123 l 0xd0
 197 117 206 106 212 106 c 0
 221 106 236 114 257 114 c 0
 292 114 322 91 322 47 c 0x84
 322 -17 248 -54 198 -95 c 0
 164 -123 l 0
 155 -130 154 -129 154 -116 c 0
 154 -32 l 0x88
 154 -20 140 -17 132 -25 c 0
 107 -51 72 -72 44 -95 c 0
 10 -123 l 0
EndSplineSet
Validated: 33
EndChar

StartChar: section
Encoding: 167 167 137
GlifName: section
Width: 204
Flags: W
HStem: -102 73<5 72.7812 131.219 199> -25 50<77.0435 126.957> 29 73<5 72.7812 131.219 199>
VStem: 0 73<-97 -29.2188 29.2188 97> 77 50<-24.9565 24.9565> 131 73<-97 -29.2188 29.2188 97>
CounterMasks: 1 fc
LayerCount: 2
Fore
SplineSet
127 0 m 0
 127 -24 149 -29 199 -29 c 0
 200 -59 202 -90 204 -102 c 0
 192 -100 161 -98 131 -97 c 0
 131 -47 126 -25 102 -25 c 0
 78 -25 73 -47 73 -97 c 0
 43 -98 12 -100 0 -102 c 0
 2 -90 4 -59 5 -29 c 0
 55 -29 77 -24 77 0 c 0
 77 24 55 29 5 29 c 0
 4 59 2 90 0 102 c 0
 12 100 43 98 73 97 c 0
 73 47 78 25 102 25 c 0
 126 25 131 47 131 97 c 0
 161 98 192 100 204 102 c 0
 202 90 200 59 199 29 c 0
 149 29 127 24 127 0 c 0
EndSplineSet
Validated: 1
EndChar

StartChar: dieresis
Encoding: 168 168 138
GlifName: dieresis
Width: 333
Flags: W
HStem: -199 46<56 158.711> 51 46<85 187.538> 301 46<113 215.538> 415 20G<304.5 333>
VStem: 0 136<-152.499 -70.8628> 29 136<97.5012 179.137> 57 136<347.501 429.137> 170 56<-504 -457.745>
LayerCount: 2
Fore
SplineSet
221 -167 m 0xf1
 222 -160 210 -149 201 -154 c 0
 169 -175 117 -199 77 -199 c 0
 35 -199 0 -171 0 -125 c 0
 0 -84 30 -50 68 -50 c 0
 106 -50 136 -78 136 -119 c 0xf9
 136 -126 135 -133 135 -138 c 0
 135 -145 141 -153 152 -153 c 0
 155 -153 159 -152 161 -151 c 0
 212 -124 237 -101 246 -24 c 0
 259 90 l 0
 260 98 248 107 240 102 c 0
 196 73 146 51 106 51 c 0
 64 51 29 79 29 125 c 0
 29 166 59 200 97 200 c 0
 135 200 165 172 165 131 c 0xf4
 165 124 164 117 164 112 c 0
 164 105 170 97 181 97 c 0
 184 97 188 98 190 99 c 0
 251 131 267 162 277 252 c 0
 287 340 l 0
 288 348 276 357 268 352 c 0
 224 323 174 301 134 301 c 0
 92 301 57 329 57 375 c 0
 57 416 87 450 125 450 c 0
 163 450 193 422 193 381 c 0xf2
 193 374 192 367 192 362 c 0
 192 355 198 347 209 347 c 0
 212 347 216 348 218 349 c 0
 254 368 290 401 319 435 c 0
 333 432 l 0
 226 -504 l 0
 170 -504 l 0
 221 -167 l 0xf1
EndSplineSet
Validated: 1
EndChar

StartChar: ordfeminine
Encoding: 170 170 139
GlifName: ordfeminine
Width: 586
Flags: W
HStem: 111 20G<144 151 388 394.5>
LayerCount: 2
Fore
SplineSet
21 -52 m 0
 15 -52 4 -35 4 -28 c 0
 4 -23 7 -18 14 -11 c 0
 119 107 l 0
 133 123 141 131 147 131 c 0
 155 131 161 120 175 98 c 0
 224 20 l 0
 235 3 243 -5 251 -5 c 0
 261 -5 271 4 288 23 c 0
 363 106 l 0
 377 123 385 132 391 132 c 0
 398 132 404 123 417 103 c 0
 471 17 l 0
 482 1 488 -8 496 -8 c 0
 504 -8 514 2 533 22 c 0
 553 44 l 0
 558 50 562 53 565 53 c 0
 571 53 581 36 581 28 c 0
 581 23 578 17 571 9 c 0
 475 -98 l 0
 457 -118 448 -130 440 -130 c 0
 432 -130 425 -119 410 -96 c 0
 362 -21 l 0
 350 -2 343 8 335 8 c 0
 327 8 318 0 302 -18 c 0
 225 -104 l 0
 209 -122 202 -131 195 -131 c 0
 187 -131 181 -121 168 -100 c 0
 115 -18 l 0
 104 -1 98 8 90 8 c 0
 82 8 73 0 58 -17 c 0
 36 -42 l 0
 29 -49 25 -52 21 -52 c 0
EndSplineSet
Validated: 1
EndChar

StartChar: guillemotleft
Encoding: 171 171 140
GlifName: guillemotleft
Width: 826
Flags: W
HStem: 112 20G<144 151 388 394.5 633 639.5>
LayerCount: 2
Fore
SplineSet
534 23 m 0
 608 106 l 0
 622.655 122.438 630 132 636 132 c 0
 643 132 649 123 662 103 c 0
 716 17 l 0
 727 1 733 -8 741 -8 c 0
 749 -8 759 2 778 22 c 0
 798 44 l 0
 803 50 807 53 810 53 c 0
 816 53 826 36 826 28 c 0
 826 23 823 17 816 9 c 0
 720 -98 l 0
 702 -118 693 -130 685 -130 c 0
 677 -130 670 -119 655 -96 c 0
 607 -21 l 0
 595 -2 588 8 580 8 c 0
 572 8 563.106 -0.09473 546.992 -18 c 0
 475 -98 l 0
 457 -118.002 448 -130 440 -130 c 0
 432 -130 425 -119 410 -96 c 0
 362 -21 l 0
 350 -2 343 8 335 8 c 0
 327 8 318 0 302 -18 c 0
 225 -104 l 0
 209 -122 202 -131 195 -131 c 0
 187 -131 181 -121 168 -100 c 0
 115 -18 l 0
 104 -1 98 8 90 8 c 0
 82 8 73 0 58 -17 c 0
 36 -42 l 0
 29 -49 25 -52 21 -52 c 0
 15 -52 4 -35 4 -28 c 0
 4 -23 7 -18 14 -11 c 0
 119 107 l 0
 133 123 141 131 147 131 c 0
 155 131 161 120 175 98 c 0
 224 20 l 0
 235 3 243 -5 251 -5 c 0
 261 -5 271 4 288 23 c 0
 363 106 l 0
 377 123 385 132 391 132 c 0
 398 132 404 123 417 103 c 0
 471 17 l 0
 482 1 488 -8 496 -8 c 0
 504 -8 515.282 2.0059 534 23 c 0
EndSplineSet
Validated: 1
EndChar

StartChar: uni00AD
Encoding: 173 173 141
GlifName: uni00A_D_
Width: 560
Flags: W
HStem: -134 58<49.9959 133.5 396.709 499.778> 80 54<60.222 158.54 426.5 510.004>
VStem: 0 32<-59.4597 45.9837> 528 32<-45.9837 59.4597>
LayerCount: 2
Fore
SplineSet
0 -3 m 0
 0 67 54 134 128 134 c 0
 168 134 198 119 235 85 c 0
 377 -39 l 0
 397 -55 424 -80 452 -80 c 0
 489 -80 528 -48 528 4 c 0
 528 33 516 76 481 76 c 0
 457 76 455 44 423 44 c 0
 398 44 383 60 383 84 c 0
 383 112 407 134 446 134 c 0
 514 134 560 74 560 3 c 0
 560 -67 506 -134 432 -134 c 0
 392 -134 362 -119 325 -85 c 0
 183 39 l 0
 163 55 136 80 108 80 c 0
 71 80 32 48 32 -4 c 0
 32 -33 44 -76 79 -76 c 0
 103 -76 105 -44 137 -44 c 0
 162 -44 177 -60 177 -84 c 0
 177 -112 153 -134 114 -134 c 0
 46 -134 0 -74 0 -3 c 0
EndSplineSet
Validated: 1
EndChar

StartChar: macron
Encoding: 175 175 142
GlifName: macron
Width: 1464
Flags: W
HStem: -194 21G<0 7 69 77 360 367 429 437 720 727 789 797 1080 1087 1149 1157> -25 32<178.998 243.386 538.998 603.565 898.998 963.077 1259 1323.74> 182 21G<30.5 36> 235 35<65.7104 120.002 241.689 298.848 425.174 480.002 601.689 658.83 785.788 840.002 961.689 1019.07 1145.89 1200 1321.69 1378.52>
VStem: 121 46<68 211> 481 46<68 211> 841 46<68 211> 1201 46<68 211> 1386 78<96.4096 228.746>
LayerCount: 2
Fore
SplineSet
887 68 m 0
 887 32 902 7 928 7 c 0
 972 7 999 66 1019 143 c 0
 1024 160 1026 175 1026 187 c 0
 1026 220 1012 231 994 231 c 0
 941 231 887 139 887 68 c 0
167 68 m 0
 167 32 182 7 208 7 c 0
 252 7 279 66 299 143 c 0
 304 160 306 175 306 187 c 0
 306 220 292 231 274 231 c 0
 221 231 167 139 167 68 c 0
34 182 m 0
 27 182 12 189 12 194 c 0
 12 196 14 199 17 204 c 0
 35 234 67 270 113 270 c 0
 142 270 158 259 172 242 c 0
 180 232 187 225 196 225 c 0
 201 225 206 228 212 233 c 0
 237 254 266 266 290 266 c 0
 316 266 339 256 356 240 c 0
 364 231 372 226 381 226 c 0
 387 226 394 229 401 236 c 0
 421 257 446 270 473 270 c 0
 502 270 518 259 532 242 c 0
 540 232 547 225 556 225 c 0
 561 225 566 228 572 233 c 0
 597 254 626 266 650 266 c 0
 676 266 698 257 714 241 c 0
 723 233 732 227 742 227 c 0
 748 227 755 230 761 236 c 0
 781 257 806 270 833 270 c 0
 862 270 878 259 892 242 c 0
 900 232 907 225 916 225 c 0
 921 225 926 228 932 233 c 0
 957 254 986 266 1010 266 c 0
 1034 266 1055 258 1071 244 c 0
 1082 234 1092 228 1102 228 c 0
 1109 228 1116 231 1124 239 c 0
 1143 258 1167 270 1193 270 c 0
 1222 270 1238 259 1252 242 c 0
 1260 232 1267 225 1276 225 c 0
 1281 225 1286 228 1292 233 c 0
 1317 254 1346 266 1370 266 c 0
 1426 266 1464 224 1464 161 c 0
 1464 59 1379 -25 1303 -25 c 0
 1283 -25 1269 -22 1254 -13 c 0
 1247 -9 1239 -6 1233 -6 c 0
 1224 -6 1217 -10 1214 -21 c 0
 1166 -182 l 0
 1163 -192 1160 -194 1154 -194 c 0
 1144 -194 1140 -183 1119 -183 c 0
 1099 -183 1092 -194 1082 -194 c 0
 1078 -194 1076 -192 1076 -189 c 0
 1076 -187 1077 -184 1078 -181 c 0
 1194 177 l 0
 1197 186 1201 199 1201 211 c 0
 1201 224 1196 235 1181 235 c 0
 1160 235 1138 215 1120 184 c 0
 1107 161 1105 134 1095 105 c 0
 1072 30 1004 -25 943 -25 c 0
 923 -25 909 -22 894 -13 c 0
 887 -9 879 -6 873 -6 c 0
 864 -6 857 -10 854 -21 c 0
 806 -182 l 0
 803 -192 800 -194 794 -194 c 0
 784 -194 780 -183 759 -183 c 0
 739 -183 732 -194 722 -194 c 0
 718 -194 716 -192 716 -189 c 0
 716 -187 717 -184 718 -181 c 0
 834 177 l 0
 837 186 841 199 841 211 c 0
 841 224 836 235 821 235 c 0
 798 235 773 211 755 174 c 0
 746 157 744 138 738 116 c 0
 718 35 647 -25 583 -25 c 0
 563 -25 549 -22 534 -13 c 0
 527 -9 519 -6 513 -6 c 0
 504 -6 497 -10 494 -21 c 0
 446 -182 l 0
 443 -192 440 -194 434 -194 c 0
 424 -194 420 -183 399 -183 c 0
 379 -183 372 -194 362 -194 c 0
 358 -194 356 -192 356 -189 c 0
 356 -187 357 -184 358 -181 c 0
 474 177 l 0
 477 186 481 199 481 211 c 0
 481 224 476 235 461 235 c 0
 439 235 414 213 396 178 c 0
 386 158 384 136 377 111 c 0
 355 33 286 -25 223 -25 c 0
 203 -25 189 -22 174 -13 c 0
 167 -9 159 -6 153 -6 c 0
 144 -6 137 -10 134 -21 c 0
 86 -182 l 0
 83 -192 80 -194 74 -194 c 0
 64 -194 60 -183 39 -183 c 0
 19 -183 12 -194 2 -194 c 0
 -2 -194 -4 -192 -4 -189 c 0
 -4 -187 -3 -184 -2 -181 c 0
 114 177 l 0
 117 186 121 199 121 211 c 0
 121 224 116 235 101 235 c 0
 80 235 61 217 45 192 c 0
 41 185 38 182 34 182 c 0
527 68 m 0
 527 32 542 7 568 7 c 0
 612 7 639 66 659 143 c 0
 664 160 666 175 666 187 c 0
 666 220 652 231 634 231 c 0
 581 231 527 139 527 68 c 0
1247 68 m 0
 1247 32 1262 7 1288 7 c 0
 1332 7 1359 66 1379 143 c 0
 1384 160 1386 175 1386 187 c 0
 1386 220 1372 231 1354 231 c 0
 1301 231 1247 139 1247 68 c 0
EndSplineSet
Validated: 1
EndChar

StartChar: uni00B2
Encoding: 178 178 143
GlifName: uni00B_2
Width: 215
VWidth: 0
Flags: W
HStem: 434 20G<0 39.2712 176.743 215>
VStem: 0 215
LayerCount: 2
Fore
SplineSet
103 -38 m 2
 0 447 l 1
 35 454 l 1
 98 159 l 2
 101 145 116 150 118 158 c 2
 181 454 l 1
 215 447 l 1
 112 -38 l 2
 109 -51 107 -56 103 -38 c 2
EndSplineSet
Validated: 1
EndChar

StartChar: uni00B3
Encoding: 179 179 144
GlifName: uni00B_3
Width: 348
VWidth: 0
Flags: W
HStem: -36 110<165.243 253.757> 211 103<-2.0653 422.474>
VStem: -36.5 34<-51.9968 210.247> 154.5 110<-25.257 63.257> 422.5 34<-52 210.736>
LayerCount: 2
Fore
SplineSet
28 -5 m 1
 0 -5 l 1
 0 345 l 1
 348 345 l 1
 348 -5 l 1
 320 -5 l 1
 320 199 l 2
 320 208 309 215 304 215 c 2
 40 215 l 2
 36 215 28 208 28 202 c 2
 28 -5 l 1
EndSplineSet
Validated: 1
EndChar

StartChar: acute
Encoding: 180 180 145
GlifName: acute
Width: 274
Flags: W
HStem: -137 40<40 234> 97 40<40 234>
VStem: 0 40<-97 97> 234 40<-96.7879 97>
LayerCount: 2
Fore
SplineSet
40 82 m 0
 40 -79 l 0
 40 -88 52 -97 57 -97 c 0
 212 -97 l 0
 221 -97 234 -85 234 -77 c 0
 234 77 l 0
 234 85 223 97 215 97 c 0
 56 97 l 0
 50 97 40 86 40 82 c 0
0 137 m 0
 274 137 l 0
 274 -137 l 0
 0 -137 l 0
 0 137 l 0
EndSplineSet
Validated: 1
EndChar

StartChar: uni00B5
Encoding: 181 181 146
GlifName: uni00B_5
Width: 274
Flags: W
HStem: -137 274<0 274>
VStem: 0 274<-137 137>
LayerCount: 2
Fore
SplineSet
0 137 m 0
 274 137 l 0
 274 -137 l 0
 0 -137 l 0
 0 137 l 0
EndSplineSet
Validated: 1
EndChar

StartChar: paragraph
Encoding: 182 182 147
GlifName: paragraph
Width: 1342
Flags: W
HStem: -194 31<153.658 203.225 419.381 515.546 608.004 688.664 809.381 905.546 998.004 1078.66> -37 38<724.589 799.785 1114.59 1189.26> -8 25<52.8296 138.284> 82 20G<30 51> 157 21G<182.5 198.5> 207 31<260.144 343.169 451.699 533.683> 224 49<608.674 690.5 814.848 871.569 997.614 1080.5 1204.85 1261.34> 235 24<97.5729 175.336> 399 27<516.223 567.993>
VStem: 0 51<18.8619 83.2128> 43 37<170.459 223.391> 90 63<-160.699 -93.7197> 156 42<28.1294 97.8661> 177 48<172.793 233.831> 568 60<335.403 398.6> 667 45<57 201> 1057 45<57 201> 1264 78<95.3708 223.708>
LayerCount: 2
Fore
SplineSet
844 225 m 0xd893c0
 791 225 712 133 712 57 c 0
 712 29 733 1 757 1 c 0
 815 1 874 112 874 184 c 0
 874 213 861 225 844 225 c 0xd893c0
689 -174 m 0
 689 -187 682 -194 669 -194 c 0
 429 -194 l 0
 421 -194 419 -190 419 -184 c 0
 419 -171 424 -163 437 -163 c 0
 479 -163 l 0
 508 -163 513 -155 523 -133 c 0
 646 135 l 0
 658 161 667 185 667 201 c 0
 667 215 661 224 644 224 c 0
 606 224 566 158 535 93 c 0
 529 81 521 76 515 76 c 0
 510 76 505 80 505 88 c 0
 505 92 506 97 509 103 c 0
 545 186 588 273 678 273 c 0
 703 273 723 260 736 242 c 0
 746 228 752 221 761 221 c 0
 768 221 776 225 788 234 c 0
 815 254 843 269 869 269 c 0
 895 269 920 261 935 239 c 0
 944 227 950 221 957 221 c 0
 962 221 968 226 977 234 c 0
 1001 258 1030 273 1068 273 c 0
 1093 273 1113 260 1126 242 c 0
 1136 228 1142 221 1151 221 c 0
 1158 221 1166 225 1178 234 c 0
 1205 254 1233 269 1259 269 c 0
 1301 269 1342 247 1342 178 c 0
 1342 75 1265 -37 1166 -37 c 0
 1133 -37 1116 -25 1101 -11 c 0
 1091 -2 1083 2 1076 2 c 0
 1066 2 1060 -8 1054 -21 c 0
 1005 -129 l 0
 1001 -138 998 -145 998 -151 c 0
 998 -159 1004 -163 1018 -163 c 0
 1067 -163 l 0
 1076 -163 1079 -168 1079 -174 c 0
 1079 -187 1072 -194 1059 -194 c 0
 819 -194 l 0
 811 -194 809 -190 809 -184 c 0
 809 -171 814 -163 827 -163 c 0
 869 -163 l 0
 898 -163 903 -155 913 -133 c 0
 1036 135 l 0
 1048 161 1057 185 1057 201 c 0
 1057 215 1051 224 1034 224 c 0xda93c0
 1013 224 991 203 970 174 c 0
 955 152 949 131 939 102 c 0
 912 26 850 -37 776 -37 c 0
 743 -37 726 -25 711 -11 c 0
 701 -2 693 2 686 2 c 0
 676 2 670 -8 664 -21 c 0
 615 -129 l 0
 611 -138 608 -145 608 -151 c 0
 608 -159 614 -163 628 -163 c 0
 677 -163 l 0
 686 -163 689 -168 689 -174 c 0
1234 225 m 0
 1181 225 1102 133 1102 57 c 0
 1102 29 1123 1 1147 1 c 0
 1205 1 1264 112 1264 184 c 0
 1264 213 1251 225 1234 225 c 0
546 426 m 0
 590 426 628 398 628 357 c 0
 628 328 607 305 578 305 c 0
 558 305 541 319 541 339 c 0
 541 374 568 377 568 389 c 0
 568 396 559 399 550 399 c 0
 511 399 485 359 455 274 c 0
 447 248 453 238 474 238 c 0
 524 238 l 0
 532 238 538 236 534 223 c 0
 530 211 525 207 514 207 c 0
 468 207 l 0
 446 207 434 204 427 177 c 0
 417 141 l 0
 365 -49 272 -189 171 -189 c 0
 125 -189 90 -158 90 -116 c 0
 90 -87 111 -62 140 -62 c 0
 161 -62 181 -75 181 -98 c 0
 181 -137 153 -137 153 -151 c 0
 153 -157 157 -161 168 -161 c 0
 240 -161 282 -16 328 136 c 0
 342 180 l 0
 346 196 347 207 318 207 c 0
 270 207 l 0
 262 207 256 211 260 225 c 0
 263 237 270 238 282 238 c 0
 330 238 l 0x9c93c0
 355 238 363 245 373 268 c 0
 413 364 466 426 546 426 c 0
142 235 m 0xb9b7c0
 107 235 80 219 80 195 c 0xb9b7c0
 80 176 109 163 130 153 c 0
 166 136 198 114 198 74 c 0
 198 18 148 -8 90 -8 c 0
 41 -8 0 11 0 54 c 0
 0 81 18 102 42 102 c 0
 60 102 71 88 71 71 c 0
 71 52 51 48 51 35 c 0
 51 19 76 17 94 17 c 0
 129 17 156 35 156 61 c 0xb9dbc0
 156 89 135 101 101 116 c 0
 69 130 43 149 43 183 c 0
 43 233 93 259 145 259 c 0
 190 259 225 236 225 196 c 0
 225 170 207 157 190 157 c 0
 175 157 159 168 159 185 c 0
 159 203 177 207 177 218 c 0
 177 230 163 235 142 235 c 0xb9b7c0
EndSplineSet
Validated: 33
EndChar

StartChar: periodcentered
Encoding: 183 183 148
GlifName: periodcentered
Width: 350
Flags: W
HStem: 104 147<0 350> 238 13<-15 -3.42773 353.428 365>
LayerCount: 2
Fore
SplineSet
0 104 m 0x80
 0 223 l 0
 0 232 -10 238 -15 238 c 0
 -15 251 l 0
 365 251 l 0
 365 238 l 0x40
 360 238 350 232 350 223 c 0
 350 104 l 0
 0 104 l 0x80
EndSplineSet
Validated: 1
EndChar

StartChar: cedilla
Encoding: 184 184 149
GlifName: cedilla
Width: 1104
Flags: W
HStem: -194 21G<0 7 69 77 360 367 429 437 720 727 789 797> -25 32<178.998 243.386 538.998 603.565 898.998 963.745> 182 21G<30.5 36> 235 35<65.7104 120.002 241.689 298.848 425.174 480.002 601.689 658.83 785.788 840.002 961.689 1018.52>
VStem: 121 46<68 211> 481 46<68 211> 841 46<68 211> 1026 78<96.4096 228.746>
LayerCount: 2
Fore
SplineSet
527 68 m 0
 527 32 542 7 568 7 c 0
 612 7 639 66 659 143 c 0
 664 160 666 175 666 187 c 0
 666 220 652 231 634 231 c 0
 581 231 527 139 527 68 c 0
34 182 m 0
 27 182 12 189 12 194 c 0
 12 196 14 199 17 204 c 0
 35 234 67 270 113 270 c 0
 142 270 158 259 172 242 c 0
 180 232 187 225 196 225 c 0
 201 225 206 228 212 233 c 0
 237 254 266 266 290 266 c 0
 316 266 339 256 356 240 c 0
 364 231 372 226 381 226 c 0
 387 226 394 229 401 236 c 0
 421 257 446 270 473 270 c 0
 502 270 518 259 532 242 c 0
 540 232 547 225 556 225 c 0
 561 225 566 228 572 233 c 0
 597 254 626 266 650 266 c 0
 676 266 698 257 714 241 c 0
 723 233 732 227 742 227 c 0
 748 227 755 230 761 236 c 0
 781 257 806 270 833 270 c 0
 862 270 878 259 892 242 c 0
 900 232 907 225 916 225 c 0
 921 225 926 228 932 233 c 0
 957 254 986 266 1010 266 c 0
 1066 266 1104 224 1104 161 c 0
 1104 59 1019 -25 943 -25 c 0
 923 -25 909 -22 894 -13 c 0
 887 -9 879 -6 873 -6 c 0
 864 -6 857 -10 854 -21 c 0
 806 -182 l 0
 803 -192 800 -194 794 -194 c 0
 784 -194 780 -183 759 -183 c 0
 739 -183 732 -194 722 -194 c 0
 718 -194 716 -192 716 -189 c 0
 716 -187 717 -184 718 -181 c 0
 834 177 l 0
 837 186 841 199 841 211 c 0
 841 224 836 235 821 235 c 0
 798 235 773 211 755 174 c 0
 746 157 744 138 738 116 c 0
 718 35 647 -25 583 -25 c 0
 563 -25 549 -22 534 -13 c 0
 527 -9 519 -6 513 -6 c 0
 504 -6 497 -10 494 -21 c 0
 446 -182 l 0
 443 -192 440 -194 434 -194 c 0
 424 -194 420 -183 399 -183 c 0
 379 -183 372 -194 362 -194 c 0
 358 -194 356 -192 356 -189 c 0
 356 -187 357 -184 358 -181 c 0
 474 177 l 0
 477 186 481 199 481 211 c 0
 481 224 476 235 461 235 c 0
 439 235 414 213 396 178 c 0
 386 158 384 136 377 111 c 0
 355 33 286 -25 223 -25 c 0
 203 -25 189 -22 174 -13 c 0
 167 -9 159 -6 153 -6 c 0
 144 -6 137 -10 134 -21 c 0
 86 -182 l 0
 83 -192 80 -194 74 -194 c 0
 64 -194 60 -183 39 -183 c 0
 19 -183 12 -194 2 -194 c 0
 -2 -194 -4 -192 -4 -189 c 0
 -4 -187 -3 -184 -2 -181 c 0
 114 177 l 0
 117 186 121 199 121 211 c 0
 121 224 116 235 101 235 c 0
 80 235 61 217 45 192 c 0
 41 185 38 182 34 182 c 0
167 68 m 0
 167 32 182 7 208 7 c 0
 252 7 279 66 299 143 c 0
 304 160 306 175 306 187 c 0
 306 220 292 231 274 231 c 0
 221 231 167 139 167 68 c 0
887 68 m 0
 887 32 902 7 928 7 c 0
 972 7 999 66 1019 143 c 0
 1024 160 1026 175 1026 187 c 0
 1026 220 1012 231 994 231 c 0
 941 231 887 139 887 68 c 0
EndSplineSet
Validated: 1
EndChar

StartChar: uni00B9
Encoding: 185 185 150
GlifName: uni00B_9
Width: 744
Flags: W
HStem: -194 21G<0 7 69 77 360 367 429 437> -25 32<178.998 243.386 538.998 603.745> 182 21G<30.5 36> 235 35<65.7104 120.002 241.689 298.848 425.174 480.002 601.689 658.515>
VStem: 121 46<68 211> 481 46<68 211> 666 78<96.4096 228.746>
LayerCount: 2
Fore
SplineSet
167 68 m 0
 167 32 182 7 208 7 c 0
 252 7 279 66 299 143 c 0
 304 160 306 175 306 187 c 0
 306 220 292 231 274 231 c 0
 221 231 167 139 167 68 c 0
34 182 m 0
 27 182 12 189 12 194 c 0
 12 196 14 199 17 204 c 0
 35 234 67 270 113 270 c 0
 142 270 158 259 172 242 c 0
 180 232 187 225 196 225 c 0
 201 225 206 228 212 233 c 0
 237 254 266 266 290 266 c 0
 316 266 339 256 356 240 c 0
 364 231 372 226 381 226 c 0
 387 226 394 229 401 236 c 0
 421 257 446 270 473 270 c 0
 502 270 518 259 532 242 c 0
 540 232 547 225 556 225 c 0
 561 225 566 228 572 233 c 0
 597 254 626 266 650 266 c 0
 706 266 744 224 744 161 c 0
 744 59 659 -25 583 -25 c 0
 563 -25 549 -22 534 -13 c 0
 527 -9 519 -6 513 -6 c 0
 504 -6 497 -10 494 -21 c 0
 446 -182 l 0
 443 -192 440 -194 434 -194 c 0
 424 -194 420 -183 399 -183 c 0
 379 -183 372 -194 362 -194 c 0
 358 -194 356 -192 356 -189 c 0
 356 -187 357 -184 358 -181 c 0
 474 177 l 0
 477 186 481 199 481 211 c 0
 481 224 476 235 461 235 c 0
 439 235 414 213 396 178 c 0
 386 158 384 136 377 111 c 0
 355 33 286 -25 223 -25 c 0
 203 -25 189 -22 174 -13 c 0
 167 -9 159 -6 153 -6 c 0
 144 -6 137 -10 134 -21 c 0
 86 -182 l 0
 83 -192 80 -194 74 -194 c 0
 64 -194 60 -183 39 -183 c 0
 19 -183 12 -194 2 -194 c 0
 -2 -194 -4 -192 -4 -189 c 0
 -4 -187 -3 -184 -2 -181 c 0
 114 177 l 0
 117 186 121 199 121 211 c 0
 121 224 116 235 101 235 c 0
 80 235 61 217 45 192 c 0
 41 185 38 182 34 182 c 0
527 68 m 0
 527 32 542 7 568 7 c 0
 612 7 639 66 659 143 c 0
 664 160 666 175 666 187 c 0
 666 220 652 231 634 231 c 0
 581 231 527 139 527 68 c 0
EndSplineSet
Validated: 1
EndChar

StartChar: ordmasculine
Encoding: 186 186 151
GlifName: ordmasculine
Width: 424
Flags: W
HStem: 100 53<112 136>
VStem: 0 50<411 427.5> 157 69<34 51.5>
LayerCount: 2
Fore
SplineSet
292 112.000976562 m 0
 270 112.000976562 250 103.000976562 234 88.0009765625 c 1
 234 -89.9990234375 l 2
 234 -102.999023438 251.115234375 -107.166992188 257 -102.999023438 c 0
 308.80078125 -66.306640625 346 -28.9990234375 346 31.0009765625 c 0
 346 89.0009765625 324 112.000976562 292 112.000976562 c 0
88 112 m 0
 66 112 46 103 30 88 c 1
 30 -90 l 2
 30 -103 47.1155637827 -107.168142321 53 -103 c 0
 104.801156069 -66.3075144509 142 -29 142 31 c 0
 142 89 120 112 88 112 c 0
0 445 m 1
 52 445 l 1
 52 157 l 2
 52 149 68 137 80 141 c 0
 99 149 117 153 133 153 c 0
 151 153 168 148 182 138 c 0
 193 131 204 145 204 148 c 2
 204 445 l 1
 256 445 l 1
 256 157 l 2
 256 149 272 137 284 141 c 0
 303 149 321 153 337 153 c 0
 384 153 424 117 424 62 c 0
 424 -25 331 -80 267 -132 c 2
 220 -170 l 2
 206 -181 204 -182 204 -162 c 2
 204 -36 l 2
 204 -28 188 -24 182 -30 c 0
 149 -69 101 -101 63 -132 c 2
 16 -170 l 2
 2 -181 0 -182 0 -162 c 2
 0 81 l 1
 0 101 l 1
 0 445 l 1
EndSplineSet
Validated: 33
EndChar

StartChar: guillemotright
Encoding: 187 187 152
GlifName: guillemotright
Width: 280
Flags: W
HStem: 125 20G<137 141>
VStem: 73 130<-71.7344 -7.125>
LayerCount: 2
Fore
SplineSet
150 129 m 0
 168 76 l 0
 176 50 178 48 205 48 c 0
 262 48 l 0
 275 48 280 45 280 41 c 0
 280 38 276 33 268 27 c 0
 226 -6 l 0
 209 -18 203 -23 203 -31 c 0
 203 -35 205 -40 208 -48 c 0
 224 -97 l 0
 228 -106 229 -114 229 -118 c 0
 229 -123 228 -125 225 -125 c 0
 221 -125 214 -121 204 -114 c 0
 162 -81 l 0
 154 -75 148 -72 141 -72 c 0
 134 -72 128 -75 119 -81 c 0
 70 -118 l 0
 62 -123 57 -126 53 -126 c 0
 50 -126 48 -124 48 -119 c 0
 48 -116 49 -111 51 -105 c 0
 70 -46 l 0
 72 -40 73 -36 73 -32 c 0
 73 -24 70 -19 60 -12 c 0
 10 27 l 0
 4 32 0 37 0 41 c 0
 0 45 5 48 18 48 c 0
 72 48 l 0
 97 48 101 51 108 70 c 0
 128 127 l 0
 132 139 135 145 139 145 c 0
 143 145 146 140 150 129 c 0
EndSplineSet
Validated: 1
EndChar

StartChar: onequarter
Encoding: 188 188 153
GlifName: onequarter
Width: 380
Flags: W
HStem: 145 9G<137 141 303 308>
VStem: 73 130<-71.7344 -7.125> 350 30<-91.3272 81.748>
LayerCount: 2
Fore
SplineSet
380 -5 m 0
 380 -85 342.047 -150.415 322 -174 c 0
 316.029 -181.024 310 -184 306 -184 c 0
 300 -184 298 -181 298 -174 c 0
 298 -170 300.459 -164.282 304 -158 c 0
 319.5 -130.5 350 -80.5 350 -5 c 0
 350 71.5 319.5 120.5 304 148 c 0
 300.459 154.282 298 160 298 164 c 0
 298 171 300 174 306 174 c 0
 310 174 316.029 171.024 322 164 c 0
 342.047 140.415 380 76 380 -5 c 0
150 129 m 0
 168 76 l 0
 176 50 178 48 205 48 c 0
 262 48 l 0
 275 48 280 45 280 41 c 0
 280 38 276 33 268 27 c 0
 226 -6 l 0
 209 -18 203 -23 203 -31 c 0
 203 -35 205 -40 208 -48 c 0
 224 -97 l 0
 228 -106 229 -114 229 -118 c 0
 229 -123 228 -125 225 -125 c 0
 221 -125 214 -121 204 -114 c 0
 162 -81 l 0
 154 -75 148 -72 141 -72 c 0
 134 -72 128 -75 119 -81 c 0
 70 -118 l 0
 62 -123 57 -126 53 -126 c 0
 50 -126 48 -124 48 -119 c 0
 48 -116 49 -111 51 -105 c 0
 70 -46 l 0
 72 -40 73 -36 73 -32 c 0
 73 -24 70 -19 60 -12 c 0
 10 27 l 0
 4 32 0 37 0 41 c 0
 0 45 5 48 18 48 c 0
 72 48 l 0
 97 48 101 51 108 70 c 0
 128 127 l 0
 132 139 135 145 139 145 c 0
 143 145 146 140 150 129 c 0
EndSplineSet
Validated: 1
EndChar

StartChar: onehalf
Encoding: 189 189 154
GlifName: onehalf
Width: 700
Flags: W
HStem: 125 20G<137 141 457 461 623 628>
VStem: 73 130<-71.7344 -7.125> 393 130<-71.7344 -7.125> 670 30<-91.3272 81.748>
LayerCount: 2
Fore
SplineSet
470 129 m 0
 488 76 l 0
 496 50 498 48 525 48 c 0
 582 48 l 0
 595 48 600 45 600 41 c 0
 600 38 596 33 588 27 c 0
 546 -6 l 0
 529 -18 523 -23 523 -31 c 0
 523 -35 525 -40 528 -48 c 0
 544 -97 l 0
 548 -106 549 -114 549 -118 c 0
 549 -123 548 -125 545 -125 c 0
 541 -125 534 -121 524 -114 c 0
 482 -81 l 0
 474 -75 468 -72 461 -72 c 0
 454 -72 448 -75 439 -81 c 0
 390 -118 l 0
 382 -123 377 -126 373 -126 c 0
 370 -126 368 -124 368 -119 c 0
 368 -116 369 -111 371 -105 c 0
 390 -46 l 0
 392 -40 393 -36 393 -32 c 0
 393 -24 390 -19 380 -12 c 0
 330 27 l 0
 324 32 320 37 320 41 c 0
 320 45 325 48 338 48 c 0
 392 48 l 0
 417 48 421 51 428 70 c 0
 448 127 l 0
 452 139 455 145 459 145 c 0
 463 145 466 140 470 129 c 0
700 -5 m 0
 700 -85 662.047 -150.415 642 -174 c 0
 636.029 -181.024 630 -184 626 -184 c 0
 620 -184 618 -181 618 -174 c 0
 618 -170 620.459 -164.282 624 -158 c 0
 639.5 -130.5 670 -80.5 670 -5 c 0
 670 71.5 639.5 120.5 624 148 c 0
 620.459 154.282 618 160 618 164 c 0
 618 171 620 174 626 174 c 0
 630 174 636.029 171.024 642 164 c 0
 662.047 140.415 700 76 700 -5 c 0
150 129 m 0
 168 76 l 0
 176 50 178 48 205 48 c 0
 262 48 l 0
 275 48 280 45 280 41 c 0
 280 38 276 33 268 27 c 0
 226 -6 l 0
 209 -18 203 -23 203 -31 c 0
 203 -35 205 -40 208 -48 c 0
 224 -97 l 0
 228 -106 229 -114 229 -118 c 0
 229 -123 228 -125 225 -125 c 0
 221 -125 214 -121 204 -114 c 0
 162 -81 l 0
 154 -75 148 -72 141 -72 c 0
 134 -72 128 -75 119 -81 c 0
 70 -118 l 0
 62 -123 57 -126 53 -126 c 0
 50 -126 48 -124 48 -119 c 0
 48 -116 49 -111 51 -105 c 0
 70 -46 l 0
 72 -40 73 -36 73 -32 c 0
 73 -24 70 -19 60 -12 c 0
 10 27 l 0
 4 32 0 37 0 41 c 0
 0 45 5 48 18 48 c 0
 72 48 l 0
 97 48 101 51 108 70 c 0
 128 127 l 0
 132 139 135 145 139 145 c 0
 143 145 146 140 150 129 c 0
EndSplineSet
Validated: 1
EndChar

StartChar: threequarters
Encoding: 190 190 155
GlifName: threequarters
Width: 1020
Flags: W
HStem: 125 20G<137 141 457 461 777 781 943 948>
VStem: 73 130<-71.7344 -7.125> 393 130<-71.7344 -7.125> 713 130<-71.7344 -7.125> 990 30<-91.3272 81.748>
LayerCount: 2
Fore
SplineSet
790 129 m 0
 808 76 l 0
 816 50 818 48 845 48 c 0
 902 48 l 0
 915 48 920 45 920 41 c 0
 920 38 916 33 908 27 c 0
 866 -6 l 0
 849 -18 843 -23 843 -31 c 0
 843 -35 845 -40 848 -48 c 0
 864 -97 l 0
 868 -106 869 -114 869 -118 c 0
 869 -123 868 -125 865 -125 c 0
 861 -125 854 -121 844 -114 c 0
 802 -81 l 0
 794 -75 788 -72 781 -72 c 0
 774 -72 768 -75 759 -81 c 0
 710 -118 l 0
 702 -123 697 -126 693 -126 c 0
 690 -126 688 -124 688 -119 c 0
 688 -116 689 -111 691 -105 c 0
 710 -46 l 0
 712 -40 713 -36 713 -32 c 0
 713 -24 710 -19 700 -12 c 0
 650 27 l 0
 644 32 640 37 640 41 c 0
 640 45 645 48 658 48 c 0
 712 48 l 0
 737 48 741 51 748 70 c 0
 768 127 l 0
 772 139 775 145 779 145 c 0
 783 145 786 140 790 129 c 0
470 129 m 0
 488 76 l 0
 496 50 498 48 525 48 c 0
 582 48 l 0
 595 48 600 45 600 41 c 0
 600 38 596 33 588 27 c 0
 546 -6 l 0
 529 -18 523 -23 523 -31 c 0
 523 -35 525 -40 528 -48 c 0
 544 -97 l 0
 548 -106 549 -114 549 -118 c 0
 549 -123 548 -125 545 -125 c 0
 541 -125 534 -121 524 -114 c 0
 482 -81 l 0
 474 -75 468 -72 461 -72 c 0
 454 -72 448 -75 439 -81 c 0
 390 -118 l 0
 382 -123 377 -126 373 -126 c 0
 370 -126 368 -124 368 -119 c 0
 368 -116 369 -111 371 -105 c 0
 390 -46 l 0
 392 -40 393 -36 393 -32 c 0
 393 -24 390 -19 380 -12 c 0
 330 27 l 0
 324 32 320 37 320 41 c 0
 320 45 325 48 338 48 c 0
 392 48 l 0
 417 48 421 51 428 70 c 0
 448 127 l 0
 452 139 455 145 459 145 c 0
 463 145 466 140 470 129 c 0
1020 -5 m 0
 1020 -85 982.047 -150.415 962 -174 c 0
 956.029 -181.024 950 -184 946 -184 c 0
 940 -184 938 -181 938 -174 c 0
 938 -170 940.459 -164.282 944 -158 c 0
 959.5 -130.5 990 -80.5 990 -5 c 0
 990 71.5 959.5 120.5 944 148 c 0
 940.459 154.282 938 160 938 164 c 0
 938 171 940 174 946 174 c 0
 950 174 956.029 171.024 962 164 c 0
 982.047 140.415 1020 76 1020 -5 c 0
150 129 m 0
 168 76 l 0
 176 50 178 48 205 48 c 0
 262 48 l 0
 275 48 280 45 280 41 c 0
 280 38 276 33 268 27 c 0
 226 -6 l 0
 209 -18 203 -23 203 -31 c 0
 203 -35 205 -40 208 -48 c 0
 224 -97 l 0
 228 -106 229 -114 229 -118 c 0
 229 -123 228 -125 225 -125 c 0
 221 -125 214 -121 204 -114 c 0
 162 -81 l 0
 154 -75 148 -72 141 -72 c 0
 134 -72 128 -75 119 -81 c 0
 70 -118 l 0
 62 -123 57 -126 53 -126 c 0
 50 -126 48 -124 48 -119 c 0
 48 -116 49 -111 51 -105 c 0
 70 -46 l 0
 72 -40 73 -36 73 -32 c 0
 73 -24 70 -19 60 -12 c 0
 10 27 l 0
 4 32 0 37 0 41 c 0
 0 45 5 48 18 48 c 0
 72 48 l 0
 97 48 101 51 108 70 c 0
 128 127 l 0
 132 139 135 145 139 145 c 0
 143 145 146 140 150 129 c 0
EndSplineSet
Validated: 1
EndChar

StartChar: questiondown
Encoding: 191 191 156
GlifName: questiondown
Width: 372
Flags: W
HStem: 136 20G<165.316 209.769>
LayerCount: 2
Fore
SplineSet
219 -80 m 0
 272 -36 l 0
 280 -29 277 -9 272 -5 c 0
 259 4 242 17 220 36 c 0
 201 52 183 69 173 79 c 0
 170 82 158 83 154 79 c 0
 98 33 l 0
 91 28 92 10 97 7 c 0
 109 -2 128 -16 152 -37 c 0
 169 -51 185 -66 196 -76 c 0
 201 -82 214 -84 219 -80 c 0
9 4 m 0
 189 156 l 0
 189 156 239 104 270 78 c 0
 307 47 350 18 366 7 c 0
 371 3 370 2 368 -1 c 0
 183 -156 l 0
 183 -156 133 -104 102 -78 c 0
 67 -49 26 -19 8 -9 c 0
 2 -4 2 -1 9 4 c 0
EndSplineSet
Validated: 1
EndChar

StartChar: Agrave
Encoding: 192 192 157
GlifName: A_grave
Width: 280
Flags: W
HStem: -29 60<114.375 165.625> 120 19G<17.5 22 257.5 261.5>
VStem: 109 63<-27.0625 27.375>
LayerCount: 2
Fore
SplineSet
259 140 m 0
 264 140 279 124 279 119 c 0
 279 116 277 113 273 109 c 0
 182 18 l 0
 175 11 172 5 172 0 c 0
 172 -6 175 -11 181 -17 c 0
 273 -109 l 0
 277 -113 280 -116 280 -119 c 0
 280 -125 264 -140 259 -140 c 0
 256 -140 253 -137 249 -133 c 0
 157 -41 l 0
 149 -33 144 -29 140 -29 c 0
 136 -29 132 -32 126 -38 c 0
 33 -131 l 0
 27 -137 24 -140 20 -140 c 0
 15 -140 0 -124 0 -120 c 0
 0 -116 4 -112 11 -105 c 0
 99 -16 l 0
 105 -9 109 -5 109 0 c 0
 109 4 106 9 99 16 c 0
 9 107 l 0
 3 113 0 116 0 119 c 0
 0 125 15 139 20 139 c 0
 24 139 28 136 35 129 c 0
 121 43 l 0
 129 35 135 31 140 31 c 0
 145 31 150 34 157 41 c 0
 249 133 l 0
 253 137 256 140 259 140 c 0
EndSplineSet
Validated: 1
EndChar

StartChar: Aacute
Encoding: 193 193 158
GlifName: A_acute
Width: 210
Flags: W
HStem: -27 55<76.8125 133.219> 85 20G<13.5 18 192.5 196>
VStem: 76 59<-26.375 27.25>
LayerCount: 2
Fore
SplineSet
194 105 m 0
 198 105 210 93 210 89 c 0
 210 86 208 83 203 78 c 0
 145 20 l 0
 139 14 135 7 135 0 c 0
 135 -7 138 -13 144 -19 c 0
 203 -78 l 0
 208 -83 210 -86 210 -89 c 0
 210 -94 199 -105 194 -105 c 0
 191 -105 188 -103 183 -98 c 0
 124 -39 l 0
 116 -31 111 -27 105 -27 c 0
 100 -27 95 -30 89 -36 c 0
 29 -96 l 0
 23 -102 19 -105 15 -105 c 0
 11 -105 0 -95 0 -90 c 0
 0 -86 3 -82 11 -74 c 0
 66 -18 l 0
 72 -11 76 -6 76 0 c 0
 76 5 73 11 66 18 c 0
 9 76 l 0
 2 83 0 86 0 90 c 0
 0 94 11 105 16 105 c 0
 20 105 24 101 31 94 c 0
 84 41 l 0
 93 32 100 28 106 28 c 0
 112 28 117 32 124 39 c 0
 183 98 l 0
 188 103 191 105 194 105 c 0
EndSplineSet
Validated: 1
EndChar

StartChar: Acircumflex
Encoding: 194 194 159
GlifName: A_circumflex
Width: 354
Flags: W
HStem: 157 20G<157 197>
LayerCount: 2
Fore
SplineSet
67 -11 m 0
 164 -107 l 0
 170 -113 185 -112 189 -108 c 0
 282 -16 l 0
 288 -10 289 8 283 14 c 0
 191 106 l 0
 185 112 170 113 164 107 c 0
 68 11 l 0
 64 7 64 -8 67 -11 c 0
0 0 m 0
 177 177 l 0
 354 0 l 0
 177 -177 l 0
 0 0 l 0
EndSplineSet
Validated: 1
EndChar

StartChar: Atilde
Encoding: 195 195 160
GlifName: A_tilde
Width: 354
Flags: W
HStem: 157 20G<157 197>
LayerCount: 2
Fore
SplineSet
0 0 m 0
 177 177 l 0
 354 0 l 0
 177 -177 l 0
 0 0 l 0
EndSplineSet
Validated: 1
EndChar

StartChar: Adieresis
Encoding: 196 196 161
GlifName: A_dieresis
Width: 642
Flags: W
HStem: -144 28<-13.6921 44.6857 263.308 318.867> 229 33<77.7302 157.438 265.664 427.438 535.829 614.603> 418 28<322.833 378.692 595.809 655.692>
VStem: -80 66<-115.484 -49.1934> 197 66<-115.484 -49.1934> 379 66<350.484 417.484> 656 66<350.484 417.484>
LayerCount: 2
Fore
SplineSet
267 287 m 0
 259 265 265 262 285 262 c 0
 419 262 l 0
 442 262 446 266 454 286 c 0
 498 391 558 446 635 446 c 0
 679 446 722 414 722 373 c 0
 722 345 705 320 674 320 c 0
 646 320 629 341 629 360 c 0
 629 394 656 397 656 408 c 0
 656 415 645 418 636 418 c 0
 589 418 566 382 537 287 c 0
 530 265 535 262 555 262 c 0
 605 262 l 0
 615 262 619.974 260.01 615 246 c 0
 608.969 229.012 605 229 595 229 c 0
 543 229 l 0
 522 229 519 224 512 199 c 0
 489 113 l 0
 444.696 -52.657 376 -144 284 -144 c 0
 240 -144 197 -112 197 -71 c 0
 197 -43 217 -18 248 -18 c 0
 276 -18 290 -39 290 -58 c 0
 290 -92 263 -95 263 -106 c 0
 263 -113 273 -116 282 -116 c 0
 340 -116 366 -48 413 151 c 0
 423 189 l 0
 431.951 223.013 432 229 408 229 c 0
 273 229 l 0
 252 229 248 224 242 199 c 0
 219 113 l 0
 174.631 -52.901 106 -144 7 -144 c 0
 -37 -144 -80 -112 -80 -71 c 0
 -80 -43 -60 -18 -29 -18 c 0
 -1 -18 13 -39 13 -58 c 0
 13 -92 -14 -95 -14 -106 c 0
 -14 -113 -4 -116 5 -116 c 0
 70 -116 90.9014 -46.9736 143 151 c 0
 153 189 l 0
 161.951 223.013 162 229 138 229 c 0
 86 229 l 0
 74 229 71 230 77 248 c 0
 81 262 83 262 98 262 c 0
 149 262 l 0
 172 262 175 266 184 286 c 0
 228 391 288 446 358 446 c 0
 402 446 445 414 445 373 c 0
 445 345 428 320 397 320 c 0
 369 320 352 341 352 360 c 0
 352 394 379 397 379 408 c 0
 379 415 368 418 359 418 c 0
 319 418 296 382 267 287 c 0
EndSplineSet
Validated: 33
EndChar

StartChar: Aring
Encoding: 197 197 162
GlifName: A_ring
Width: 322
Flags: W
HStem: 301 46<102 205.753> 415 20G<293.5 322>
VStem: 0 136<97.5012 179.137> 46 136<347.501 429.137> 140 56<-254 -222.92>
LayerCount: 2
Fore
SplineSet
252 349 m 0xe8
 213 323 165 301 123 301 c 0
 81 301 46 329 46 375 c 0
 46 416 76 450 114 450 c 0
 152 450 182 422 182 381 c 0xd0
 182 374 181 367 181 362 c 0
 181 355 187 347 198 347 c 0
 201 347 205 348 207 349 c 0
 243 368 279 401 308 435 c 0
 322 432 l 0
 196 -254 l 0
 140 -254 l 0
 215 79 l 0
 217 89 201 96 195 92 c 0
 161 72 116 51 77 51 c 0
 35 51 0 79 0 125 c 0
 0 166 30 200 68 200 c 0
 106 200 136 172 136 131 c 0
 136 124 135 117 135 112 c 0
 135 105 141 97 152 97 c 0
 155 97 159 98 161 99 c 0
 172 105 183 112 194 120 c 0
 227 145 241 181 253 242 c 0
 273 340 l 0
 274 347 260 354 252 349 c 0xe8
EndSplineSet
Validated: 1
EndChar

StartChar: AE
Encoding: 198 198 163
GlifName: A_E_
Width: 0
VWidth: 0
Flags: W
HStem: -107 214
LayerCount: 2
Fore
SplineSet
-170 7 m 1
 170 107 l 1
 170 -7 l 1
 -170 -107 l 1
 -170 7 l 1
EndSplineSet
Validated: 1
EndChar

StartChar: Ccedilla
Encoding: 199 199 164
GlifName: C_cedilla
Width: 0
VWidth: 0
Flags: W
LayerCount: 2
Fore
SplineSet
-170 105 m 1
 170 205 l 1
 170 91 l 1
 -170 -9 l 1
 -170 105 l 1
-170 -91 m 1
 170 9 l 1
 170 -105 l 1
 -170 -205 l 1
 -170 -91 l 1
EndSplineSet
Validated: 1
EndChar

StartChar: Egrave
Encoding: 200 200 165
GlifName: E_grave
Width: 0
VWidth: 0
Flags: W
HStem: 87 20G<102 170>
LayerCount: 2
Fore
SplineSet
-170 203 m 5
 170 303 l 5
 170 189 l 5
 -170 89 l 5
 -170 203 l 5
-170 -189 m 1
 170 -89 l 1
 170 -203 l 1
 -170 -303 l 1
 -170 -189 l 1
-170 7 m 1
 170 107 l 1
 170 -7 l 1
 -170 -107 l 1
 -170 7 l 1
EndSplineSet
Validated: 1
EndChar

StartChar: Eacute
Encoding: 201 201 166
GlifName: E_acute
Width: 0
VWidth: 0
Flags: W
HStem: 187 21G<-170 -102>
LayerCount: 2
Fore
SplineSet
-170 -287 m 1
 170 -187 l 1
 170 -301 l 1
 -170 -401 l 1
 -170 -287 l 1
-170 301 m 1
 170 401 l 1
 170 287 l 1
 -170 187 l 1
 -170 301 l 1
-170 105 m 1
 170 205 l 1
 170 91 l 1
 -170 -9 l 1
 -170 105 l 1
-170 -91 m 1
 170 9 l 1
 170 -105 l 1
 -170 -205 l 1
 -170 -91 l 1
EndSplineSet
Validated: 1
EndChar

StartChar: Ecircumflex
Encoding: 202 202 167
GlifName: E_circumflex
Width: 588
Flags: W
HStem: -143 230<300.594 394.654> -86 229<194 286.955>
LayerCount: 2
Fore
SplineSet
86 99 m 0x80
 117 122 170 143 218 143 c 0x40
 251 143 282 133 301 107 c 0
 311 94 320 87 330 87 c 0x80
 337 87 346 91 356 99 c 0
 387 123 440 143 488 143 c 0x40
 521 143 552 133 571 107 c 0
 583 91 588 73 588 54 c 0
 588 -4 543 -68 504 -98 c 0
 473 -121 419 -143 370 -143 c 0x80
 337 -143 306 -133 287 -107 c 0
 277 -93 269 -86 259 -86 c 0x40
 252 -86 244 -90 234 -98 c 0
 203 -122 149 -143 100 -143 c 0
 67 -143 36 -133 17 -107 c 0
 5 -91 0 -73 0 -54 c 0
 0 4 47 69 86 99 c 0x80
EndSplineSet
Validated: 1
EndChar

StartChar: Edieresis
Encoding: 203 203 168
GlifName: E_dieresis
Width: 672
Flags: W
HStem: -149 47<40.144 144.646 353.561 458.646> 102 47<213.354 318.274 528.099 631.856>
VStem: 0 37<-96.1712 -28.6136> 635 37<28.6136 96.1712>
LayerCount: 2
Fore
SplineSet
239 149 m 0
 285 149 330 134 349 98 c 0
 356 85 363 78 370 78 c 0
 376 78 382 81 388 87 c 0
 426 123 486 149 553 149 c 0
 614 149 672 123 672 58 c 0
 672 -4 618 -80 564 -114 c 0
 530 -135 479 -149 433 -149 c 0
 384 -149 337 -132 320 -92 c 0
 316 -81 311 -75 304 -75 c 0
 299 -75 294 -78 287 -84 c 0
 275 -96 263 -106 250 -114 c 0
 216 -135 165 -149 119 -149 c 0
 58 -149 0 -123 0 -58 c 0
 0 4 54 80 108 114 c 0
 142 135 193 149 239 149 c 0
321 67 m 0
 321 89 303 102 282 102 c 0
 252 102 208 80 151 45 c 0
 80 1 37 -35 37 -67 c 0
 37 -89 55 -102 76 -102 c 0
 106 -102 150 -80 207 -45 c 0
 278 -1 321 35 321 67 c 0
635 67 m 0
 635 89 617 102 596 102 c 0
 566 102 522 80 465 45 c 0
 394 1 351 -35 351 -67 c 0
 351 -89 369 -102 390 -102 c 0
 420 -102 464 -80 521 -45 c 0
 592 -1 635 35 635 67 c 0
EndSplineSet
Validated: 1
EndChar

StartChar: Igrave
Encoding: 204 204 169
GlifName: I_grave
Width: 894
Flags: W
HStem: -140 31<183.659 319.127 618.708 754.45> -77 154<404.007 488.923> 108 31<140.044 275.993 576.928 710.637>
VStem: 0 112<-21.842 64.7969> 782 112<-66.3594 20.842>
LayerCount: 2
Fore
SplineSet
0 -1 m 0
 1 112 143 139 234 139 c 0
 287 139 356 129 404 98 c 0
 426 84 438 77 450 77 c 0
 461 77 472 83 490 95 c 0
 539 129 614 139 670 139 c 0
 758 139 894 112 894 1 c 0
 894 -1 l 0
 893 -113 750 -140 660 -140 c 0
 605 -140 530 -129 482 -94 c 0
 467 -82 457 -77 447 -77 c 0
 434 -77 422 -85 400 -99 c 0
 350 -130 278 -140 224 -140 c 0
 136 -140 0 -113 0 -2 c 0
 0 -1 l 0
308 58 m 0
 292 92 258 108 213 108 c 0
 203 108 192 108 181 106 c 0
 129 98 112 73 112 44 c 0
 112 26 118 7 126 -10 c 0
 150 -59 l 0
 167 -93 200 -109 247 -109 c 0
 256 -109 266 -108 277 -107 c 0
 329 -100 346 -75 346 -45 c 0
 346 -28 340 -9 332 7 c 0
 308 58 l 0
744 58 m 0
 728 92 694 108 649 108 c 0
 639 108 628 108 617 106 c 0
 565 98 548 73 548 44 c 0
 548 26 554 7 562 -10 c 0
 586 -59 l 0
 603 -93 636 -109 683 -109 c 0
 692 -109 702 -108 713 -107 c 0
 765 -100 782 -75 782 -45 c 0
 782 -28 776 -9 768 7 c 0
 744 58 l 0
EndSplineSet
Validated: 1
EndChar

StartChar: Iacute
Encoding: 205 205 170
GlifName: I_acute
Width: 500
Flags: W
HStem: -140 280<192 311>
VStem: 6 26<-250 -81.9997 78.527 250> 468 26<-250 -71.726 76.7693 250>
LayerCount: 2
Fore
SplineSet
335 52 m 1
 323 97 275 123 214 115 c 0
 130 105 136 43 151 -7 c 2
 165 -52 l 2
 177 -93 224 -123 286 -115 c 0
 369 -105 363 -43 349 4 c 2
 335 52 l 1
0 250 m 1
 32 250 l 1
 32 86 l 2
 32 74 46 71 57 81 c 0
 106 126 192 140 255 140 c 0
 318 140 407 126 451 77 c 0
 456 72 468 72 468 82 c 2
 468 250 l 1
 500 250 l 1
 500 -250 l 1
 468 -250 l 1
 468 -77 l 2
 468 -70 456 -66 451 -72 c 0
 405 -124 311 -140 245 -140 c 0
 184 -140 101 -127 55 -83 c 0
 48 -76 32 -66 32 -90 c 2
 32 -250 l 1
 0 -250 l 1
 0 250 l 1
EndSplineSet
Validated: 33
EndChar

StartChar: Icircumflex
Encoding: 206 206 171
GlifName: I_circumflex
Width: 271
Flags: W
HStem: 428 20G<24 63.6897>
VStem: 0 93<-271.439 -172>
LayerCount: 2
Fore
SplineSet
179 -173 m 0
 136 -173 93 -208 93 -259 c 0
 93 -300 123 -338 165 -364 c 0
 150 -385 l 0
 43 -326 0 -256 0 -200 c 0
 0 -144 44 -102 113 -102 c 0
 118 -102 122 -102 127 -103 c 0
 133 -103 142 -88 136 -82 c 0
 78 -17 31 44 31 44 c 0
 49 80 l 0
 89 160 128 298 50 396 c 0
 24 428 l 0
 48 448 l 0
 230 216 l 0
 213 180 l 0
 165 78 135 -48 236 -151 c 0
 271 -187 l 0
 255 -205 l 0
 234 -184 206 -173 179 -173 c 0
EndSplineSet
Validated: 33
EndChar

StartChar: Idieresis
Encoding: 207 207 172
GlifName: I_dieresis
Width: 326
Flags: W
HStem: 121 20G<199.5 239.5>
LayerCount: 2
Fore
SplineSet
95 101 m 0
 130 125 178 141 221 141 c 0
 258 141 292 130 311 100 c 0
 322 85 326 68 326 50 c 0
 326 -6 280 -68 231 -101 c 0
 196 -125 148 -141 105 -141 c 0
 68 -141 34 -130 15 -100 c 0
 4 -85 0 -68 0 -50 c 0
 0 6 46 68 95 101 c 0
EndSplineSet
Validated: 1
EndChar

StartChar: Eth
Encoding: 208 208 173
GlifName: E_th
Width: 296
Flags: W
HStem: -141 282<104.539 191.461>
VStem: 0 296<-40.5626 40.5626>
LayerCount: 2
Fore
SplineSet
296 39 m 0
 296 -55 207 -141 108 -141 c 3
 49 -141 0 -106 0 -39 c 3
 0 55 89 141 188 141 c 0
 247 141 296 106 296 39 c 0
EndSplineSet
Validated: 1
EndChar

StartChar: Ntilde
Encoding: 209 209 174
GlifName: N_tilde
Width: 202
Flags: W
HStem: -95 190<59.623 143.334>
VStem: 0 202<-37.2618 37.5247>
LayerCount: 2
Fore
SplineSet
0 -26 m 0
 0 37 62 95 129 95 c 0
 168 95 202 69 202 27 c 0
 202 -37 141 -95 74 -95 c 0
 35 -95 0 -68 0 -26 c 0
EndSplineSet
Validated: 1
EndChar

StartChar: Ograve
Encoding: 210 210 175
GlifName: O_grave
Width: 440
Flags: W
HStem: 127 20G<225.874 290.012>
VStem: 0.0117035 33<-108.137 114.137> 150.012 28<-71.1333 54.0781 117.623 271> 262.012 28<-271 -117.623 -54.0781 71.1333> 407.012 33<-114.137 108.137>
LayerCount: 2
Fore
SplineSet
407.012 -3 m 0
 407.012 125 348.012 206 319.012 249 c 0
 335.012 264 l 0
 379.012 219 440.012 132 440.012 -3 c 0
 441.012 -138 379.012 -225 335.012 -270 c 0
 319.012 -255 l 0
 348.012 -212 408.012 -131 407.012 -3 c 0
33.0117 3 m 0
 33.0117 -125 92.0117 -206 121.012 -249 c 0
 105.012 -264 l 0
 61.0117 -219 0.0117035 -132 0.0117035 3 c 0
 -0.988297 138 61.0117 225 105.012 270 c 0
 121.012 255 l 0
 92.0117 212 32.0117 131 33.0117 3 c 0
290.012 -271 m 0
 262.012 -271 l 0
 262.012 -130 l 0
 262.012 -121 251.012 -116 243.012 -118 c 0
 150.012 -147 l 0
 150.012 271 l 0
 178.012 271 l 0
 178.012 130 l 0
 178.012 121 189.012 116 197.012 118 c 0
 290.012 147 l 0
 290.012 -271 l 0
175.012 -60 m 0
 175.012 -67 184.012 -74 193.012 -71 c 0
 255.012 -52 l 0
 261.012 -50 265.012 -47 265.012 -40 c 0
 265.012 60 l 0
 265.012 67 256.012 74 247.012 71 c 0
 185.012 52 l 0
 179.012 50 175.012 47 175.012 40 c 0
 175.012 -60 l 0
EndSplineSet
Validated: 33
EndChar

StartChar: Oacute
Encoding: 211 211 176
GlifName: O_acute
Width: 423
Flags: W
HStem: 94 20G<242.512 270.512>
VStem: 0.0117035 33<-9.13704 213.137> 150.012 43<107.006 340> 150.012 26<-65.1817 74.7327> 390.012 33<-9.13704 213.137>
LayerCount: 2
Fore
SplineSet
390.012 102 m 0xc8
 390.012 230 331.012 311 302.012 354 c 0
 318.012 369 l 0
 362.012 324 423.012 237 423.012 102 c 0
 424.012 -33 362.012 -120 318.012 -165 c 0
 302.012 -150 l 0
 331.012 -107 391.012 -26 390.012 102 c 0xc8
33.0117 102 m 0
 33.0117 -26 92.0117 -107 121.012 -150 c 0
 105.012 -165 l 0
 61.0117 -120 0.0117035 -33 0.0117035 102 c 0
 -0.988297 237 61.0117 324 105.012 369 c 0
 121.012 354 l 0
 92.0117 311 32.0117 230 33.0117 102 c 0
194.012 -65 m 0
 245.012 -28 260.012 3 254.012 47 c 0
 247.012 97 204.012 91 182.012 69 c 0
 178.012 64 176.012 59 176.012 53 c 0
 176.012 -57 l 0xd8
 176.012 -65 188.012 -69 194.012 -65 c 0
160.012 -123 m 0
 151.012 -130 150.012 -129 150.012 -116 c 0xd8
 150.012 340 l 0
 193.012 340 l 0
 193.012 121 l 0xe8
 193.012 115 204.012 107 210.012 107 c 0
 219.012 107 232.012 114 253.012 114 c 0
 288.012 114 318.012 91 318.012 47 c 0
 318.012 -17 244.012 -54 194.012 -95 c 0
 160.012 -123 l 0
EndSplineSet
Validated: 33
EndChar

StartChar: Ocircumflex
Encoding: 212 212 177
GlifName: O_circumflex
Width: 446
Flags: W
HStem: 134 20G<296.012 321.012>
VStem: 0.0117035 33<-117.137 105.137> 167.012 28<-264 -146.668 -68.0879 45.0872 122.912 244> 251.012 28<-244 -122.912 -45.0872 68.0879 146.668 264> 413.012 33<-103.137 119.137>
LayerCount: 2
Fore
SplineSet
413.012 8 m 0
 413.012 136 354.012 217 325.012 260 c 0
 341.012 275 l 0
 385.012 230 446.012 143 446.012 8 c 0
 447.012 -127 385.012 -214 341.012 -259 c 0
 325.012 -244 l 0
 354.012 -201 414.012 -120 413.012 8 c 0
33.0117 -6 m 0
 33.0117 -134 92.0117 -215 121.012 -258 c 0
 105.012 -273 l 0
 61.0117 -228 0.0117035 -141 0.0117035 -6 c 0
 -0.988297 129 61.0117 216 105.012 261 c 0
 121.012 246 l 0
 92.0117 203 32.0117 122 33.0117 -6 c 0
194.012 -56 m 0
 194.012 -64 204.012 -70 212.012 -68 c 0
 241.012 -60 l 0
 247.012 -58 252.012 -52 252.012 -44 c 0
 252.012 56 l 0
 252.012 64 242.012 70 234.012 68 c 0
 205.012 60 l 0
 199.012 58 194.012 52 194.012 44 c 0
 194.012 -56 l 0
168.012 32 m 0
 168.012 40 160.012 47 153.012 45 c 0
 125.012 37 l 0
 125.012 98 l 0
 149.012 104 l 0
 162.012 108 167.012 116 167.012 128 c 0
 167.012 244 l 0
 195.012 244 l 0
 195.012 135 l 0
 195.012 127 205.012 121 212.012 123 c 0
 238.012 130 l 0
 248.012 133 251.012 138 251.012 146 c 0
 251.012 264 l 0
 279.012 264 l 0
 279.012 160 l 0
 279.012 152 289.012 145 296.012 147 c 0
 321.012 154 l 0
 321.012 93 l 0
 290.012 84 l 0
 283.012 83 278.012 78 278.012 70 c 0
 278.012 -32 l 0
 278.012 -40 286.012 -47 293.012 -45 c 0
 321.012 -37 l 0
 321.012 -98 l 0
 297.012 -104 l 0
 284.012 -108 279.012 -116 279.012 -128 c 0
 279.012 -244 l 0
 251.012 -244 l 0
 251.012 -135 l 0
 251.012 -127 241.012 -121 234.012 -123 c 0
 208.012 -130 l 0
 198.012 -133 195.012 -138 195.012 -146 c 0
 195.012 -264 l 0
 167.012 -264 l 0
 167.012 -160 l 0
 167.012 -152 157.012 -145 150.012 -147 c 0
 125.012 -154 l 0
 125.012 -93 l 0
 156.012 -84 l 0
 163.012 -83 168.012 -78 168.012 -70 c 0
 168.012 32 l 0
EndSplineSet
Validated: 33
EndChar

StartChar: Otilde
Encoding: 213 213 178
GlifName: O_tilde
Width: 577
Flags: W
HStem: 94 20G<242.512 258.012 396.512 424.512>
VStem: 0.0117035 33<-10.137 212.137> 150.012 43<106.008 340> 150.012 26<-65.1817 74.7327> 304.012 43<107.999 340> 304.012 26<-65.1817 -24.633> 330.012 142<-17 59> 544.012 33<-10.137 212.137>
LayerCount: 2
Fore
SplineSet
544.012 101 m 0xc3
 544.012 229 485.012 310 456.012 353 c 0
 472.012 368 l 0
 516.012 323 577.012 236 577.012 101 c 0
 578.012 -34 516.012 -121 472.012 -166 c 0
 456.012 -151 l 0
 485.012 -108 545.012 -27 544.012 101 c 0xc3
33.0117 101 m 0
 33.0117 -27 92.0117 -108 121.012 -151 c 0
 105.012 -166 l 0
 61.0117 -121 0.0117035 -34 0.0117035 101 c 0
 -0.988297 236 61.0117 323 105.012 368 c 0
 121.012 353 l 0
 92.0117 310 32.0117 229 33.0117 101 c 0
348.012 -65 m 0
 399.012 -28 414.012 3 408.012 47 c 0
 401.012 97 358.012 91 336.012 69 c 0
 332.012 64 330.012 59 330.012 53 c 0xc3
 330.012 -57 l 0xc5
 330.012 -65 342.012 -69 348.012 -65 c 0
194.012 -65 m 0
 245.012 -28 260.012 3 254.012 47 c 0
 247.012 97 204.012 91 182.012 69 c 0
 178.012 64 176.012 59 176.012 53 c 0
 176.012 -57 l 0xd1
 176.012 -65 188.012 -69 194.012 -65 c 0
160.012 -123 m 0
 151.012 -130 150.012 -129 150.012 -116 c 0xd5
 150.012 340 l 0
 193.012 340 l 0
 193.012 123 l 0
 193.012 117 202.012 106 208.012 106 c 0
 217.012 106 232.012 114 253.012 114 c 0
 263.012 114 273.012 112 282.012 108 c 0
 286.012 106 304.012 105 304.012 116 c 0
 304.012 340 l 0
 347.012 340 l 0
 347.012 123 l 0xe9
 347.012 117 356.012 106 362.012 106 c 0
 371.012 106 386.012 114 407.012 114 c 0
 442.012 114 472.012 91 472.012 47 c 0xc3
 472.012 -17 398.012 -54 348.012 -95 c 0
 314.012 -123 l 0
 305.012 -130 304.012 -129 304.012 -116 c 0
 304.012 -32 l 0xc5
 304.012 -20 290.012 -17 282.012 -25 c 0
 257.012 -51 222.012 -72 194.012 -95 c 0
 160.012 -123 l 0
EndSplineSet
Validated: 33
EndChar

StartChar: Odieresis
Encoding: 214 214 179
GlifName: O_dieresis
Width: 414
Flags: W
HStem: -102 73<110 177.781 236.219 304> -25 50<182.043 231.957> 29 73<110 177.781 236.219 304> 116 20G<43 74 340 371>
VStem: 0 29<-68.8292 68.8292> 105 73<-97 -29.2188 29.2188 97> 182 50<-24.9565 24.9565> 236 73<-97 -29.2188 29.2188 97> 385 29<-68.8292 68.8292>
LayerCount: 2
Fore
SplineSet
385 0 m 0
 385 42 369 85 340 123 c 0
 354 136 l 0
 388 102 414 59 414 0 c 0
 414 -59 388 -102 354 -136 c 0
 340 -123 l 0
 369 -85 385 -42 385 0 c 0
29 0 m 0
 29 -42 45 -85 74 -123 c 0
 60 -136 l 0
 26 -102 0 -59 0 0 c 0
 0 59 26 102 60 136 c 0
 74 123 l 0
 45 85 29 42 29 0 c 0
232 0 m 0
 232 -24 254 -29 304 -29 c 0
 305 -59 307 -90 309 -102 c 0
 297 -100 266 -98 236 -97 c 0
 236 -47 231 -25 207 -25 c 0
 183 -25 178 -47 178 -97 c 0
 148 -98 117 -100 105 -102 c 0
 107 -90 109 -59 110 -29 c 0
 160 -29 182 -24 182 0 c 0
 182 24 160 29 110 29 c 0
 109 59 107 90 105 102 c 0
 117 100 148 98 178 97 c 0
 178 47 183 25 207 25 c 0
 231 25 236 47 236 97 c 0
 266 98 297 100 309 102 c 0
 307 90 305 59 304 29 c 0
 254 29 232 24 232 0 c 0
EndSplineSet
Validated: 1
EndChar

StartChar: Oslash
Encoding: 216 216 180
GlifName: O_slash
Width: 490
Flags: W
HStem: -238 40<74.9407 176.794> 22 50<390.923 447.437> 47 23<5 78.0879 165.857 269.624>
VStem: 414 91<-42.7581 21.9956>
LayerCount: 2
Fore
SplineSet
285 -233 m 0xd0
 209 -233 l 0
 216 -203 l 0
 217 -199 211 -194 205 -199 c 0
 177 -222 143 -238 108 -238 c 0
 34 -238 31 -164 47 -97 c 0
 78 35 l 0
 80 40 74 47 67 47 c 0
 0 47 l 0
 5 70 l 0
 87 70 l 0
 110 169 l 0
 193 248 l 0
 206 261 208 260 204 245 c 0
 166 86 l 0
 164 77 172 70 179 70 c 0
 214 70 l 0xb0
 250 70 347 74 358 76 c 0
 348 34 l 0
 346 27 355 21 360 26 c 0
 389 53 423 72 446 72 c 0
 481 72 505 40 505 3 c 0
 505 -25 489 -51 455 -51 c 0
 429 -51 414 -28 414 -4 c 0
 414 16 407 22 398 22 c 0
 374 22 332 -29 322 -76 c 0
 285 -233 l 0xd0
240 -102 m 0
 272 34 l 0
 274 42 266 47 261 47 c 0
 157 47 l 0
 128 -79 l 0
 109 -158 105 -198 144 -198 c 0
 194 -198 228 -154 240 -102 c 0
EndSplineSet
Validated: 33
EndChar

StartChar: Ugrave
Encoding: 217 217 181
GlifName: U_grave
Width: 535
Flags: W
HStem: -242 35<172.304 230.989> -46 112<479.295 543.821> 50 31<247.503 329.65> 69 28<46.3083 125.789>
VStem: 0 28<-31.1271 49.9919> 100 67<-205.022 -81.0081> 246 28<-188.791 -69.6908> 475 82<-39.9589 22.3472>
LayerCount: 2
Fore
SplineSet
188 -55 m 0x8f
 177 -100 l 0
 173 -121 167 -144 167 -162 c 0
 167 -187 175 -207 199 -207 c 0
 232 -207 246 -172 246 -135 c 0
 246 -103 237 -74 219 -45 c 0
 207 -26 191 -32 188 -55 c 0x8f
86 69 m 0x9f
 50 69 28 45 28 9 c 0
 28 -21 49 -53 89 -53 c 0
 116 -53 125 -41 130 -13 c 0
 134 9 l 0
 142 46 126 69 86 69 c 0x9f
244 189 m 0
 221 91 l 0
 215 65 223 54 248 66 c 0xdf
 270 76 291 81 314 81 c 0
 341 81 361 69 380 50 c 0xaf
 393 36 399 24 408 24 c 0
 419 24 426 33 437 43 c 0
 453 57 476 66 495 66 c 0
 535 66 557 38 557 4 c 0
 557 -24 541 -46 512 -46 c 0xcf
 487 -46 475 -25 475 -4 c 0
 475 15 471 23 462 23 c 0
 446 23 430 1 413 -32 c 0
 402 -54 394 -82 388 -109 c 0
 362 -220 l 0
 359 -232 358 -234 342 -234 c 0
 304 -234 l 0
 292 -234 289 -232 291 -222 c 0
 332 -50 l 0
 335 -36 337 -22 337 -8 c 0
 337 23 334 50 296 50 c 0xaf
 277 50 226 33 226 10 c 0
 226 1 230 -9 238 -22 c 0
 257 -55 274 -93 274 -135 c 0
 274 -181 254 -242 185 -242 c 0
 141 -242 100 -206 100 -153 c 0
 100 -144 102 -136 104 -126 c 0
 107 -109 l 0
 111 -88 101 -83 79 -81 c 0
 28 -76 0 -37 0 9 c 0
 0 63 37 97 86 97 c 0
 111 97 123 89 137 89 c 0
 147 89 154 94 158 110 c 0
 176 189 l 0
 179 200 181 201 191 201 c 0
 234 201 l 0
 244 201 247 200 244 189 c 0
EndSplineSet
Validated: 33
EndChar

StartChar: Uacute
Encoding: 218 218 182
GlifName: U_acute
Width: 290
Flags: W
HStem: -78 66<196.385 251.472> 12 66<38.5275 93.6147>
LayerCount: 2
Fore
SplineSet
50 12 m 0
 29 12 12 -3 0 -17 c 0
 -5 -23 -8 -24 -12 -24 c 0
 -17 -25 -19 -21 -19 -18 c 0
 -20 -11 -10 5 0 17 c 0
 22 43 54 78 91 78 c 0
 153 78 192 -12 240 -12 c 0
 261 -12 278 3 290 17 c 0
 295 23 298 24 302 24 c 0
 307 25 309 21 309 18 c 0
 310 11 300 -5 290 -17 c 0
 268 -43 236 -78 199 -78 c 0
 137 -78 98 12 50 12 c 0
EndSplineSet
Validated: 33
EndChar

StartChar: Ucircumflex
Encoding: 219 219 183
GlifName: U_circumflex
Width: 340
Flags: W
HStem: -137 40<40 300> 97 40<40 300>
VStem: 0 40<-97 97> 300 40<-96.7879 97>
LayerCount: 2
Fore
SplineSet
40 82 m 0
 40 -79 l 0
 40 -88 52 -97 57 -97 c 0
 278 -97 l 0
 287 -97 300 -85 300 -77 c 0
 300 77 l 0
 300 85 289 97 281 97 c 0
 56 97 l 0
 50 97 40 86 40 82 c 0
0 137 m 0
 340 137 l 0
 340 -137 l 0
 0 -137 l 0
 0 137 l 0
EndSplineSet
Validated: 1
EndChar

StartChar: Udieresis
Encoding: 220 220 184
GlifName: U_dieresis
Width: 286
VWidth: 0
Flags: W
HStem: -143 100<11.559 98.2577 187.742 274.441> -30 60<113.467 172.118> 43 100<11.559 98.2577 187.742 274.441>
VStem: 0 100<-131.441 -44.7423 44.7423 131.441> 113 60<-29.1177 29.1177> 186 100<-131.441 -44.7423 44.7423 131.441>
CounterMasks: 1 fc
LayerCount: 2
Fore
SplineSet
173 0 m 0
 172 -28 212 -43 274 -43 c 1
 277 -80 283 -128 286 -143 c 1
 271 -140 223 -134 186 -131 c 1
 186 -69 171 -30 143 -30 c 0
 114 -30 100 -69 100 -131 c 1
 63 -134 15 -140 0 -143 c 1
 3 -128 9 -80 12 -43 c 1
 74 -43 113 -28 113 0 c 0
 113 28 74 43 12 43 c 1
 9 80 3 128 0 143 c 1
 15 140 63 134 100 131 c 1
 100 69 114 30 143 30 c 0
 171 30 186 69 186 131 c 1
 223 134 271 140 286 143 c 1
 283 128 277 80 274 43 c 1
 212 43 173 28 173 0 c 0
EndSplineSet
Validated: 33
EndChar

StartChar: Yacute
Encoding: 221 221 185
GlifName: Y_acute
Width: 250
Flags: W
HStem: 38 32<57.8228 192.177>
LayerCount: 2
Fore
SplineSet
125 38 m 0
 48 38 18 -6 8 -6 c 0
 4 -6 0 -6 0 0 c 0
 0 18 53 70 125 70 c 0
 197 70 250 18 250 0 c 0
 250 -6 246 -6 242 -6 c 0
 232 -6 202 38 125 38 c 0
EndSplineSet
Validated: 1
EndChar

StartChar: Thorn
Encoding: 222 222 186
GlifName: T_horn
Width: 376
Flags: W
HStem: 66 34<105.19 270.81>
LayerCount: 2
Fore
SplineSet
188 66 m 0
 73 66 23 -8 7 -8 c 0
 2 -8 0 -7 0 0 c 0
 0 18 80 100 188 100 c 0
 296 100 376 18 376 0 c 0
 376 -7 374 -8 369 -8 c 0
 353 -8 303 66 188 66 c 0
EndSplineSet
Validated: 1
EndChar

StartChar: germandbls
Encoding: 223 223 187
GlifName: germandbls
Width: 500
Flags: W
HStem: 87 36<140.555 359.445>
LayerCount: 2
Fore
SplineSet
250 123 m 0
 414 123 500 17 500 0 c 0
 500 -6 497 -8 491 -8 c 0
 476 -8 428 87 250 87 c 0
 72 87 24 -8 9 -8 c 0
 3 -8 0 -6 0 0 c 0
 0 17 86 123 250 123 c 0
EndSplineSet
Validated: 1
EndChar

StartChar: agrave
Encoding: 224 224 188
GlifName: agrave
Width: 250
Flags: W
HStem: -70 32<57.8228 192.177>
LayerCount: 2
Fore
SplineSet
125 -38 m 0
 202 -38 232 6 242 6 c 0
 246 6 250 6 250 0 c 0
 250 -18 197 -70 125 -70 c 0
 53 -70 0 -18 0 0 c 0
 0 6 4 6 8 6 c 0
 18 6 48 -38 125 -38 c 0
EndSplineSet
Validated: 1
EndChar

StartChar: aacute
Encoding: 225 225 189
GlifName: aacute
Width: 376
Flags: W
HStem: -100 34<105.19 270.81>
LayerCount: 2
Fore
SplineSet
188 -66 m 0
 303 -66 353 8 369 8 c 0
 374 8 376 7 376 0 c 0
 376 -18 296 -100 188 -100 c 0
 80 -100 0 -18 0 0 c 0
 0 7 2 8 7 8 c 0
 23 8 73 -66 188 -66 c 0
EndSplineSet
Validated: 1
EndChar

StartChar: acircumflex
Encoding: 226 226 190
GlifName: acircumflex
Width: 500
Flags: W
HStem: -123 36<140.555 359.445>
LayerCount: 2
Fore
SplineSet
250 -123 m 0
 86 -123 0 -17 0 0 c 0
 0 6 3 8 9 8 c 0
 24 8 72 -87 250 -87 c 0
 428 -87 476 8 491 8 c 0
 497 8 500 6 500 0 c 0
 500 -17 414 -123 250 -123 c 0
EndSplineSet
Validated: 1
EndChar

StartChar: atilde
Encoding: 227 227 191
GlifName: atilde
Width: 160
Flags: W
HStem: 0 13<-15 -3.42773 163.428 175> 238 13<-15 -3.42773 163.428 175>
VStem: 0 160<13.0044 237.996>
LayerCount: 2
Fore
SplineSet
160 28 m 0
 160 19 170 13 175 13 c 0
 175 0 l 0
 -15 0 l 0
 -15 13 l 0
 -10 13 0 19 0 28 c 0
 0 223 l 0
 0 232 -10 238 -15 238 c 0
 -15 251 l 0
 175 251 l 0
 175 238 l 0
 170 238 160 232 160 223 c 0
 160 28 l 0
EndSplineSet
Validated: 1
EndChar

StartChar: adieresis
Encoding: 228 228 192
GlifName: adieresis
Width: 276
Flags: W
HStem: 51 46<56 159.768> 165 20G<247.5 276>
VStem: 0 136<97.5012 179.137>
LayerCount: 2
Fore
SplineSet
276 182 m 0
 167 -250 l 0
 166 -254 166 -254 162 -254 c 0
 114 -254 l 0
 110 -254 110 -254 111 -251 c 0
 211 77 l 0
 213 84 200 95 191 90 c 0
 158 70 117 51 77 51 c 0
 35 51 0 79 0 125 c 0
 0 166 30 200 68 200 c 0
 106 200 136 172 136 131 c 0
 136 124 135 117 135 112 c 0
 135 105 141 97 152 97 c 0
 155 97 159 98 161 99 c 0
 197 118 233 151 262 185 c 0
 276 182 l 0
EndSplineSet
Validated: 1
EndChar

StartChar: aring
Encoding: 229 229 193
GlifName: aring
Width: 390
Flags: W
HStem: -699 46<56 158.711> -449 46<85 187.538> -199 46<113 215.538> 51 46<142 244.538> 301 46<170 272.538> 415 20G<361.5 390>
VStem: 0 136<-652.499 -570.863> 29 136<-402.499 -320.863> 57 136<-152.499 -70.8628> 86 136<97.5012 179.137> 114 136<347.501 429.137>
LayerCount: 2
Fore
SplineSet
221 -667 m 0xfc20
 222 -660 210 -649 201 -654 c 0
 169 -675 117 -699 77 -699 c 0
 35 -699 0 -671 0 -625 c 0
 0 -584 30 -550 68 -550 c 0
 106 -550 136 -578 136 -619 c 0xfe
 136 -626 135 -633 135 -638 c 0
 135 -645 141 -653 152 -653 c 0
 155 -653 159 -652 161 -651 c 0
 212 -624 237 -601 246 -524 c 0
 259 -410 l 0
 260 -402 248 -393 240 -398 c 0
 196 -427 146 -449 106 -449 c 0
 64 -449 29 -421 29 -375 c 0
 29 -334 59 -300 97 -300 c 0
 135 -300 165 -328 165 -369 c 0xfd
 165 -376 164 -383 164 -388 c 0
 164 -395 170 -403 181 -403 c 0
 184 -403 188 -402 190 -401 c 0
 251 -369 267 -338 277 -248 c 0
 287 -160 l 0
 288 -152 276 -143 268 -148 c 0
 224 -177 174 -199 134 -199 c 0
 92 -199 57 -171 57 -125 c 0
 57 -84 87 -50 125 -50 c 0
 163 -50 193 -78 193 -119 c 0xfc80
 193 -126 192 -133 192 -138 c 0
 192 -145 198 -153 209 -153 c 0
 212 -153 216 -152 218 -151 c 0
 278 -119 296 -91 306 -1 c 0
 316 90 l 0
 317 98 305 107 297 102 c 0
 253 73 203 51 163 51 c 0
 121 51 86 79 86 125 c 0
 86 166 116 200 154 200 c 0
 192 200 222 172 222 131 c 0xfc40
 222 124 221 117 221 112 c 0
 221 105 227 97 238 97 c 0
 241 97 245 98 247 99 c 0
 305 130 324 157 334 244 c 0
 344 340 l 0
 345 348 333 357 325 352 c 0
 281 323 231 301 191 301 c 0
 149 301 114 329 114 375 c 0
 114 416 144 450 182 450 c 0
 220 450 250 422 250 381 c 0
 250 374 249 367 249 362 c 0
 249 355 255 347 266 347 c 0
 269 347 273 348 275 349 c 0
 311 368 347 401 376 435 c 0
 390 432 l 0
 226 -1004 l 0
 170 -1004 l 0
 221 -667 l 0xfc20
EndSplineSet
Validated: 1
EndChar

StartChar: ae
Encoding: 230 230 194
GlifName: ae
Width: 789
Flags: W
HStem: -650 36<-7.16667 43.8171> -174 108<691.676 777.736> -112 226<82.4802 201.672> 74 108<691.676 777.736> 235 48<258.996 348.328> 507 16<281.809 335.882>
VStem: 14 235<-52.8203 64.9479> 217 31<299.423 369.3> 228 39<441.994 500.066> 353 41<294.72 358.953> 354 28<430.712 495.852> 477 123<-180.423 75.3732> 681 108<-162.537 -77.4629 85.4629 170.537>
LayerCount: 2
Fore
SplineSet
681 128 m 0x9c18
 681 158 705 182 735 182 c 0
 763 182 789 158 789 128 c 0
 789 98 763 74 735 74 c 0
 705 74 681 98 681 128 c 0x9c18
681 -120 m 0
 681 -90 705 -66 735 -66 c 0
 763 -66 789 -90 789 -120 c 0
 789 -150 763 -174 735 -174 c 0xcc18
 705 -174 681 -150 681 -120 c 0
136 114 m 0xac58
 199 114 249 64 249 1 c 0
 249 -62 199 -112 136 -112 c 0
 71 -112 14 -59 14 35 c 0xae58
 14 142 104 246 242 266 c 0
 250 267 250 280 244 284 c 0
 227 296 217 313 217 330 c 0xad18
 217 356 232 375 258 389 c 0
 265 393 262 403 257 407 c 0
 240 420 228 436 228 459 c 0
 228 495 266 523 310 523 c 0
 355 523 382 498 382 466 c 0xacb8
 382 445 371 429 356 417 c 0
 348 411 352 403 355 400 c 0
 377 385 394 367 394 340 c 0
 394 317 380 296 359 283 c 0
 351 278 353 265 359 264 c 0
 513 236 600 112 600 -52 c 0
 600 -357 255 -618 -6 -650 c 0
 -12 -614 l 0
 279 -550 477 -344 477 -32 c 0
 477 123 417 235 271 235 c 0
 180 235 112 188 81 131 c 0
 75 120 89 103 98 107 c 0
 106 110 121 114 136 114 c 0xac58
353 321 m 0
 353 353 320 369 288 387 c 0
 263 376 248 360 248 334 c 0x8d58
 248 310 270 283 304 283 c 0
 332 283 353 301 353 321 c 0
267 475 m 0x8cb8
 267 449 295 434 325 418 c 0
 343 429 354 446 354 464 c 0
 354 488 337 507 310 507 c 0
 283 507 267 491 267 475 c 0x8cb8
EndSplineSet
Validated: 1
EndChar

StartChar: ccedilla
Encoding: 231 231 195
GlifName: ccedilla
Width: 68
Flags: W
HStem: 110 20G<58 62.5>
VStem: 0 29<-70.1899 70.1899>
LayerCount: 2
Fore
SplineSet
29 0 m 0
 29 -42 44 -79 63 -106 c 0
 66 -111 68 -116 68 -120 c 0
 68 -126 65 -130 60 -130 c 0
 56 -130 52 -128 47 -122 c 0
 25 -98 0 -59 0 0 c 0
 0 59 25 98 47 122 c 0
 52 128 56 130 60 130 c 0
 65 130 68 126 68 120 c 0
 68 116 66 111 63 106 c 0
 44 79 29 42 29 0 c 0
EndSplineSet
Validated: 1
EndChar

StartChar: egrave
Encoding: 232 232 196
GlifName: egrave
Width: 68
Flags: W
HStem: 110 20G<5.5 10>
VStem: 39 29<-70.1899 70.1899>
LayerCount: 2
Fore
SplineSet
39 0 m 0
 39 42 24 79 5 106 c 0
 2 111 0 116 0 120 c 0
 0 126 3 130 8 130 c 0
 12 130 16 128 21 122 c 0
 43 98 68 59 68 0 c 0
 68 -59 43 -98 21 -122 c 0
 16 -128 12 -130 8 -130 c 0
 3 -130 0 -126 0 -120 c 0
 0 -116 2 -111 5 -106 c 0
 24 -79 39 -42 39 0 c 0
EndSplineSet
Validated: 1
EndChar

StartChar: eacute
Encoding: 233 233 197
GlifName: eacute
Width: 160
Flags: W
HStem: -445 21G<148.5 153.5> 425 20G<148.5 153.5>
VStem: 0 35<-164.395 164.395>
LayerCount: 2
Fore
SplineSet
35 0 m 0
 35 -233 127 -372 154 -417 c 0
 158 -424 160 -430 160 -435 c 0
 160 -442 156 -445 151 -445 c 0
 146 -445 140 -442 134 -434 c 0
 99 -382 0 -243 0 0 c 0
 0 243 99 382 134 434 c 0
 140 442 146 445 151 445 c 0
 156 445 160 442 160 435 c 0
 160 430 158 424 154 417 c 0
 127 372 35 233 35 0 c 0
EndSplineSet
Validated: 1
EndChar

StartChar: ecircumflex
Encoding: 234 234 198
GlifName: ecircumflex
Width: 160
Flags: W
HStem: -445 21G<6.5 11.5> 425 20G<6.5 11.5>
VStem: 125 35<-164.395 164.395>
LayerCount: 2
Fore
SplineSet
125 0 m 0
 125 233 33 372 6 417 c 0
 2 424 0 430 0 435 c 0
 0 442 4 445 9 445 c 0
 14 445 20 442 26 434 c 0
 61 382 160 243 160 0 c 0
 160 -243 61 -382 26 -434 c 0
 20 -442 14 -445 9 -445 c 0
 4 -445 0 -442 0 -435 c 0
 0 -430 2 -424 6 -417 c 0
 33 -372 125 -233 125 0 c 0
EndSplineSet
Validated: 1
EndChar

StartChar: edieresis
Encoding: 235 235 199
GlifName: edieresis
Width: 1182
Flags: W
HStem: -144 28<-13.6921 44.6857 263.308 318.507 533.308 588.507 803.308 858.867> 229 33<77.7302 157.438 265.664 427.438 535.829 697.438 805.829 967.438 1075.83 1154.6> 418 28<322.833 378.692 592.833 648.692 862.833 918.692 1135.81 1195.69>
VStem: -80 66<-115.484 -49.1934> 197 66<-115.484 -49.1934> 379 66<350.484 417.484> 467 66<-115.484 -49.1934> 649 66<350.484 417.484> 737 66<-115.484 -49.1934> 919 66<350.484 417.484> 1196 66<350.484 417.484>
LayerCount: 2
Fore
SplineSet
267 287 m 0
 259 265 265 262 285 262 c 0
 419 262 l 0
 442 262 446 266 454 286 c 0
 498 391 558 446 628 446 c 0
 672 446 715 414 715 373 c 0
 715 345 698 320 667 320 c 0
 639 320 622 341 622 360 c 0
 622 394 649 397 649 408 c 0
 649 415 638 418 629 418 c 0
 589 418 566 382 537 287 c 0
 530 265 535 262 555 262 c 0
 689 262 l 0
 712 262 716 266 724 286 c 0
 768 391 828 446 898 446 c 0
 942 446 985 414 985 373 c 0
 985 345 968 320 937 320 c 0
 909 320 892 341 892 360 c 0
 892 394 919 397 919 408 c 0
 919 415 908 418 899 418 c 0
 859 418 836 382 807 287 c 0
 800 265 805 262 825 262 c 0
 959 262 l 0
 982 262 986 266 994 286 c 0
 1038 391 1098 446 1175 446 c 0
 1219 446 1262 414 1262 373 c 0
 1262 345 1245 320 1214 320 c 0
 1186 320 1169 341 1169 360 c 0
 1169 394 1196 397 1196 408 c 0
 1196 415 1185 418 1176 418 c 0
 1129 418 1106 382 1077 287 c 0
 1070 265 1075 262 1095 262 c 0
 1145 262 l 0
 1155 262 1159.97 260.01 1155 246 c 0
 1148.97 229.012 1145 229 1135 229 c 0
 1083 229 l 0
 1062 229 1059 224 1052 199 c 0
 1029 113 l 0
 984.696 -52.657 916 -144 824 -144 c 0
 780 -144 737 -112 737 -71 c 0
 737 -43 757 -18 788 -18 c 0
 816 -18 830 -39 830 -58 c 0
 830 -92 803 -95 803 -106 c 0
 803 -113 813 -116 822 -116 c 0
 880 -116 906 -48 953 151 c 0
 963 189 l 0
 971.951 223.013 972 229 948 229 c 0
 813 229 l 0
 792 229 788 224 782 199 c 0
 759 113 l 0
 714.631 -52.901 646 -144 554 -144 c 0
 510 -144 467 -112 467 -71 c 0
 467 -43 487 -18 518 -18 c 0
 546 -18 560 -39 560 -58 c 0
 560 -92 533 -95 533 -106 c 0
 533 -113 543 -116 552 -116 c 0
 610 -116 630.901 -46.9736 683 151 c 0
 693 189 l 0
 701.951 223.013 702 229 678 229 c 0
 543 229 l 0
 522 229 518 224 512 199 c 0
 489 113 l 0
 444.631 -52.901 376 -144 284 -144 c 0
 240 -144 197 -112 197 -71 c 0
 197 -43 217 -18 248 -18 c 0
 276 -18 290 -39 290 -58 c 0
 290 -92 263 -95 263 -106 c 0
 263 -113 273 -116 282 -116 c 0
 340 -116 360.901 -46.9736 413 151 c 0
 423 189 l 0
 431.951 223.013 432 229 408 229 c 0
 273 229 l 0
 252 229 248 224 242 199 c 0
 219 113 l 0
 174.631 -52.901 106 -144 7 -144 c 0
 -37 -144 -80 -112 -80 -71 c 0
 -80 -43 -60 -18 -29 -18 c 0
 -1 -18 13 -39 13 -58 c 0
 13 -92 -14 -95 -14 -106 c 0
 -14 -113 -4 -116 5 -116 c 0
 70 -116 90.9014 -46.9736 143 151 c 0
 153 189 l 0
 161.951 223.013 162 229 138 229 c 0
 86 229 l 0
 74 229 71 230 77 248 c 0
 81 262 83 262 98 262 c 0
 149 262 l 0
 172 262 175 266 184 286 c 0
 228 391 288 446 358 446 c 0
 402 446 445 414 445 373 c 0
 445 345 428 320 397 320 c 0
 369 320 352 341 352 360 c 0
 352 394 379 397 379 408 c 0
 379 415 368 418 359 418 c 0
 319 418 296 382 267 287 c 0
EndSplineSet
Validated: 33
EndChar

StartChar: igrave
Encoding: 236 236 200
GlifName: igrave
Width: 912
Flags: W
HStem: -144 28<-13.6921 44.6857 263.308 318.507 533.308 588.867> 229 33<77.7302 157.438 265.664 427.438 535.829 697.438 805.829 884.603> 418 28<322.833 378.692 592.833 648.692 865.809 925.692>
VStem: -80 66<-115.484 -49.1934> 197 66<-115.484 -49.1934> 379 66<350.484 417.484> 467 66<-115.484 -49.1934> 649 66<350.484 417.484> 926 66<350.484 417.484>
LayerCount: 2
Fore
SplineSet
267 287 m 0
 259 265 265 262 285 262 c 0
 419 262 l 0
 442 262 446 266 454 286 c 0
 498 391 558 446 628 446 c 0
 672 446 715 414 715 373 c 0
 715 345 698 320 667 320 c 0
 639 320 622 341 622 360 c 0
 622 394 649 397 649 408 c 0
 649 415 638 418 629 418 c 0
 589 418 566 382 537 287 c 0
 530 265 535 262 555 262 c 0
 689 262 l 0
 712 262 716 266 724 286 c 0
 768 391 828 446 905 446 c 0
 949 446 992 414 992 373 c 0
 992 345 975 320 944 320 c 0
 916 320 899 341 899 360 c 0
 899 394 926 397 926 408 c 0
 926 415 915 418 906 418 c 0
 859 418 836 382 807 287 c 0
 800 265 805 262 825 262 c 0
 875 262 l 0
 885 262 889.974 260.01 885 246 c 0
 878.969 229.012 875 229 865 229 c 0
 813 229 l 0
 792 229 789 224 782 199 c 0
 759 113 l 0
 714.696 -52.657 646 -144 554 -144 c 0
 510 -144 467 -112 467 -71 c 0
 467 -43 487 -18 518 -18 c 0
 546 -18 560 -39 560 -58 c 0
 560 -92 533 -95 533 -106 c 0
 533 -113 543 -116 552 -116 c 0
 610 -116 636 -48 683 151 c 0
 693 189 l 0
 701.951 223.013 702 229 678 229 c 0
 543 229 l 0
 522 229 518 224 512 199 c 0
 489 113 l 0
 444.631 -52.901 376 -144 284 -144 c 0
 240 -144 197 -112 197 -71 c 0
 197 -43 217 -18 248 -18 c 0
 276 -18 290 -39 290 -58 c 0
 290 -92 263 -95 263 -106 c 0
 263 -113 273 -116 282 -116 c 0
 340 -116 360.901 -46.9736 413 151 c 0
 423 189 l 0
 431.951 223.013 432 229 408 229 c 0
 273 229 l 0
 252 229 248 224 242 199 c 0
 219 113 l 0
 174.631 -52.901 106 -144 7 -144 c 0
 -37 -144 -80 -112 -80 -71 c 0
 -80 -43 -60 -18 -29 -18 c 0
 -1 -18 13 -39 13 -58 c 0
 13 -92 -14 -95 -14 -106 c 0
 -14 -113 -4 -116 5 -116 c 0
 70 -116 90.9014 -46.9736 143 151 c 0
 153 189 l 0
 161.951 223.013 162 229 138 229 c 0
 86 229 l 0
 74 229 71 230 77 248 c 0
 81 262 83 262 98 262 c 0
 149 262 l 0
 172 262 175 266 184 286 c 0
 228 391 288 446 358 446 c 0
 402 446 445 414 445 373 c 0
 445 345 428 320 397 320 c 0
 369 320 352 341 352 360 c 0
 352 394 379 397 379 408 c 0
 379 415 368 418 359 418 c 0
 319 418 296 382 267 287 c 0
EndSplineSet
Validated: 33
EndChar

StartChar: iacute
Encoding: 237 237 201
GlifName: iacute
Width: 751
Flags: W
HStem: -194 21G<351 358 425 433> -144 28<-13.6921 45.2555> -26 33<534.369 600.232> 182 21G<381.5 387> 229 33<77.7302 157.457 271.829 350.611 590.401 662.216> 418 28<331.044 391.692>
VStem: -80 66<-115.484 -49.1934> 392 66<351.193 417.484> 472 51<68 211> 667 84<96.3483 228.268>
LayerCount: 2
Fore
SplineSet
385 182 m 0
 378 182 363 189 363 194 c 0
 363 196 365 199 368 204 c 0
 386 234 418 270 464 270 c 0
 493 270 514 259 528 242 c 0
 536 232 543 225 552 225 c 0
 557 225 562 228 568 233 c 0
 593 254 621 266 649 266 c 0
 707 266 751 224 751 161 c 0
 751 59 662 -26 584 -26 c 0
 564 -26 545 -22 530 -13 c 0
 523 -9 515 -6 509 -6 c 0
 500 -6 493 -10 490 -21 c 0
 442 -182 l 0
 439 -192 436 -194 430 -194 c 0
 420 -194 412 -181 391 -181 c 0
 371 -181 363 -194 353 -194 c 0
 349 -194 347 -192 347 -189 c 0
 347 -187 348 -184 349 -181 c 0
 465 177 l 0
 468 186 472 199 472 211 c 0
 472 224 467 235 452 235 c 0
 431 235 412 217 396 192 c 0
 392 185 389 182 385 182 c 0
523 68 m 0
 523 32 538 7 564 7 c 0
 608 7 640 66 660 143 c 0
 665 160 667 175 667 187 c 0
 667 220 650 232 633 232 c 0
 580 232 523 139 523 68 c 0
5 -116 m 0
 70 -116 91.0181 -46.5311 143 151 c 0
 153 189 l 0
 162 223 162 229 138 229 c 0
 86 229 l 0
 74 229 71 230 77 248 c 0
 81 262 83 262 98 262 c 0
 149 262 l 0
 172 262 176 266 184 286 c 0
 228 391 291 446 371 446 c 0
 415 446 458 414 458 373 c 0
 458 345 438 320 407 320 c 0
 379 320 365 341 365 360 c 0
 365 394 392 397 392 408 c 0
 392 415 381 418 372 418 c 0
 325 418 302 382 273 287 c 0
 266 265 271 262 291 262 c 0
 341 262 l 0
 351 262 356 260 351 246 c 0
 345 229 341 229 331 229 c 0
 279 229 l 0
 258 229 254 224 248 199 c 0
 225 113 l 0
 180.731 -52.527 109 -144 7 -144 c 0
 -37 -144 -80 -112 -80 -71 c 0
 -80 -43 -60 -18 -29 -18 c 0
 -1 -18 13 -39 13 -58 c 0
 13 -92 -14 -95 -14 -106 c 0
 -14 -113 -4 -116 5 -116 c 0
EndSplineSet
Validated: 33
EndChar

StartChar: icircumflex
Encoding: 238 238 202
GlifName: icircumflex
Width: 324
Flags: W
HStem: 0 147<0 324> 0 13<-15 -3.42773 327.428 339>
LayerCount: 2
Fore
SplineSet
0 147 m 0x80
 324 147 l 0x80
 324 28 l 0
 324 19 334 13 339 13 c 0
 339 0 l 0
 -15 0 l 0
 -15 13 l 0x40
 -10 13 0 19 0 28 c 0
 0 147 l 0x80
EndSplineSet
Validated: 1
EndChar

StartChar: idieresis
Encoding: 239 239 203
GlifName: idieresis
Width: 275
Flags: W
HStem: 99 21G<0 27>
VStem: 0 27<108 120 -88 -41> 242 33<234 398>
LayerCount: 2
Fore
SplineSet
0 -88 m 1
 0 120 l 25
 26 120 l 0
 26 114 33 108 42 108 c 0
 67 108 98 116 121 127 c 0
 207 168 242 242 242 315 c 0
 242 354 231 386 221 410 c 1
 245 435 l 1
 258 412 275 371 275 316 c 0
 275 198 205 112 126 49 c 0
 63 -1 26 -40 26 -88 c 9
 0 -88 l 1
EndSplineSet
Validated: 1
EndChar

StartChar: eth
Encoding: 240 240 204
GlifName: eth
Width: 144
Flags: W
LayerCount: 2
Fore
SplineSet
7 219 m 0
 19.2744 215.939 47 207 72 207 c 0
 97 207 123.804 215.71 137 219 c 0
 142.308 220.322 145.869 220.555 144 214 c 0
 79 -14 l 0
 77 -21 75 -25 72 -25 c 0
 70 -25 67 -21 65 -13 c 0
 1 211 l 0
 -1.59128 218.774 0.194716 220.697 7 219 c 0
EndSplineSet
Validated: 1
EndChar

StartChar: ntilde
Encoding: 241 241 205
GlifName: ntilde
Width: 144
Flags: W
LayerCount: 2
Fore
SplineSet
137.526 -219 m 0
 125.526 -216 97.526 -207 72.526 -207 c 0
 47.526 -207 20.526 -216 7.526 -219 c 0
 2.526 -220 -1.474 -221 0.526001 -214 c 0
 65.526 14 l 0
 67.526 21 69.526 25 72.526 25 c 0
 74.526 25 77.526 21 79.526 13 c 0
 143.526 -211 l 0
 146.526 -219 144.526 -221 137.526 -219 c 0
EndSplineSet
Validated: 1
EndChar

StartChar: ograve
Encoding: 242 242 206
GlifName: ograve
Width: 110
Flags: W
VStem: 0 110<64.2712 226.743>
LayerCount: 2
Fore
SplineSet
55 239 m 0
 79 239 110 225 110 171 c 0
 110 148 96 85 68 -5 c 0
 61 -26 58 -34 55 -34 c 0
 52 -34 49 -27 41 -4 c 0
 11 85 0 146 0 171 c 0
 0 224 33 239 55 239 c 0
EndSplineSet
Validated: 1
EndChar

StartChar: oacute
Encoding: 243 243 207
GlifName: oacute
Width: 110
Flags: W
VStem: -110 110<-226.743 -64.2712>
LayerCount: 2
Fore
SplineSet
-55 -239 m 0
 -79 -239 -110 -225 -110 -171 c 0
 -110 -148 -96 -85 -68 5 c 0
 -61 26 -58 34 -55 34 c 0
 -52 34 -49 27 -41 4 c 0
 -11 -85 0 -146 0 -171 c 0
 0 -224 -33 -239 -55 -239 c 0
EndSplineSet
Validated: 1
EndChar

